<?xml version="1.0" encoding="utf-8"?>
<svg xmlns="http://www.w3.org/2000/svg" height="271pt" version="1.1" viewBox="0 0 1131 271" width="1131pt">
<g id="#000000ff">
<path d="M 992.73 4.29 C 991.53 3.16 992.28 1.01 994.06 1.41 C 998.17 1.33 1003.92 0.30 1005.97 4.99 C 1010.74 14.06 1016.10 22.85 1020.18 32.26 C 1015.88 32.49 1010.03 32.78 1007.73 28.33 C 1002.77 20.29 997.66 12.35 992.73 4.29 Z" fill="#000000" opacity="1.00"/>
<path d="M 938.41 14.99 C 942.34 12.45 948.34 8.31 952.47 12.61 C 961.94 21.56 971.95 29.95 981.09 39.24 C 978.59 41.07 975.71 43.41 972.40 42.78 C 970.73 42.22 969.38 41.04 968.02 39.98 C 960.35 33.66 952.64 27.40 944.91 21.16 C 942.61 19.26 940.02 17.57 938.41 14.99 Z" fill="#000000" opacity="1.00"/>
<path d="M 1044.24 10.71 C 1048.14 11.95 1053.09 12.81 1055.28 16.66 C 1056.51 24.54 1056.79 32.59 1057.22 40.56 C 1053.71 39.78 1048.73 39.17 1047.87 34.90 C 1046.36 26.90 1044.89 18.83 1044.24 10.71 Z" fill="#000000" opacity="1.00"/>
<path d="M 30.51 44.51 C 45.64 31.22 66.02 24.93 85.97 24.98 C 104.95 24.69 124.41 29.89 139.55 41.64 C 156.33 54.35 166.48 74.19 170.32 94.61 C 159.38 94.63 148.43 94.63 137.48 94.61 C 134.21 81.00 127.12 67.74 115.46 59.54 C 101.98 49.87 83.56 48.24 68.19 54.09 C 55.64 58.90 45.89 69.42 40.54 81.60 C 33.60 97.32 32.48 115.07 34.50 131.97 C 36.58 147.84 42.99 164.05 55.74 174.33 C 68.54 184.87 86.78 187.68 102.43 182.67 C 113.18 179.32 122.42 171.83 128.48 162.40 C 132.76 155.94 135.54 148.60 137.41 141.11 C 148.36 141.15 159.32 141.10 170.28 141.13 C 166.41 161.64 156.18 181.57 139.26 194.26 C 124.74 205.49 106.21 210.73 87.99 210.77 C 70.05 211.08 51.67 206.62 36.91 196.17 C 20.60 184.96 9.71 167.08 4.88 148.10 C 0.45 130.59 0.04 112.09 3.32 94.34 C 6.85 75.45 15.87 57.22 30.51 44.51 Z" fill="#000000" opacity="1.00"/>
<path d="M 1085.43 36.63 L 1085.86 36.02 C 1088.86 38.04 1091.57 40.57 1093.77 43.45 C 1095.70 46.60 1093.28 50.08 1092.44 53.20 C 1090.94 56.46 1090.78 60.56 1088.13 63.16 C 1084.84 60.87 1080.61 57.52 1081.77 52.97 C 1083.04 47.56 1083.24 41.74 1085.43 36.63 Z" fill="#000000" opacity="1.00"/>
<path d="M 902.52 39.47 C 904.44 37.74 907.05 38.87 909.04 39.86 C 921.26 45.99 933.45 52.16 945.72 58.16 C 947.09 58.86 948.53 59.60 949.41 60.94 C 947.75 63.95 944.61 66.30 941.25 66.97 C 931.27 63.10 921.61 58.39 911.74 54.22 C 906.90 51.90 901.74 50.21 897.09 47.52 C 896.93 47.14 896.61 46.38 896.45 46.00 C 898.17 43.57 900.23 41.38 902.52 39.47 Z" fill="#000000" opacity="1.00"/>
<path d="M 1006.22 45.55 C 1008.71 44.81 1011.28 44.04 1013.92 44.30 C 1015.39 45.05 1016.11 46.66 1017.05 47.95 C 1020.03 52.84 1023.17 57.63 1026.04 62.59 C 1024.14 63.10 1022.23 63.82 1020.26 63.72 C 1018.49 63.42 1017.61 61.69 1016.59 60.43 C 1013.15 55.46 1009.53 50.61 1006.22 45.55 Z" fill="#000000" opacity="1.00"/>
<path d="M 1028.74 44.35 C 1031.71 44.59 1036.37 43.56 1037.54 47.24 C 1039.43 52.67 1041.21 58.16 1042.48 63.78 C 1040.00 63.30 1036.39 63.86 1035.27 60.96 C 1032.80 55.55 1030.86 49.91 1028.74 44.35 Z" fill="#000000" opacity="1.00"/>
<path d="M 984.92 52.41 C 987.10 51.17 989.42 49.99 991.94 49.65 C 993.89 50.23 995.27 51.87 996.78 53.16 C 1001.37 57.55 1006.27 61.63 1010.68 66.21 C 1008.37 67.35 1005.60 69.88 1002.98 68.19 C 997.97 64.52 993.35 60.34 988.44 56.55 C 987.14 55.31 985.17 54.36 984.92 52.41 Z" fill="#000000" opacity="1.00"/>
<path d="M 1050.25 49.16 C 1053.17 50.43 1058.24 50.84 1058.51 54.90 C 1059.08 59.82 1059.39 64.76 1059.56 69.71 C 1057.10 68.61 1053.37 68.20 1052.70 65.06 C 1051.56 59.82 1050.83 54.49 1050.25 49.16 Z" fill="#000000" opacity="1.00"/>
<path d="M 966.20 65.90 C 968.13 63.18 971.74 58.92 975.32 61.56 C 982.33 65.67 989.42 69.65 996.28 74.01 C 994.60 75.55 993.08 77.46 990.86 78.19 C 986.94 77.23 983.56 74.89 979.98 73.14 C 975.42 70.66 970.52 68.80 966.20 65.90 Z" fill="#000000" opacity="1.00"/>
<path d="M 1068.86 74.12 C 1069.03 69.35 1069.52 64.57 1070.50 59.90 C 1072.82 61.81 1075.70 63.37 1077.16 66.11 C 1076.97 71.07 1075.22 75.83 1074.06 80.62 C 1071.96 78.87 1068.70 77.32 1068.86 74.12 Z" fill="#000000" opacity="1.00"/>
<path d="M 452.83 71.63 C 468.97 70.28 486.24 73.50 499.10 83.85 C 507.44 90.55 512.99 100.32 515.16 110.74 C 505.94 110.77 496.72 110.72 487.51 110.77 C 485.53 104.05 480.40 98.32 473.63 96.22 C 464.14 93.18 453.52 92.89 444.10 96.36 C 439.71 98.06 435.27 101.02 433.80 105.73 C 432.38 110.88 434.57 116.87 439.10 119.77 C 445.07 123.79 452.40 124.53 459.27 125.93 C 472.25 128.58 485.65 130.51 497.66 136.43 C 505.96 140.28 513.23 147.14 515.93 156.07 C 518.98 166.38 517.93 178.09 512.31 187.35 C 505.42 198.62 493.16 205.49 480.58 208.50 C 466.00 211.90 450.35 211.68 436.18 206.61 C 423.96 202.17 413.06 193.26 407.62 181.30 C 405.35 176.79 404.19 171.83 403.32 166.89 C 412.87 166.86 422.43 166.87 431.99 166.88 C 433.54 173.15 436.51 179.43 442.06 183.10 C 449.84 188.53 459.91 189.15 469.06 188.01 C 475.52 187.10 482.35 184.67 486.35 179.22 C 490.69 173.27 489.21 164.12 483.38 159.68 C 476.45 154.18 467.32 153.23 458.96 151.45 C 444.97 148.65 429.91 146.78 418.31 137.71 C 403.49 126.57 401.17 102.40 413.72 88.72 C 423.50 77.65 438.50 72.86 452.83 71.63 Z" fill="#000000" opacity="1.00"/>
<path d="M 583.52 71.71 C 600.08 70.05 617.40 74.20 630.80 84.24 C 644.22 94.00 652.51 109.69 655.06 125.91 C 657.62 142.65 656.46 160.52 648.95 175.92 C 643.14 188.36 632.70 198.41 620.35 204.30 C 603.83 211.99 584.29 212.85 567.11 206.80 C 554.34 202.33 542.97 193.65 535.81 182.11 C 526.20 167.06 523.81 148.46 525.56 130.97 C 527.15 114.67 534.09 98.51 546.51 87.54 C 556.68 78.42 569.97 73.05 583.52 71.71 M 582.38 95.61 C 571.83 98.18 563.47 106.56 559.43 116.45 C 554.30 128.89 553.81 142.93 556.34 156.04 C 558.46 166.57 564.00 176.97 573.36 182.72 C 583.82 189.32 598.01 189.12 608.40 182.47 C 615.49 178.00 620.30 170.67 623.10 162.89 C 626.52 153.01 627.03 142.31 625.90 131.98 C 624.68 121.38 620.78 110.61 612.78 103.23 C 604.89 95.58 592.93 92.89 582.38 95.61 Z" fill="#000000" opacity="1.00"/>
<path d="M 683.92 89.92 C 707.17 65.88 750.55 64.67 774.08 88.93 C 789.71 104.61 795.24 127.80 794.00 149.38 C 760.84 149.37 727.69 149.37 694.54 149.38 C 695.40 157.75 697.90 166.17 703.21 172.84 C 709.87 181.60 720.95 186.63 731.90 186.27 C 740.95 186.13 750.46 183.58 757.07 177.10 C 759.90 174.49 761.84 171.14 763.60 167.76 C 773.25 167.74 782.90 167.74 792.55 167.76 C 788.30 181.64 779.12 194.03 766.67 201.61 C 751.80 210.72 733.36 212.61 716.47 209.23 C 701.80 206.29 688.23 197.95 679.24 185.95 C 667.39 170.43 663.18 150.05 665.18 130.85 C 666.74 115.67 673.02 100.75 683.92 89.92 M 704.22 105.16 C 698.31 111.22 695.54 119.60 694.54 127.85 C 717.73 127.91 740.91 127.86 764.10 127.87 C 763.55 117.67 759.16 107.32 750.71 101.21 C 737.11 90.77 715.88 92.63 704.22 105.16 Z" fill="#000000" opacity="1.00"/>
<path d="M 187.12 74.37 C 196.79 74.39 206.45 74.37 216.11 74.38 C 216.12 82.21 216.16 90.04 216.09 97.88 C 221.06 88.26 229.02 79.71 239.55 76.36 C 247.11 73.60 255.25 74.50 263.12 74.38 C 263.13 84.13 263.13 93.88 263.12 103.62 C 253.67 103.94 244.06 102.59 234.75 104.75 C 228.75 106.11 223.40 110.16 220.71 115.72 C 216.44 124.12 216.59 133.84 216.62 143.03 C 216.63 164.52 216.62 186.01 216.62 207.50 C 206.79 207.50 196.96 207.50 187.13 207.50 C 187.12 163.12 187.13 118.74 187.12 74.37 Z" fill="#000000" opacity="1.00"/>
<path d="M 276.38 74.38 C 286.05 74.37 295.71 74.38 305.38 74.38 C 305.37 100.93 305.38 127.49 305.37 154.05 C 305.44 163.30 307.26 173.25 313.71 180.28 C 319.01 186.14 327.37 187.93 334.97 187.59 C 341.86 187.37 349.07 185.02 353.60 179.58 C 359.85 172.31 361.42 162.33 361.49 153.04 C 361.51 126.82 361.49 100.60 361.50 74.38 C 371.13 74.37 380.75 74.38 390.38 74.38 C 390.35 102.24 390.41 130.11 390.36 157.98 C 390.02 171.71 386.22 186.23 376.10 196.07 C 365.27 207.19 349.07 210.74 334.05 210.76 C 318.84 210.95 302.46 207.67 291.20 196.73 C 280.61 186.53 276.63 171.40 276.40 157.09 C 276.34 129.52 276.38 101.95 276.38 74.38 Z" fill="#000000" opacity="1.00"/>
<path d="M 1038.71 74.02 C 1040.99 74.39 1043.51 74.26 1045.58 75.47 C 1047.36 79.07 1047.98 83.12 1048.88 87.01 C 1047.01 86.93 1045.13 86.99 1043.33 86.52 C 1040.84 82.81 1039.92 78.27 1038.71 74.02 Z" fill="#000000" opacity="1.00"/>
<path d="M 1014.57 78.85 C 1017.26 77.94 1020.60 74.94 1023.13 77.64 C 1026.86 81.00 1030.31 84.67 1033.73 88.34 C 1031.53 89.15 1028.82 91.54 1026.66 89.44 C 1022.49 86.08 1018.45 82.55 1014.57 78.85 Z" fill="#000000" opacity="1.00"/>
<path d="M 951.15 84.16 C 952.61 81.96 953.41 78.81 955.91 77.58 C 959.94 77.72 963.68 79.62 967.56 80.63 C 973.15 82.57 979.16 83.49 984.35 86.47 C 982.97 88.06 982.09 90.37 980.09 91.25 C 977.69 91.41 975.38 90.49 973.08 89.98 C 965.79 87.95 958.34 86.50 951.15 84.16 Z" fill="#000000" opacity="1.00"/>
<path d="M 1105.64 84.68 C 1109.02 82.60 1112.47 80.53 1116.19 79.10 C 1117.50 78.56 1118.67 79.65 1119.17 80.78 C 1120.84 84.16 1122.60 87.74 1122.44 91.61 C 1118.00 92.99 1113.60 94.68 1108.99 95.38 C 1106.56 95.32 1105.84 92.60 1105.05 90.78 C 1104.31 88.85 1103.26 85.92 1105.64 84.68 Z" fill="#000000" opacity="1.00"/>
<path d="M 1080.87 88.16 C 1082.94 84.66 1085.98 81.85 1088.86 79.02 C 1090.53 81.23 1092.30 83.43 1093.38 86.02 C 1091.72 89.94 1086.97 91.45 1083.76 93.96 C 1082.63 92.15 1080.70 90.46 1080.87 88.16 Z" fill="#000000" opacity="1.00"/>
<path d="M 869.13 91.64 C 870.96 88.02 871.23 80.63 876.89 81.40 C 892.28 83.31 907.63 85.60 923.02 87.52 C 925.13 87.85 927.34 87.92 929.34 88.77 C 931.27 90.12 929.55 92.51 929.09 94.21 C 928.45 96.34 926.39 97.98 924.10 97.51 C 908.04 96.24 891.99 94.73 875.92 93.50 C 873.53 93.42 871.13 93.02 869.13 91.64 Z" fill="#000000" opacity="1.00"/>
<path d="M 1059.25 80.69 C 1061.23 81.99 1063.61 83.01 1064.88 85.12 C 1065.24 88.26 1064.27 91.35 1063.57 94.38 C 1062.04 92.91 1059.74 91.96 1058.93 89.91 C 1058.52 86.84 1058.99 83.75 1059.25 80.69 Z" fill="#000000" opacity="1.00"/>
<path d="M 996.39 96.18 C 997.91 94.03 998.95 89.39 1002.44 90.44 C 1008.51 92.54 1014.69 94.44 1020.58 97.02 C 1020.14 99.15 1018.91 102.80 1016.08 101.81 C 1009.46 100.18 1002.85 98.38 996.39 96.18 Z" fill="#000000" opacity="1.00"/>
<path d="M 942.37 105.10 C 942.77 102.55 943.43 99.91 945.00 97.80 C 948.97 97.49 952.94 98.24 956.91 98.50 C 963.41 99.17 969.99 99.25 976.41 100.59 C 975.29 102.74 975.33 107.01 972.05 106.85 C 964.06 106.81 956.07 106.23 948.08 106.07 C 946.16 105.89 944.06 106.16 942.37 105.10 Z" fill="#000000" opacity="1.00"/>
<path d="M 1070.59 102.99 C 1071.12 100.43 1074.39 100.15 1076.28 98.85 C 1077.42 101.03 1078.45 103.26 1079.46 105.51 C 1077.36 106.75 1075.06 107.57 1072.71 108.14 C 1071.94 106.45 1071.10 104.78 1070.59 102.99 Z" fill="#000000" opacity="1.00"/>
<path d="M 1095.47 102.64 C 1097.01 102.49 1098.67 102.06 1100.18 102.70 C 1101.44 105.28 1101.96 108.18 1101.95 111.05 C 1097.90 111.35 1093.71 111.29 1089.78 110.22 C 1088.71 108.57 1087.08 105.56 1088.99 104.05 C 1091.05 103.24 1093.29 103.01 1095.47 102.64 Z" fill="#000000" opacity="1.00"/>
<path d="M 990.58 111.37 C 991.76 110.27 993.45 110.58 994.94 110.51 C 1001.47 110.64 1008.00 110.68 1014.53 110.86 C 1014.36 112.74 1014.86 114.87 1013.83 116.58 C 1005.97 117.49 997.98 117.91 990.07 117.80 C 989.70 115.65 989.90 113.42 990.58 111.37 Z" fill="#000000" opacity="1.00"/>
<path d="M 942.38 119.69 C 952.34 118.33 962.33 117.12 972.31 115.90 C 972.43 118.01 972.76 120.19 972.20 122.27 C 970.52 124.27 967.47 123.87 965.17 124.56 C 956.59 125.76 948.17 128.30 939.50 128.65 C 939.99 125.71 938.09 120.25 942.38 119.69 Z" fill="#000000" opacity="1.00"/>
<path d="M 1072.95 123.92 C 1072.65 121.95 1073.35 120.01 1073.67 118.09 C 1076.16 119.95 1079.24 121.36 1081.00 124.02 C 1081.25 126.34 1080.57 128.63 1080.18 130.90 C 1077.57 128.81 1074.65 126.87 1072.95 123.92 Z" fill="#000000" opacity="1.00"/>
<path d="M 1090.36 120.63 C 1094.31 122.51 1098.10 124.75 1101.67 127.29 C 1105.11 129.59 1102.74 134.29 1102.72 137.62 C 1098.76 135.23 1095.30 132.15 1091.83 129.14 C 1089.12 127.12 1090.32 123.46 1090.36 120.63 Z" fill="#000000" opacity="1.00"/>
<path d="M 865.90 129.35 C 882.94 127.16 900.00 125.06 917.04 122.82 C 918.71 122.92 921.25 121.75 922.38 123.40 C 923.52 126.30 924.00 131.89 919.92 132.70 C 902.74 136.07 885.47 138.97 868.28 142.25 C 866.10 142.72 863.86 142.73 861.67 142.42 C 861.54 138.98 861.21 135.50 861.71 132.08 C 861.96 130.09 864.26 129.59 865.90 129.35 Z" fill="#000000" opacity="1.00"/>
<path d="M 1112.70 122.41 C 1119.02 125.13 1126.26 127.08 1131.00 132.36 L 1131.00 143.93 C 1125.88 142.21 1121.74 138.68 1117.29 135.77 C 1115.40 134.40 1113.07 133.03 1112.62 130.54 C 1112.12 127.85 1112.50 125.11 1112.70 122.41 Z" fill="#000000" opacity="1.00"/>
<path d="M 992.32 134.01 C 999.88 130.75 1007.61 127.89 1015.34 125.05 C 1016.18 126.75 1016.97 128.47 1017.76 130.21 C 1010.37 134.19 1002.57 137.40 994.82 140.60 C 993.87 138.44 993.04 136.24 992.32 134.01 Z" fill="#000000" opacity="1.00"/>
<path d="M 971.38 133.21 C 974.69 132.77 974.09 137.41 974.86 139.57 C 966.00 143.36 956.80 146.25 947.83 149.74 C 946.31 150.10 944.32 151.53 943.21 149.72 C 942.24 147.66 941.65 145.37 941.73 143.08 C 942.65 141.72 944.52 141.62 945.94 141.01 C 954.45 138.52 962.84 135.60 971.38 133.21 Z" fill="#000000" opacity="1.00"/>
<path d="M 1064.64 137.99 C 1065.48 136.30 1067.01 135.10 1068.35 133.79 C 1070.34 137.14 1072.71 140.33 1074.01 144.03 C 1073.77 146.49 1071.50 148.16 1070.13 150.06 C 1068.23 146.09 1065.49 142.36 1064.64 137.99 Z" fill="#000000" opacity="1.00"/>
<path d="M 1017.56 141.65 C 1019.27 140.19 1020.81 138.34 1023.02 137.61 C 1024.52 138.53 1025.77 139.79 1027.10 140.96 C 1021.75 147.00 1016.02 152.72 1010.11 158.20 C 1008.24 156.75 1006.40 155.28 1004.62 153.75 C 1008.65 149.43 1013.26 145.71 1017.56 141.65 Z" fill="#000000" opacity="1.00"/>
<path d="M 1087.89 138.42 C 1091.68 142.45 1095.65 146.46 1098.65 151.13 C 1099.17 153.98 1097.69 157.17 1095.68 159.19 C 1092.44 155.39 1089.67 151.23 1086.77 147.17 C 1084.66 144.44 1086.98 141.16 1087.89 138.42 Z" fill="#000000" opacity="1.00"/>
<path d="M 1050.87 147.47 C 1051.12 144.55 1054.63 144.43 1056.77 143.62 C 1056.58 149.25 1057.19 154.97 1056.41 160.55 C 1054.72 162.45 1051.95 162.74 1049.72 163.64 C 1049.94 158.24 1050.21 152.83 1050.87 147.47 Z" fill="#000000" opacity="1.00"/>
<path d="M 1033.05 148.96 C 1033.92 147.56 1034.59 145.89 1036.02 144.95 C 1037.83 145.18 1039.57 145.76 1041.34 146.27 C 1038.88 152.34 1035.91 158.21 1033.05 164.09 C 1031.35 167.40 1027.22 164.84 1024.58 164.31 C 1027.24 159.11 1030.24 154.08 1033.05 148.96 Z" fill="#000000" opacity="1.00"/>
<path d="M 975.20 150.30 C 976.43 149.93 977.95 148.74 979.18 149.80 C 980.46 151.18 981.35 152.86 982.40 154.42 C 978.06 158.07 972.63 159.96 967.78 162.80 C 963.09 165.03 958.71 167.92 953.90 169.86 C 950.86 169.48 949.85 165.57 948.89 163.08 C 950.57 161.50 952.78 160.72 954.83 159.75 C 961.66 156.69 968.40 153.42 975.20 150.30 Z" fill="#000000" opacity="1.00"/>
<path d="M 1077.05 161.83 C 1075.64 158.95 1078.74 156.78 1080.12 154.64 C 1082.84 158.78 1084.95 163.28 1087.33 167.63 C 1088.00 169.17 1089.18 170.82 1088.63 172.59 C 1087.67 174.82 1085.83 176.48 1084.17 178.18 C 1081.73 172.76 1079.16 167.39 1077.05 161.83 Z" fill="#000000" opacity="1.00"/>
<path d="M 924.41 160.42 C 928.46 158.24 930.33 163.06 931.07 166.14 C 931.82 168.05 929.81 169.46 928.30 170.10 C 911.86 177.37 895.41 184.62 878.99 191.95 C 877.42 192.55 875.35 193.70 873.92 192.22 C 872.18 189.42 870.87 186.29 870.13 183.08 C 870.13 181.05 872.27 180.39 873.81 179.74 C 890.70 173.37 907.52 166.81 924.41 160.42 Z" fill="#000000" opacity="1.00"/>
<path d="M 1103.51 169.02 C 1103.42 166.32 1104.81 163.81 1106.19 161.57 C 1108.70 161.28 1109.83 164.02 1111.39 165.51 C 1114.98 170.24 1119.58 174.22 1122.62 179.34 C 1123.61 183.51 1120.68 187.37 1118.97 190.96 C 1114.80 186.70 1111.77 181.51 1108.16 176.81 C 1106.46 174.32 1104.25 172.02 1103.51 169.02 Z" fill="#000000" opacity="1.00"/>
<path d="M 987.49 163.16 C 990.36 162.31 991.90 165.83 993.53 167.58 C 985.86 173.56 978.17 179.52 970.47 185.48 C 967.26 188.82 963.11 184.05 961.90 181.10 C 965.16 177.83 969.35 175.71 973.03 172.95 C 977.89 169.76 982.46 166.09 987.49 163.16 Z" fill="#000000" opacity="1.00"/>
<path d="M 1063.86 172.91 C 1063.46 169.74 1067.16 168.60 1069.16 167.01 C 1070.99 173.29 1072.39 179.71 1073.74 186.12 C 1074.66 189.99 1070.01 191.56 1067.49 193.33 C 1066.02 186.58 1064.84 179.75 1063.86 172.91 Z" fill="#000000" opacity="1.00"/>
<path d="M 994.61 179.61 C 996.69 177.39 998.62 174.97 1001.08 173.15 C 1003.49 172.94 1005.45 174.68 1007.48 175.73 C 1002.60 182.07 997.22 188.00 992.17 194.20 C 990.59 196.05 989.16 198.10 987.15 199.50 C 984.31 199.31 981.96 197.59 979.80 195.92 C 984.46 190.24 989.72 185.09 994.61 179.61 Z" fill="#000000" opacity="1.00"/>
<path d="M 1049.02 179.96 C 1049.42 176.55 1053.41 176.26 1056.03 175.50 C 1055.84 183.00 1055.56 190.51 1055.10 198.00 C 1055.06 202.32 1049.70 202.44 1046.68 203.55 C 1047.25 195.67 1048.05 187.80 1049.02 179.96 Z" fill="#000000" opacity="1.00"/>
<path d="M 1016.42 179.55 C 1018.30 178.49 1020.59 179.47 1022.53 179.93 C 1023.32 181.22 1022.24 182.52 1021.77 183.70 C 1018.56 189.54 1015.45 195.43 1012.39 201.35 C 1011.36 203.08 1010.55 205.06 1008.96 206.35 C 1006.47 206.23 1003.08 206.49 1001.52 204.21 C 1004.18 198.81 1007.64 193.86 1010.62 188.63 C 1012.55 185.61 1013.99 182.23 1016.42 179.55 Z" fill="#000000" opacity="1.00"/>
<path d="M 1032.29 183.10 C 1033.00 179.77 1037.15 179.84 1039.81 180.27 C 1040.02 182.99 1038.89 185.58 1038.30 188.19 C 1036.68 193.71 1035.62 199.38 1033.84 204.85 C 1032.56 208.55 1027.58 206.93 1024.59 207.49 C 1026.71 199.23 1029.77 191.24 1032.29 183.10 Z" fill="#000000" opacity="1.00"/>
<path d="M 942.86 193.82 C 944.50 192.78 946.56 191.12 948.56 192.34 C 950.51 193.71 952.01 195.59 953.63 197.32 C 951.45 200.92 947.74 203.07 944.54 205.63 C 932.91 214.66 921.22 223.61 909.64 232.71 C 908.02 233.89 905.81 235.74 903.86 234.09 C 901.26 231.82 897.79 229.52 897.25 225.89 C 898.13 224.88 899.19 224.03 900.29 223.25 C 914.51 213.48 928.70 203.67 942.86 193.82 Z" fill="#000000" opacity="1.00"/>
<path d="M 1080.30 201.24 C 1081.40 197.89 1083.89 195.26 1086.29 192.79 C 1089.38 197.99 1090.20 204.10 1092.19 209.74 C 1093.49 214.83 1095.81 219.73 1096.30 224.99 C 1095.07 229.13 1091.27 232.12 1087.70 234.32 C 1085.29 225.56 1083.60 216.63 1081.42 207.82 C 1080.95 205.65 1080.21 203.48 1080.30 201.24 Z" fill="#000000" opacity="1.00"/>
<path d="M 973.53 213.64 C 976.53 211.39 980.28 214.05 982.73 215.98 C 982.48 217.49 981.64 218.77 980.75 219.97 C 971.52 231.98 962.31 244.00 953.19 256.08 C 951.62 257.98 950.33 260.43 947.89 261.30 C 944.51 261.05 941.28 259.41 938.47 257.59 C 937.06 255.85 939.22 254.38 940.10 252.99 C 951.31 239.94 962.18 226.57 973.53 213.64 Z" fill="#000000" opacity="1.00"/>
<path d="M 1044.66 221.45 C 1044.96 217.03 1050.10 216.30 1053.42 215.11 C 1054.84 219.65 1053.80 224.41 1053.76 229.06 C 1053.21 238.24 1053.24 247.47 1052.37 256.63 C 1050.76 261.20 1044.85 261.74 1040.80 262.99 C 1041.30 249.10 1043.43 235.29 1044.66 221.45 Z" fill="#000000" opacity="1.00"/>
<path d="M 1006.70 223.71 C 1009.66 222.30 1013.57 221.18 1016.61 222.94 C 1016.39 225.00 1015.78 227.00 1015.16 228.97 C 1011.01 241.20 1006.80 253.40 1002.73 265.65 C 1002.11 267.76 1000.91 269.65 999.17 271.00 L 990.87 271.00 C 990.32 270.75 989.22 270.24 988.67 269.99 C 991.95 258.95 996.87 248.48 1000.81 237.67 C 1002.83 233.05 1003.99 227.99 1006.70 223.71 Z" fill="#000000" opacity="1.00"/>
</g>
</svg>