<?xml version="1.0" encoding="utf-8"?>
<svg xmlns="http://www.w3.org/2000/svg" height="100%" style="fill-rule:evenodd;clip-rule:evenodd;stroke-linejoin:round;stroke-miterlimit:2;" version="1.1" viewBox="0 0 593 168" width="100%">
  <rect height="167.322" id="Artboard1" style="fill:none;" width="592.13" x="0" y="0"/>
  <clipPath id="_clip1">
    <rect height="167.322" width="592.13" x="0" y="0"/>
  </clipPath>
  <g clip-path="url(#_clip1)">
    <g id="_-ffffffff">
      <rect height="168.226" width="592.108" x="0.237" y="-0.677"/>
      <path d="M322.195,37.07c14.63,13.4 29.31,26.74 43.93,40.15c5.17,4.83 9.98,10.04 15.08,14.95c-0.62,-17.06 -0.62,-34.14 -0.52,-51.22c6.04,0.01 12.09,-0.02 18.14,0.02c-0.01,30.25 0.05,60.49 -0.04,90.73c-19.73,-18.3 -40.22,-35.83 -59.02,-55.11c0.61,17.07 0.64,34.15 0.52,51.23c-6.04,0 -12.08,0.03 -18.12,-0.01c-0.01,-30.25 -0.05,-60.5 0.03,-90.74Z" style="fill:#fff;fill-rule:nonzero;"/>
      <path d="M453.635,127.81c15.93,-30.26 31.81,-60.55 47.93,-90.7c16,30.21 31.96,60.45 47.89,90.71c-6.93,0.05 -13.87,-0.06 -20.8,0.05c-9.18,-18.55 -18.01,-37.28 -27.08,-55.89c-9.26,18.55 -17.89,37.41 -27.23,55.91c-6.91,-0.14 -13.81,0 -20.71,-0.08Z" style="fill:#fff;fill-rule:nonzero;"/>
      <path d="M173.655,40.96c7.68,-0.05 15.36,0.03 23.05,-0.04c8.11,12.52 15.76,25.34 23.84,37.89c8.52,-12.61 16.99,-25.24 25.49,-37.85c7.11,0 14.22,-0.02 21.33,0.01c-11.4,16.85 -22.85,33.67 -34.31,50.48c-1.34,2.13 -3.42,4.13 -3.18,6.87c-0.04,9.84 -0,19.68 -0.01,29.52c-6.24,-0.04 -12.48,0.01 -18.72,-0.02c-0.04,-10.15 0.04,-20.31 -0.03,-30.46c0.1,-1.39 -0.91,-2.47 -1.57,-3.59c-11.99,-17.58 -23.96,-35.18 -35.89,-52.81Z" style="fill:#fff;fill-rule:nonzero;"/>
      <path d="M38.495,40.95c12.48,-0.01 24.97,0.01 37.45,-0.01c11.12,0.03 22.12,4.63 30.01,12.46c8.48,8.28 13.35,20.15 12.9,32.01c-0.05,16.06 -10.13,31.43 -24.63,38.21c-5.69,2.71 -11.96,4.19 -18.27,4.22c-12.48,0 -24.97,-0.03 -37.46,0c-0.04,-28.96 -0.02,-57.92 -0,-86.89m18.78,17.78c-0.01,17.11 -0.02,34.22 -0,51.32c6.83,-0.13 13.66,0.14 20.47,-0.13c11.54,-0.92 21.13,-11.06 22.21,-22.45c1.96,-13.23 -8.06,-27.12 -21.54,-28.54c-7.03,-0.43 -14.09,-0.05 -21.14,-0.2Z" style="fill:#fff;fill-rule:nonzero;"/>
    </g>
  </g>
</svg>