<?xml version="1.0" encoding="utf-8"?>
<svg xmlns="http://www.w3.org/2000/svg" height="594pt" version="1.1" viewBox="0 0 1377 594" width="1377pt">
<g id="#2932e1ff">
<path d="M 625.41 89.67 C 635.97 87.47 647.59 90.09 655.68 97.36 C 666.73 107.01 671.69 121.83 672.82 136.10 C 673.64 150.23 672.28 165.02 665.63 177.74 C 661.09 186.59 652.95 193.81 643.12 196.04 C 633.05 198.19 622.06 197.13 613.03 191.94 C 602.57 186.09 595.28 175.62 591.83 164.29 C 586.99 148.30 588.48 130.55 595.44 115.41 C 601.19 103.19 611.83 92.44 625.41 89.67 Z" fill="#2932e1" opacity="1.00"/>
<path d="M 729.43 89.67 C 738.85 87.74 749.00 89.58 757.03 94.92 C 768.18 102.22 775.34 114.43 778.54 127.16 C 782.37 142.62 781.54 159.70 773.93 173.91 C 768.12 185.23 757.25 194.13 744.59 196.37 C 734.83 198.01 724.11 197.05 715.82 191.24 C 705.72 184.24 700.50 172.23 698.31 160.49 C 695.32 143.93 696.11 126.07 703.75 110.81 C 708.87 100.64 717.99 91.94 729.43 89.67 Z" fill="#2932e1" opacity="1.00"/>
<path d="M 547.36 177.58 C 557.33 174.96 568.43 177.13 576.47 183.65 C 587.90 192.77 594.17 207.03 596.35 221.23 C 598.23 235.55 597.02 250.92 589.68 263.64 C 584.86 272.12 576.45 278.49 566.88 280.54 C 556.30 282.78 544.66 281.58 535.44 275.63 C 522.34 267.38 514.96 252.14 513.55 237.05 C 512.43 224.03 514.72 210.55 520.91 198.97 C 526.42 188.75 535.85 180.20 547.36 177.58 Z" fill="#2932e1" opacity="1.00"/>
<path d="M 805.35 177.58 C 815.37 174.94 826.39 177.33 834.90 183.10 C 844.53 189.66 850.71 200.25 853.85 211.29 C 858.39 227.59 857.51 246.00 848.64 260.72 C 842.75 270.85 832.69 278.71 821.05 280.87 C 810.76 282.60 799.47 281.37 790.75 275.26 C 780.78 268.43 775.52 256.62 773.62 245.01 C 771.35 229.92 772.98 213.92 780.10 200.26 C 785.27 189.98 793.90 180.59 805.35 177.58 Z" fill="#2932e1" opacity="1.00"/>
<path d="M 672.43 226.71 C 683.96 224.35 696.26 225.19 707.14 229.81 C 718.05 234.30 727.46 242.03 734.67 251.30 C 738.25 255.83 740.88 261.01 744.24 265.70 C 754.16 280.17 766.72 292.62 780.21 303.76 C 785.74 308.19 790.82 313.17 796.55 317.35 C 809.61 327.15 822.08 338.63 829.30 353.53 C 836.25 367.15 837.53 383.14 834.61 398.01 C 832.23 410.50 826.74 422.59 817.84 431.79 C 805.45 444.51 787.67 451.44 770.01 451.51 C 755.09 451.49 740.22 449.57 725.61 446.68 C 718.70 445.36 711.94 443.38 704.96 442.44 C 688.48 439.91 671.54 440.53 655.29 444.23 C 637.17 448.55 618.63 451.42 599.98 451.51 C 582.08 451.49 564.03 444.41 551.59 431.41 C 539.84 419.02 534.25 401.84 533.74 385.00 C 533.30 372.92 536.22 360.74 542.20 350.22 C 547.67 340.44 555.36 332.05 563.89 324.85 C 570.51 319.11 577.84 314.26 584.22 308.24 C 597.91 297.06 611.18 285.13 621.78 270.90 C 625.43 266.13 628.63 261.04 631.83 255.96 C 641.13 241.69 655.63 230.40 672.43 226.71 M 646.50 285.75 C 646.48 298.92 646.51 312.08 646.49 325.25 C 639.33 325.25 632.17 325.26 625.01 325.23 C 614.34 325.09 603.45 328.37 595.16 335.21 C 586.19 342.46 580.48 353.39 579.30 364.83 C 578.05 377.12 580.28 390.23 587.57 400.43 C 593.36 408.66 602.46 414.24 612.18 416.56 C 622.93 419.29 634.10 417.87 645.05 418.30 C 654.11 418.70 663.18 418.22 672.25 418.25 C 672.25 374.08 672.25 329.92 672.25 285.75 C 663.66 285.74 655.08 285.75 646.50 285.75 M 691.50 324.50 C 691.50 347.02 691.49 369.54 691.50 392.06 C 691.62 399.43 694.49 407.03 700.34 411.74 C 706.36 416.69 714.42 418.17 722.02 418.25 C 739.60 418.25 757.17 418.26 774.75 418.25 C 774.76 387.00 774.75 355.75 774.75 324.50 C 766.42 324.49 758.08 324.49 749.75 324.50 C 749.74 347.50 749.75 370.50 749.75 393.49 C 742.16 393.50 734.57 393.50 726.98 393.51 C 724.38 393.37 721.40 393.57 719.34 391.71 C 716.79 389.24 716.28 385.47 716.25 382.09 C 716.25 362.89 716.25 343.70 716.25 324.50 C 708.00 324.49 699.75 324.50 691.50 324.50 Z" fill="#2932e1" opacity="1.00"/>
<path d="M 613.38 353.45 C 616.75 351.09 620.88 349.89 624.99 349.98 C 632.16 350.01 639.33 349.99 646.50 350.00 C 646.50 364.42 646.50 378.83 646.49 393.24 C 638.99 393.22 631.48 393.30 623.98 393.23 C 616.02 393.00 608.71 387.45 606.04 380.01 C 602.40 370.87 605.21 359.21 613.38 353.45 Z" fill="#2932e1" opacity="1.00"/>
</g>
<g id="#e10602ff">
<path d="M 1166.00 245.50 C 1177.33 245.50 1188.66 245.50 1200.00 245.50 C 1199.99 248.83 1199.99 252.16 1200.00 255.50 C 1223.08 255.51 1246.16 255.49 1269.25 255.50 C 1269.25 263.50 1269.25 271.50 1269.25 279.49 C 1216.92 279.51 1164.59 279.49 1112.25 279.50 C 1112.24 309.66 1112.25 339.82 1112.25 369.98 C 1112.09 393.86 1113.42 418.28 1106.80 441.51 C 1096.52 441.50 1086.24 441.47 1075.96 441.53 C 1081.90 428.21 1082.75 413.36 1083.23 398.99 C 1083.28 351.16 1083.22 303.33 1083.26 255.50 C 1110.83 255.51 1138.41 255.48 1165.98 255.51 C 1165.99 252.17 1166.00 248.84 1166.00 245.50 Z" fill="#e10602" opacity="1.00"/>
<path d="M 107.51 442.25 C 107.49 378.42 107.49 314.58 107.51 250.75 C 137.34 250.75 167.18 250.74 197.01 250.76 C 213.18 250.85 229.89 252.89 244.28 260.77 C 258.71 268.24 269.81 282.68 271.32 299.10 C 271.99 310.24 271.39 322.02 265.99 332.04 C 262.50 338.68 256.44 343.66 249.64 346.66 C 261.50 350.41 270.90 360.20 274.89 371.89 C 279.31 384.81 279.57 399.46 274.35 412.19 C 269.61 423.78 259.10 432.14 247.53 436.33 C 231.76 442.34 214.63 442.48 197.99 442.25 C 167.83 442.25 137.67 442.25 107.51 442.25 M 149.75 288.51 C 149.75 301.59 149.75 314.67 149.76 327.75 C 168.88 327.74 188.01 327.77 207.14 327.74 C 213.47 327.47 220.45 325.79 224.52 320.52 C 230.08 312.72 230.17 300.01 222.23 293.70 C 217.37 289.88 211.05 288.48 204.97 288.49 C 186.56 288.52 168.16 288.48 149.75 288.51 M 149.76 365.50 C 149.75 379.17 149.75 392.83 149.76 406.50 C 169.17 406.51 188.58 406.49 207.99 406.51 C 215.80 406.45 224.53 403.68 228.68 396.57 C 233.36 388.40 231.65 376.77 224.01 370.96 C 218.10 366.28 210.28 365.46 203.00 365.50 C 185.25 365.51 167.50 365.49 149.76 365.50 Z" fill="#e10602" opacity="1.00"/>
<path d="M 449.50 252.00 C 462.92 252.00 476.34 251.99 489.76 252.01 C 489.74 263.75 489.76 275.50 489.75 287.25 C 476.33 287.25 462.92 287.25 449.50 287.25 C 449.49 275.50 449.50 263.75 449.50 252.00 Z" fill="#e10602" opacity="1.00"/>
<path d="M 871.50 255.75 C 935.08 255.75 998.66 255.75 1062.25 255.75 C 1062.25 265.42 1062.25 275.08 1062.25 284.75 C 1035.85 284.75 1009.45 284.77 983.05 284.74 C 981.00 291.08 978.91 297.42 976.91 303.78 C 1002.36 303.72 1027.80 303.76 1053.25 303.75 C 1053.25 339.16 1053.25 374.58 1053.25 409.99 C 1053.31 416.81 1053.72 424.13 1050.11 430.24 C 1046.04 437.74 1037.31 441.49 1029.05 441.50 C 979.37 441.50 929.69 441.50 880.00 441.50 C 880.00 395.58 880.00 349.67 880.00 303.75 C 899.19 303.74 918.37 303.77 937.56 303.74 C 939.47 297.45 941.65 291.24 943.72 285.00 C 919.64 285.00 895.57 285.00 871.50 285.00 C 871.50 275.25 871.49 265.50 871.50 255.75 M 914.76 331.25 C 914.75 340.00 914.75 348.75 914.76 357.50 C 949.67 357.50 984.58 357.50 1019.50 357.50 C 1019.50 348.75 1019.49 340.01 1019.50 331.26 C 984.59 331.24 949.67 331.25 914.76 331.25 M 914.75 385.00 C 914.75 394.42 914.75 403.83 914.76 413.24 C 947.20 413.26 979.64 413.23 1012.08 413.26 C 1016.14 413.67 1019.63 409.92 1019.48 405.96 C 1019.55 398.97 1019.47 391.99 1019.50 385.00 C 984.58 385.00 949.67 385.00 914.75 385.00 Z" fill="#e10602" opacity="1.00"/>
<path d="M 1135.50 286.01 C 1145.16 285.99 1154.83 285.99 1164.51 286.01 C 1164.49 288.25 1164.48 290.49 1164.49 292.73 C 1184.08 292.77 1203.66 292.74 1223.25 292.75 C 1223.24 290.50 1223.23 288.25 1223.24 286.01 C 1232.91 285.99 1242.58 286.00 1252.25 286.00 C 1252.24 288.25 1252.24 290.50 1252.25 292.75 C 1257.91 292.75 1263.58 292.74 1269.25 292.75 C 1269.25 300.67 1269.25 308.58 1269.25 316.49 C 1263.58 316.51 1257.91 316.49 1252.25 316.50 C 1252.24 324.36 1252.25 332.22 1252.26 340.08 C 1252.39 345.49 1248.93 350.79 1243.86 352.76 C 1240.74 354.09 1237.28 353.71 1233.99 353.76 C 1201.15 353.73 1168.32 353.77 1135.50 353.74 C 1135.50 341.33 1135.50 328.91 1135.49 316.50 C 1129.91 316.49 1124.33 316.51 1118.75 316.49 C 1118.75 308.58 1118.74 300.67 1118.75 292.75 C 1124.33 292.74 1129.92 292.76 1135.50 292.74 C 1135.48 290.49 1135.49 288.25 1135.50 286.01 M 1164.50 316.50 C 1164.49 320.91 1164.50 325.32 1164.49 329.73 C 1182.89 329.69 1201.31 329.90 1219.70 329.63 C 1225.20 327.73 1222.71 320.83 1223.24 316.50 C 1203.66 316.50 1184.08 316.50 1164.50 316.50 Z" fill="#e10602" opacity="1.00"/>
<path d="M 298.25 302.25 C 327.18 302.24 356.11 302.25 385.04 302.25 C 396.63 302.43 408.67 305.52 417.58 313.25 C 425.36 319.80 430.09 329.79 430.25 339.97 C 430.25 373.56 430.25 407.15 430.25 440.75 C 400.83 440.76 371.42 440.75 342.01 440.75 C 332.63 440.61 323.04 441.49 313.92 438.78 C 305.06 436.38 297.12 430.45 292.79 422.30 C 287.91 413.07 286.84 402.24 287.91 391.98 C 288.95 381.94 293.34 371.87 301.39 365.53 C 308.86 359.53 318.59 357.07 328.02 356.99 C 349.18 357.01 370.34 357.00 391.50 357.00 C 391.24 351.36 392.38 345.35 389.93 340.05 C 387.37 334.40 380.93 331.61 375.01 331.51 C 349.42 331.48 323.83 331.52 298.25 331.49 C 298.25 321.75 298.25 312.00 298.25 302.25 M 330.31 387.32 C 324.28 392.67 323.86 402.89 328.89 409.04 C 331.30 411.99 335.18 413.35 338.92 413.25 C 356.45 413.25 373.97 413.25 391.49 413.25 C 391.51 403.50 391.49 393.75 391.50 384.01 C 374.32 383.98 357.13 384.02 339.95 383.98 C 336.46 383.82 332.93 384.98 330.31 387.32 Z" fill="#e10602" opacity="1.00"/>
<path d="M 449.50 302.50 C 462.91 302.49 476.32 302.51 489.74 302.49 C 489.77 348.41 489.74 394.33 489.75 440.25 C 476.33 440.25 462.92 440.25 449.50 440.25 C 449.50 394.33 449.50 348.42 449.50 302.50 Z" fill="#e10602" opacity="1.00"/>
<path d="M 1123.75 363.51 C 1170.00 363.49 1216.25 363.50 1262.50 363.51 C 1262.51 372.27 1262.47 381.03 1262.52 389.80 C 1248.83 397.59 1235.01 405.17 1221.18 412.71 C 1226.98 414.76 1232.82 417.06 1238.99 417.71 C 1249.07 417.82 1259.16 417.71 1269.25 417.75 C 1269.25 425.67 1269.25 433.58 1269.25 441.50 C 1261.16 441.50 1253.08 441.50 1245.00 441.50 C 1239.40 441.44 1233.70 441.91 1228.23 440.45 C 1215.97 437.41 1204.44 432.11 1192.99 426.91 C 1180.07 432.80 1167.00 439.10 1152.86 441.32 C 1140.92 441.74 1128.95 441.38 1117.00 441.50 C 1117.00 433.58 1116.99 425.67 1117.00 417.75 C 1125.99 417.76 1134.98 417.73 1143.97 417.77 C 1151.29 418.02 1158.20 415.04 1164.98 412.66 C 1151.11 405.28 1137.40 397.62 1123.73 389.87 C 1123.77 381.08 1123.74 372.30 1123.75 363.51 M 1160.30 385.01 C 1171.09 390.53 1182.08 395.64 1193.17 400.54 C 1204.03 395.42 1215.09 390.69 1225.67 385.00 C 1203.88 385.01 1182.09 384.98 1160.30 385.01 Z" fill="#e10602" opacity="1.00"/>
</g>
<g id="#ffffffff">
</g>
</svg>