<?xml version="1.0" encoding="utf-8"?>
<svg xmlns="http://www.w3.org/2000/svg" height="400pt" version="1.1" viewBox="0 0 1209 400" width="1209pt">
<g id="#000000ff">
<path d="M 120.33 107.35 C 171.86 106.95 223.43 107.33 274.97 107.16 C 277.88 107.15 280.92 107.14 283.63 108.39 C 289.34 110.75 293.20 116.79 293.05 122.96 C 293.09 147.30 293.05 171.63 293.07 195.97 C 293.38 201.96 290.14 208.02 284.75 210.76 C 280.87 212.94 276.29 212.49 272.02 212.51 C 222.07 212.47 172.11 212.54 122.16 212.48 C 114.05 212.48 106.94 205.11 107.18 197.01 C 107.18 172.31 107.19 147.61 107.18 122.91 C 106.87 115.41 112.86 108.27 120.33 107.35 M 152.50 134.72 C 138.74 136.99 128.45 151.10 130.63 164.90 C 132.13 179.29 146.68 190.52 160.99 188.26 C 175.71 186.77 187.04 171.61 184.27 157.06 C 182.32 142.45 166.93 131.60 152.50 134.72 M 237.50 134.76 C 224.51 137.03 214.55 149.84 215.64 163.00 C 216.13 175.95 227.17 187.37 240.08 188.35 C 253.28 189.94 266.52 180.29 269.16 167.30 C 271.40 157.70 267.85 147.06 260.29 140.75 C 254.14 135.40 245.48 133.16 237.50 134.76 Z" fill="#000000" opacity="1.00"/>
<path d="M 357.33 115.95 C 357.08 111.65 360.56 107.41 364.95 107.26 C 370.28 107.04 375.62 107.28 380.96 107.16 C 383.51 107.22 386.34 106.92 388.56 108.45 C 391.14 110.03 392.59 113.04 392.44 116.04 C 392.45 137.78 392.42 159.51 392.45 181.25 C 420.97 181.24 449.48 181.25 478.00 181.24 C 478.02 159.46 477.96 137.67 478.02 115.88 C 477.77 111.49 481.45 107.25 485.92 107.23 C 490.94 107.06 495.97 107.28 500.99 107.16 C 503.65 107.25 506.56 106.82 508.95 108.27 C 511.63 109.80 513.29 112.82 513.12 115.91 C 513.14 171.27 513.10 226.63 513.14 281.99 C 513.57 286.27 510.43 290.66 506.05 291.11 C 500.72 291.49 495.37 291.12 490.03 291.28 C 487.13 291.21 483.84 291.57 481.43 289.62 C 479.07 287.89 477.86 284.98 478.01 282.10 C 477.98 259.44 478.01 236.78 477.99 214.12 C 449.48 214.12 420.97 214.14 392.46 214.11 C 392.39 237.10 392.50 260.09 392.41 283.08 C 392.50 287.52 388.42 291.38 384.01 291.22 C 377.67 291.26 371.31 291.36 364.97 291.17 C 360.42 290.98 356.95 286.55 357.31 282.12 C 357.32 226.73 357.29 171.34 357.33 115.95 Z" fill="#000000" opacity="1.00"/>
<path d="M 549.37 107.58 C 554.83 106.49 560.73 107.55 565.37 110.66 C 571.43 114.61 575.27 121.77 575.02 129.03 C 574.96 136.92 570.03 144.50 562.89 147.83 C 555.97 151.24 547.24 150.45 541.06 145.85 C 534.85 141.42 531.39 133.50 532.40 125.93 C 533.38 117.02 540.57 109.26 549.37 107.58 Z" fill="#000000" opacity="1.00"/>
<path d="M 600.38 107.45 C 605.56 106.81 610.81 107.38 616.02 107.17 C 619.20 107.28 622.77 106.65 625.55 108.59 C 628.01 110.16 629.37 113.08 629.24 115.98 C 629.26 171.33 629.24 226.69 629.25 282.04 C 629.41 284.99 628.21 288.02 625.71 289.70 C 622.91 291.76 619.24 291.17 616.00 291.27 C 610.99 291.11 605.97 291.52 600.99 291.07 C 596.75 290.49 593.76 286.24 594.12 282.07 C 594.13 226.68 594.11 171.29 594.13 115.91 C 593.94 112.08 596.63 108.33 600.38 107.45 Z" fill="#000000" opacity="1.00"/>
<path d="M 659.33 107.30 C 665.22 106.99 671.14 107.30 677.05 107.16 C 679.94 107.01 683.15 107.52 685.12 109.87 C 687.98 112.85 687.24 117.24 687.33 120.99 C 687.29 174.66 687.32 228.33 687.32 282.00 C 687.77 286.70 683.88 291.32 679.07 291.21 C 672.71 291.27 666.35 291.34 660.00 291.17 C 655.40 291.09 651.77 286.63 652.18 282.14 C 652.20 226.75 652.17 171.36 652.19 115.97 C 651.90 111.80 655.13 107.74 659.33 107.30 Z" fill="#000000" opacity="1.00"/>
<path d="M 717.27 107.31 C 723.53 107.00 729.81 107.27 736.08 107.17 C 738.93 106.99 741.87 108.07 743.61 110.41 C 746.02 113.41 745.26 117.49 745.39 121.05 C 745.40 155.65 745.31 190.25 745.44 224.85 C 745.29 235.34 750.22 246.00 759.15 251.77 C 767.53 257.55 778.25 257.33 787.96 256.43 C 801.61 254.93 812.79 242.77 813.75 229.17 C 814.37 219.24 814.92 208.40 809.50 199.57 C 804.82 191.64 796.23 186.15 787.04 185.39 C 782.36 184.85 777.66 185.18 772.97 185.24 C 767.99 185.37 762.99 181.23 762.99 176.08 C 762.87 170.70 762.88 165.30 762.99 159.92 C 763.03 155.05 767.05 150.49 771.99 150.21 C 784.94 149.35 798.41 150.16 810.40 155.60 C 826.43 162.63 839.23 176.52 845.08 193.01 C 849.44 204.80 849.64 217.62 848.94 230.02 C 848.15 244.07 842.77 257.84 833.71 268.63 C 823.28 281.26 807.84 289.60 791.55 291.41 C 776.01 292.92 759.53 292.11 745.53 284.50 C 729.22 276.07 717.00 260.38 712.52 242.61 C 710.68 235.55 710.23 228.22 710.24 220.95 C 710.26 185.95 710.24 150.95 710.25 115.95 C 709.99 111.85 713.12 107.77 717.27 107.31 Z" fill="#000000" opacity="1.00"/>
<path d="M 1028.06 127.89 C 1028.17 123.77 1031.89 120.25 1035.99 120.19 C 1042.36 120.07 1048.74 120.06 1055.12 120.19 C 1059.19 120.25 1062.94 123.79 1063.04 127.90 C 1063.28 133.44 1063.05 138.99 1063.11 144.54 C 1072.08 144.64 1081.04 144.45 1090.01 144.62 C 1094.45 144.55 1098.41 148.54 1098.22 153.00 C 1098.28 160.69 1098.29 168.38 1098.22 176.07 C 1098.32 180.44 1094.39 184.38 1090.02 184.27 C 1081.04 184.41 1072.07 184.24 1063.10 184.33 C 1063.17 202.23 1063.08 220.13 1063.15 238.03 C 1063.05 245.83 1069.22 253.02 1076.88 254.29 C 1081.21 254.87 1085.61 254.45 1089.98 254.53 C 1093.10 254.45 1096.67 254.59 1098.91 257.11 C 1101.64 259.65 1101.35 263.63 1101.34 267.03 C 1101.20 272.04 1101.49 277.06 1101.22 282.07 C 1101.04 286.24 1097.18 289.76 1093.04 289.67 C 1083.21 289.63 1073.09 290.50 1063.66 287.12 C 1043.58 280.76 1028.61 261.13 1028.05 240.03 C 1027.92 221.46 1028.04 202.88 1027.99 184.30 C 1024.29 184.27 1020.58 184.49 1016.89 184.19 C 1012.83 183.83 1009.62 180.00 1009.67 175.98 C 1009.57 168.32 1009.58 160.65 1009.67 152.99 C 1009.58 148.93 1012.84 145.06 1016.93 144.70 C 1020.60 144.38 1024.30 144.61 1027.99 144.57 C 1028.08 139.01 1027.85 133.45 1028.06 127.89 Z" fill="#000000" opacity="1.00"/>
<path d="M 919.46 150.68 C 935.36 148.97 952.28 149.61 966.69 157.28 C 981.75 165.04 993.45 178.99 998.58 195.13 C 1002.16 206.04 1002.31 217.69 1001.77 229.05 C 1001.15 242.96 996.12 256.65 987.39 267.52 C 976.48 281.35 959.67 290.31 942.10 291.62 C 929.79 292.49 917.03 292.21 905.38 287.68 C 890.63 282.17 878.17 270.99 870.87 257.07 C 863.01 242.74 862.16 225.86 863.47 209.90 C 864.76 194.73 871.46 180.07 882.20 169.27 C 892.10 159.16 905.43 152.49 919.46 150.68 M 922.42 185.79 C 910.83 187.90 901.30 197.66 899.05 209.17 C 897.85 215.76 897.96 222.54 898.50 229.20 C 899.42 239.27 905.59 248.74 914.63 253.38 C 922.19 257.42 931.09 257.11 939.40 256.59 C 949.51 255.83 958.87 249.37 963.34 240.29 C 967.64 231.85 967.06 222.02 966.53 212.84 C 965.71 201.40 957.89 190.74 947.00 186.97 C 939.11 184.40 930.54 184.76 922.42 185.79 Z" fill="#000000" opacity="1.00"/>
<path d="M 542.32 159.38 C 547.52 158.75 552.79 159.31 558.03 159.11 C 561.18 159.23 564.73 158.57 567.49 160.51 C 569.93 162.09 571.29 165.00 571.18 167.89 C 571.20 205.96 571.18 244.03 571.19 282.09 C 571.65 286.73 567.79 291.25 563.07 291.20 C 556.70 291.29 550.32 291.32 543.95 291.19 C 539.30 291.12 535.65 286.62 536.06 282.08 C 536.07 244.03 536.05 205.97 536.07 167.92 C 535.86 164.07 538.52 160.27 542.32 159.38 Z" fill="#000000" opacity="1.00"/>
<path d="M 190.39 228.63 C 200.16 226.19 210.82 227.46 219.70 232.26 C 240.50 243.45 261.25 254.74 282.06 265.93 C 285.40 267.69 289.06 269.51 290.91 273.01 C 294.53 279.27 291.88 288.18 285.40 291.41 C 281.90 293.28 277.82 292.76 274.01 292.82 C 222.64 292.77 171.26 292.86 119.90 292.78 C 113.12 292.84 107.39 286.70 107.25 280.06 C 106.87 274.89 109.97 269.88 114.59 267.64 C 134.61 256.97 154.62 246.30 174.64 235.63 C 179.71 232.92 184.74 229.95 190.39 228.63 Z" fill="#000000" opacity="1.00"/>
</g>
</svg>