<?xml version="1.0" encoding="utf-8"?>
<svg xmlns="http://www.w3.org/2000/svg" height="1191pt" version="1.1" viewBox="0 0 1191 1191" width="1191pt">
<g id="#004889ff">
<path d="M 445.32 313.57 C 495.29 284.71 545.27 255.85 595.26 227.00 C 645.23 255.84 695.18 284.71 745.15 313.56 C 695.20 342.43 645.23 371.27 595.25 400.09 C 545.27 371.26 495.29 342.42 445.32 313.57 Z" fill="#004889" opacity="1.00"/>
<path d="M 617.05 412.71 C 667.03 383.85 717.01 354.99 766.99 326.15 C 813.32 352.89 859.66 379.63 905.98 406.40 C 856.01 435.25 806.05 464.11 756.08 492.96 C 709.73 466.22 663.39 439.47 617.05 412.71 Z" fill="#004889" opacity="1.00"/>
<path d="M 284.50 406.39 C 330.86 379.64 377.19 352.85 423.56 326.14 C 473.51 355.03 523.51 383.84 573.46 412.71 C 527.12 439.47 480.78 466.23 434.42 492.96 C 384.46 464.09 334.46 435.27 284.50 406.39 Z" fill="#004889" opacity="1.00"/>
<path d="M 273.61 425.29 C 323.59 454.12 373.55 482.98 423.52 511.82 C 423.55 565.32 423.54 618.82 423.53 672.32 C 373.55 643.50 323.58 614.66 273.61 585.81 C 273.61 532.30 273.60 478.79 273.61 425.29 Z" fill="#004889" opacity="1.00"/>
<path d="M 456.23 505.53 C 502.58 478.78 548.91 452.03 595.26 425.29 C 641.60 452.03 687.95 478.77 734.28 505.54 C 687.94 532.29 641.60 559.04 595.26 585.78 C 548.91 559.03 502.56 532.30 456.23 505.53 M 489.16 505.54 C 524.53 525.95 559.89 546.37 595.26 566.77 C 630.62 546.36 666.00 525.97 701.35 505.53 C 665.99 485.11 630.62 464.70 595.26 444.30 C 559.89 464.71 524.51 485.11 489.16 505.54 Z" fill="#004889" opacity="1.00"/>
<path d="M 766.97 511.85 C 816.91 482.97 866.89 454.15 916.84 425.28 C 916.88 478.79 916.85 532.30 916.86 585.81 C 866.91 614.67 816.94 643.51 766.97 672.33 C 766.95 618.84 766.97 565.35 766.97 511.85 Z" fill="#004889" opacity="1.00"/>
<path d="M 445.32 684.92 C 445.33 631.42 445.30 577.92 445.33 524.41 C 491.67 551.17 538.03 577.90 584.36 604.67 C 584.35 658.18 584.37 711.68 584.35 765.19 C 538.00 738.44 491.64 711.71 445.32 684.92 M 461.79 552.94 C 461.77 593.76 461.80 634.59 461.78 675.41 C 497.13 695.88 532.54 716.26 567.92 736.69 C 567.93 695.86 567.93 655.02 567.92 614.19 C 532.55 593.77 497.18 573.34 461.79 552.94 Z" fill="#004889" opacity="1.00"/>
<path d="M 606.15 604.60 C 652.51 577.93 698.80 551.13 745.14 524.42 C 745.15 577.93 745.14 631.44 745.14 684.95 C 698.80 711.71 652.47 738.46 606.11 765.19 C 606.13 711.66 606.05 658.13 606.15 604.60 M 622.57 614.18 C 622.57 655.01 622.56 695.84 622.58 736.67 C 657.95 716.29 693.29 695.86 728.66 675.47 C 728.70 634.63 728.67 593.79 728.68 552.95 C 693.30 573.33 657.94 593.76 622.57 614.18 Z" fill="#004889" opacity="1.00"/>
<path d="M 766.96 697.56 C 816.90 668.66 866.88 639.83 916.85 610.98 C 916.86 668.69 916.86 726.39 916.86 784.10 C 866.90 812.97 816.94 841.82 766.97 870.66 C 766.95 812.96 766.98 755.26 766.96 697.56 Z" fill="#004889" opacity="1.00"/>
<path d="M 273.61 610.97 C 323.59 639.80 373.56 668.67 423.53 697.52 C 423.55 755.23 423.54 812.94 423.53 870.65 C 373.55 841.81 323.58 812.96 273.61 784.09 C 273.60 726.39 273.61 668.68 273.61 610.97 Z" fill="#004889" opacity="1.00"/>
<path d="M 445.34 883.26 C 445.30 825.54 445.33 767.82 445.33 710.10 C 491.67 736.84 538.00 763.59 584.34 790.33 C 584.37 848.05 584.36 905.76 584.35 963.48 C 538.01 936.75 491.69 909.98 445.34 883.26 Z" fill="#004889" opacity="1.00"/>
<path d="M 606.15 790.34 C 652.48 763.60 698.80 736.84 745.14 710.11 C 745.15 767.81 745.14 825.52 745.14 883.22 C 698.83 910.00 652.48 936.74 606.15 963.48 C 606.14 905.77 606.13 848.06 606.15 790.34 Z" fill="#004889" opacity="1.00"/>
</g>
</svg>