<?xml version="1.0" encoding="utf-8"?>
<svg xmlns="http://www.w3.org/2000/svg" height="432pt" version="1.1" viewBox="0 0 2000 432" width="2000pt">
<g id="#000000ff">
<path d="M 0.00 0.00 L 432.00 0.00 C 432.00 144.00 432.00 288.00 432.00 432.00 L 0.00 432.00 L 0.00 0.00 M 38.12 38.01 C 38.13 156.63 38.11 275.25 38.13 393.86 C 156.71 393.88 275.29 393.88 393.87 393.86 C 393.89 275.25 393.87 156.63 393.88 38.01 C 275.29 38.00 156.71 38.00 38.12 38.01 Z" fill="#000000" opacity="1.00"/>
<path d="M 1720.73 64.39 C 1742.32 64.37 1763.91 64.37 1785.50 64.38 C 1785.51 162.58 1785.49 260.78 1785.51 358.99 C 1766.89 359.00 1748.28 359.02 1729.67 358.98 C 1728.61 348.62 1727.98 338.20 1726.41 327.92 C 1718.85 340.59 1707.63 351.18 1693.96 356.97 C 1672.98 366.03 1648.21 366.00 1627.30 356.73 C 1611.03 349.56 1597.51 336.86 1588.36 321.72 C 1578.24 304.95 1573.11 285.51 1572.00 266.05 C 1570.72 243.44 1573.70 220.17 1583.51 199.58 C 1590.49 184.55 1601.36 171.28 1615.01 161.83 C 1631.77 150.11 1652.74 144.92 1673.07 146.67 C 1691.01 148.00 1710.16 154.74 1720.54 170.32 C 1721.02 135.02 1720.63 99.70 1720.73 64.39 M 1676.16 196.19 C 1667.35 197.20 1658.99 201.42 1652.94 207.91 C 1644.08 217.07 1639.79 229.72 1638.11 242.14 C 1636.26 257.55 1637.23 273.86 1644.00 288.05 C 1648.18 296.95 1655.17 304.78 1664.30 308.76 C 1674.79 313.38 1687.33 313.60 1697.82 308.82 C 1705.87 305.02 1712.49 298.29 1716.13 290.15 C 1720.10 281.35 1721.04 271.52 1720.75 261.96 C 1720.49 250.64 1721.41 239.24 1719.90 227.98 C 1717.51 215.97 1709.65 204.87 1698.49 199.55 C 1691.62 196.11 1683.71 195.25 1676.16 196.19 Z" fill="#000000" opacity="1.00"/>
<path d="M 1335.00 64.50 C 1356.25 64.49 1377.49 64.51 1398.73 64.49 C 1398.85 101.78 1398.57 139.06 1398.87 176.34 C 1403.45 170.53 1408.31 164.80 1414.41 160.50 C 1429.18 149.67 1448.03 145.63 1466.11 146.48 C 1482.75 147.20 1499.20 153.29 1511.99 164.02 C 1526.63 175.99 1536.35 193.13 1541.55 211.14 C 1547.21 230.85 1547.87 251.75 1545.47 272.04 C 1542.76 293.14 1535.25 314.04 1521.58 330.57 C 1511.45 342.93 1498.05 352.68 1482.99 358.07 C 1466.01 364.26 1447.03 365.26 1429.61 360.32 C 1418.29 357.09 1407.84 350.78 1399.93 342.04 C 1396.10 338.28 1393.48 333.56 1390.14 329.42 C 1389.05 339.21 1388.40 349.05 1387.46 358.87 C 1369.97 358.89 1352.49 358.87 1335.01 358.87 C 1334.99 260.75 1335.00 162.63 1335.00 64.50 M 1432.33 196.46 C 1422.51 197.98 1413.54 203.71 1407.65 211.65 C 1401.66 219.41 1398.82 229.30 1398.87 239.03 C 1398.88 250.03 1398.85 261.02 1398.89 272.02 C 1398.90 285.12 1405.29 298.27 1416.16 305.74 C 1432.26 317.16 1457.01 313.77 1469.15 298.08 C 1480.17 284.10 1482.18 265.35 1481.51 248.13 C 1480.62 232.27 1475.97 215.15 1463.22 204.68 C 1454.72 197.66 1443.14 195.05 1432.33 196.46 Z" fill="#000000" opacity="1.00"/>
<path d="M 568.38 72.39 C 590.09 72.37 611.79 72.37 633.50 72.38 C 633.51 149.75 633.49 227.12 633.51 304.49 C 671.54 304.51 709.58 304.49 747.62 304.50 C 747.63 322.66 747.61 340.83 747.63 358.99 C 687.87 359.01 628.12 359.01 568.37 358.99 C 568.39 263.45 568.35 167.92 568.38 72.39 Z" fill="#000000" opacity="1.00"/>
<path d="M 112.16 75.23 C 130.42 75.26 148.69 75.28 166.96 75.22 C 220.53 169.94 273.93 264.76 327.46 359.51 C 309.16 359.49 290.87 359.51 272.58 359.51 C 252.80 324.80 233.01 290.11 213.24 255.40 C 194.57 290.08 176.08 324.84 157.42 359.52 C 139.48 359.47 121.54 359.53 103.60 359.49 C 131.61 308.72 159.37 257.81 187.28 206.99 C 162.30 163.03 137.15 119.18 112.16 75.23 Z" fill="#000000" opacity="1.00"/>
<path d="M 845.18 147.59 C 867.26 145.46 890.28 145.61 911.25 153.65 C 926.65 159.41 940.06 170.56 947.97 185.03 C 956.03 199.64 959.06 216.51 959.37 233.05 C 959.38 275.07 959.38 317.10 959.37 359.12 C 940.79 359.13 922.21 359.12 903.64 359.13 C 902.17 352.04 901.19 344.85 899.54 337.80 C 896.68 339.84 894.64 342.76 892.00 345.06 C 879.14 356.77 861.81 362.61 844.64 363.59 C 829.18 364.59 813.06 361.66 799.94 353.13 C 785.17 343.96 774.84 328.17 772.05 311.04 C 769.36 295.00 772.12 277.42 782.19 264.30 C 791.43 251.97 805.58 244.43 819.93 239.61 C 843.71 231.94 868.91 230.26 893.75 230.13 C 893.43 222.06 894.98 213.42 891.14 205.93 C 887.34 198.26 879.14 193.94 871.06 192.25 C 857.74 189.46 843.89 190.78 830.71 193.68 C 822.52 195.58 814.45 198.13 806.86 201.76 C 799.89 189.44 792.98 177.09 786.07 164.74 C 804.29 154.93 824.73 149.92 845.18 147.59 M 852.91 271.87 C 845.15 273.90 837.20 277.98 833.42 285.41 C 830.32 292.24 829.68 300.78 833.65 307.40 C 836.45 312.30 841.79 315.09 847.06 316.56 C 856.32 318.87 866.47 319.15 875.35 315.24 C 886.14 310.48 895.04 300.08 895.72 287.99 C 896.06 281.41 895.78 274.82 895.88 268.23 C 881.52 268.38 866.92 268.29 852.91 271.87 Z" fill="#000000" opacity="1.00"/>
<path d="M 1059.53 162.72 C 1075.28 149.43 1096.88 144.65 1117.07 147.00 C 1130.93 148.63 1144.45 154.73 1154.03 165.01 C 1158.88 169.91 1162.19 176.02 1165.12 182.20 C 1176.68 166.57 1192.62 153.25 1211.87 148.69 C 1228.44 144.92 1246.54 145.56 1262.08 152.89 C 1277.39 159.88 1288.63 173.90 1294.48 189.44 C 1301.70 207.70 1302.61 227.61 1302.25 247.01 C 1302.25 284.38 1302.25 321.75 1302.25 359.13 C 1281.25 359.10 1260.25 359.17 1239.26 359.10 C 1239.22 320.43 1239.31 281.75 1239.21 243.08 C 1238.80 230.37 1237.09 216.50 1228.44 206.52 C 1219.02 196.29 1201.93 196.01 1191.04 204.04 C 1180.93 211.18 1176.32 223.88 1176.28 235.92 C 1176.21 276.99 1176.27 318.06 1176.25 359.13 C 1155.25 359.10 1134.25 359.17 1113.26 359.10 C 1113.12 318.41 1113.50 277.72 1113.06 237.04 C 1112.48 226.18 1110.13 214.65 1102.73 206.26 C 1095.09 197.84 1081.99 196.41 1071.83 200.66 C 1062.54 204.64 1056.11 213.34 1052.84 222.68 C 1050.73 228.53 1050.59 234.85 1050.62 241.00 C 1050.63 280.37 1050.62 319.73 1050.62 359.10 C 1029.62 359.16 1008.63 359.11 987.63 359.12 C 987.63 289.79 987.61 220.46 987.64 151.13 C 1005.25 151.12 1022.86 151.12 1040.47 151.14 C 1041.58 160.71 1042.17 170.37 1043.78 179.87 C 1048.73 173.90 1053.40 167.59 1059.53 162.72 Z" fill="#000000" opacity="1.00"/>
<path d="M 1888.55 147.33 C 1908.35 145.60 1928.78 145.93 1947.83 152.19 C 1962.13 156.89 1975.30 165.65 1984.07 178.02 C 1995.45 193.74 1999.49 213.50 2000.00 232.59 L 2000.00 359.13 C 1981.40 359.10 1962.79 359.17 1944.20 359.09 C 1942.81 351.94 1941.69 344.74 1940.15 337.62 C 1936.86 340.51 1934.14 343.98 1930.71 346.70 C 1919.25 356.24 1904.72 361.65 1889.97 363.17 C 1873.79 365.05 1856.75 362.71 1842.56 354.39 C 1827.19 345.50 1816.10 329.74 1812.84 312.29 C 1809.71 295.31 1812.68 276.44 1823.87 262.87 C 1834.32 250.07 1849.80 242.63 1865.39 238.13 C 1887.76 231.69 1911.20 230.30 1934.36 230.10 C 1934.11 221.47 1935.68 211.98 1930.79 204.29 C 1925.18 195.21 1913.98 191.94 1903.95 191.06 C 1884.60 189.60 1865.02 193.78 1847.40 201.73 C 1840.49 189.37 1833.55 177.05 1826.63 164.70 C 1845.72 154.55 1867.13 149.40 1888.55 147.33 M 1898.49 270.74 C 1891.33 272.19 1884.01 274.52 1878.51 279.52 C 1872.48 285.16 1870.55 294.18 1872.17 302.08 C 1873.41 308.14 1878.19 313.04 1883.88 315.22 C 1891.19 318.10 1899.31 318.81 1907.07 317.79 C 1919.56 315.99 1930.87 307.02 1935.07 295.07 C 1937.61 286.36 1936.08 277.19 1936.50 268.27 C 1923.80 268.30 1911.00 268.37 1898.49 270.74 Z" fill="#000000" opacity="1.00"/>
</g>
</svg>