<?xml version="1.0" encoding="utf-8"?>
<svg xmlns="http://www.w3.org/2000/svg" height="508pt" version="1.1" viewBox="0 0 2048 508" width="2048pt">
<g id="#000000ff">
<path d="M 201.58 195.52 C 250.79 195.47 300.00 195.50 349.21 195.51 C 346.54 206.82 337.12 216.24 325.88 219.05 C 312.94 219.80 299.89 218.57 286.97 219.67 C 287.03 250.53 286.99 281.39 287.00 312.25 C 279.25 312.25 271.50 312.25 263.75 312.25 C 263.73 281.81 263.79 251.38 263.73 220.94 C 263.97 218.85 261.33 219.42 260.07 219.23 C 250.37 219.28 240.66 219.22 230.96 219.28 C 216.91 220.33 205.08 208.37 201.58 195.52 Z" fill="#000000" opacity="1.00"/>
<path d="M 1711.58 195.53 C 1756.49 195.47 1801.41 195.50 1846.33 195.51 C 1843.65 205.61 1836.19 214.58 1826.26 218.15 C 1822.33 219.70 1818.06 219.22 1813.96 219.25 C 1789.66 219.27 1765.36 219.21 1741.06 219.28 C 1726.98 220.34 1715.03 208.44 1711.58 195.53 Z" fill="#000000" opacity="1.00"/>
<path d="M 583.95 195.53 C 628.86 195.48 673.77 195.48 718.68 195.53 C 715.52 206.87 706.20 217.45 694.10 218.98 C 667.39 219.04 640.68 218.97 613.97 219.01 C 610.61 219.00 607.11 219.33 603.92 218.03 C 594.11 214.36 586.70 205.54 583.95 195.53 Z" fill="#000000" opacity="1.00"/>
<path d="M 963.50 195.50 C 1006.16 195.52 1048.82 195.46 1091.48 195.53 C 1088.66 206.08 1079.64 213.91 1069.75 217.79 C 1066.66 219.14 1063.23 218.74 1059.97 218.76 C 1035.39 218.74 1010.82 218.75 986.25 218.75 C 986.25 226.34 986.24 233.92 986.26 241.50 C 1021.09 241.50 1055.92 241.48 1090.75 241.51 C 1090.74 265.17 1090.76 288.84 1090.74 312.50 C 1046.06 312.49 1001.38 312.53 956.70 312.48 C 962.55 300.61 974.03 291.44 987.01 288.80 C 1014.00 288.68 1041.00 288.78 1067.99 288.75 C 1068.00 280.75 1068.00 272.75 1068.00 264.75 C 1033.16 264.75 998.33 264.75 963.50 264.75 C 963.49 241.67 963.50 218.58 963.50 195.50 Z" fill="#000000" opacity="1.00"/>
<path d="M 1355.25 195.75 C 1362.91 195.75 1370.58 195.75 1378.25 195.75 C 1378.26 226.92 1378.24 258.08 1378.25 289.25 C 1412.13 289.26 1446.01 289.25 1479.89 289.25 C 1477.99 297.07 1473.42 304.23 1466.73 308.78 C 1464.04 310.46 1461.27 312.56 1457.97 312.52 C 1423.73 312.48 1389.49 312.52 1355.25 312.50 C 1355.26 273.58 1355.25 234.67 1355.25 195.75 Z" fill="#000000" opacity="1.00"/>
<path d="M 583.88 241.51 C 628.81 241.50 673.74 241.47 718.67 241.52 C 715.68 253.05 706.10 263.50 694.01 265.20 C 667.02 265.34 640.02 265.18 613.03 265.28 C 599.03 266.24 587.34 254.29 583.88 241.51 Z" fill="#000000" opacity="1.00"/>
<path d="M 1715.25 241.75 C 1757.83 241.74 1800.41 241.75 1843.00 241.75 C 1843.00 265.33 1843.00 288.92 1843.00 312.50 C 1835.41 312.50 1827.83 312.50 1820.25 312.50 C 1820.25 296.83 1820.25 281.17 1820.25 265.51 C 1792.91 265.50 1765.58 265.50 1738.25 265.51 C 1738.25 281.17 1738.25 296.83 1738.25 312.50 C 1730.58 312.51 1722.92 312.49 1715.27 312.51 C 1715.23 288.92 1715.26 265.34 1715.25 241.75 Z" fill="#000000" opacity="1.00"/>
<path d="M 583.94 289.04 C 628.85 288.96 673.75 289.00 718.66 289.02 C 715.52 300.43 706.10 310.96 693.97 312.47 C 665.34 312.51 636.69 312.56 608.05 312.45 C 596.22 310.55 587.11 300.24 583.94 289.04 Z" fill="#000000" opacity="1.00"/>
</g>
</svg>