<?xml version="1.0" encoding="utf-8"?>
<svg xmlns="http://www.w3.org/2000/svg" height="1112pt" version="1.1" viewBox="0 0 1366 1112" width="1366pt">
<g id="#ffffffff">
</g>
<g id="#5c49f3ff">
<path d="M 194.00 426.76 C 360.67 341.82 527.35 256.88 694.03 171.96 C 694.05 256.89 694.03 341.82 694.04 426.75 C 527.38 511.74 360.68 596.64 194.01 681.58 C 193.99 596.64 194.00 511.70 194.00 426.76 Z" fill="#5c49f3" opacity="1.00"/>
<path d="M 694.02 426.75 C 860.70 341.82 1027.37 256.88 1194.05 171.96 C 1194.07 256.89 1194.06 341.83 1194.05 426.77 C 1027.39 511.73 860.71 596.65 694.03 681.58 C 694.01 596.64 694.02 511.70 694.02 426.75 Z" fill="#5c49f3" opacity="1.00"/>
</g>
<g id="#000000ff">
<path d="M 674.49 754.67 C 681.37 753.69 689.13 754.74 694.40 759.65 C 701.47 766.16 701.06 778.63 693.98 784.98 C 688.91 789.64 681.55 790.82 674.93 789.89 C 669.51 789.19 664.14 786.47 661.18 781.76 C 657.30 775.59 657.42 766.86 662.09 761.14 C 665.13 757.39 669.80 755.35 674.49 754.67 Z" fill="#000000" opacity="1.00"/>
<path d="M 1164.17 759.09 C 1174.13 759.08 1184.09 759.08 1194.06 759.08 C 1194.06 818.39 1194.06 877.69 1194.06 937.00 C 1184.09 937.00 1174.13 937.00 1164.16 936.99 C 1164.16 877.69 1164.16 818.39 1164.17 759.09 Z" fill="#000000" opacity="1.00"/>
<path d="M 582.54 778.23 C 592.51 773.14 602.49 768.06 612.45 762.96 C 612.46 779.61 612.46 796.27 612.46 812.93 C 639.65 812.95 666.85 812.93 694.04 812.94 C 694.04 854.29 694.04 895.64 694.04 937.00 C 684.07 937.00 674.10 937.00 664.12 937.00 C 664.12 903.87 664.13 870.75 664.12 837.63 C 646.90 837.63 629.68 837.62 612.46 837.63 C 612.46 870.75 612.46 903.87 612.46 937.00 C 602.48 937.00 592.51 937.00 582.54 937.00 C 582.54 903.87 582.54 870.75 582.54 837.63 C 570.92 837.62 559.30 837.64 547.69 837.62 C 547.69 829.39 547.68 821.17 547.69 812.94 C 559.31 812.93 570.92 812.95 582.54 812.93 C 582.54 801.36 582.54 789.80 582.54 778.23 Z" fill="#000000" opacity="1.00"/>
<path d="M 193.99 765.02 C 209.42 765.02 224.84 765.02 240.26 765.02 C 253.64 811.25 266.95 857.49 280.35 903.72 C 294.32 857.48 308.32 811.26 322.30 765.02 C 336.93 765.01 351.57 765.02 366.20 765.02 C 373.24 822.35 380.27 879.67 387.31 937.00 C 376.63 937.00 365.95 937.00 355.27 936.99 C 349.74 890.77 344.20 844.54 338.68 798.32 C 324.68 844.54 310.70 890.77 296.72 936.99 C 285.32 937.00 273.92 937.01 262.52 936.99 C 248.55 889.81 234.57 842.64 220.57 795.48 C 214.80 842.65 209.04 889.82 203.27 936.99 C 192.82 937.01 182.38 936.99 171.94 937.00 C 179.28 879.67 186.64 822.35 193.99 765.02 Z" fill="#000000" opacity="1.00"/>
<path d="M 456.44 811.64 C 475.50 808.67 496.16 811.58 512.24 822.74 C 524.87 831.38 533.63 845.17 536.59 860.14 C 539.97 877.10 537.68 895.61 528.33 910.38 C 520.02 923.73 506.09 933.02 490.95 936.83 C 476.35 940.50 460.70 940.28 446.27 935.91 C 432.26 931.67 419.59 922.58 411.88 910.03 C 402.81 895.48 400.55 877.35 403.73 860.68 C 406.39 846.81 413.92 833.84 425.06 825.08 C 434.07 817.89 445.10 813.47 456.44 811.64 M 463.45 836.74 C 454.62 838.02 446.08 842.46 440.70 849.70 C 434.38 857.97 432.41 868.82 433.14 879.03 C 433.74 888.26 437.19 897.61 444.05 904.02 C 450.69 910.34 459.95 913.28 469.00 913.47 C 479.01 913.84 489.54 910.91 496.82 903.76 C 506.95 893.88 509.29 878.41 506.73 864.99 C 505.02 856.05 500.11 847.55 492.46 842.44 C 484.07 836.69 473.35 835.26 463.45 836.74 Z" fill="#000000" opacity="1.00"/>
<path d="M 771.46 811.73 C 790.52 808.64 811.21 811.45 827.38 822.50 C 839.88 830.91 848.70 844.35 851.86 859.04 C 856.38 879.55 852.17 902.75 837.66 918.49 C 824.94 932.59 805.65 939.27 786.96 939.37 C 770.24 939.67 752.96 935.08 739.91 924.30 C 728.98 915.43 721.70 902.47 719.16 888.69 C 715.80 870.68 718.88 850.92 729.98 836.03 C 739.74 822.68 755.29 814.34 771.46 811.73 M 778.57 836.80 C 769.98 838.13 761.71 842.46 756.40 849.45 C 749.96 857.73 747.92 868.64 748.64 878.92 C 749.22 888.03 752.55 897.26 759.22 903.70 C 765.78 910.13 775.03 913.19 784.09 913.46 C 794.11 913.91 804.68 911.09 812.06 904.02 C 822.47 894.11 824.85 878.34 822.19 864.74 C 820.46 856.03 815.69 847.74 808.29 842.66 C 799.75 836.66 788.71 835.20 778.57 836.80 Z" fill="#000000" opacity="1.00"/>
<path d="M 907.43 830.86 C 914.68 818.87 928.38 812.06 942.05 810.82 C 953.57 809.85 965.90 811.57 975.54 818.37 C 983.49 823.90 988.62 832.73 990.89 842.02 C 993.31 851.14 992.81 860.65 992.85 870.01 C 992.86 892.33 992.85 914.66 992.86 937.00 C 982.88 937.00 972.91 937.00 962.94 937.00 C 962.92 911.98 962.96 886.97 962.92 861.96 C 962.79 854.48 960.79 846.40 954.95 841.30 C 948.20 835.47 938.43 834.80 930.03 836.59 C 920.87 838.53 913.24 845.52 910.03 854.24 C 906.42 863.04 907.33 872.70 907.23 881.98 C 907.23 900.32 907.23 918.66 907.23 937.00 C 897.26 937.00 887.29 937.00 877.33 936.99 C 877.34 895.64 877.33 854.29 877.34 812.94 C 886.51 812.93 895.69 812.93 904.86 812.94 C 905.71 818.91 906.61 824.88 907.43 830.86 Z" fill="#000000" opacity="1.00"/>
<path d="M 1036.64 824.64 C 1049.46 813.36 1067.33 810.01 1083.95 810.64 C 1098.01 811.14 1112.77 815.87 1122.09 826.92 C 1130.36 836.54 1133.48 849.53 1133.59 861.97 C 1133.62 886.98 1133.59 911.99 1133.61 936.99 C 1124.90 937.00 1116.20 937.01 1107.49 936.99 C 1106.97 929.91 1106.35 922.84 1105.88 915.76 C 1103.12 921.09 1098.91 925.57 1093.96 928.94 C 1083.79 935.96 1071.39 939.54 1059.05 939.37 C 1048.57 939.36 1037.67 936.37 1029.83 929.15 C 1019.97 920.27 1017.10 905.45 1020.81 893.00 C 1022.83 886.16 1027.42 880.23 1033.29 876.23 C 1041.72 870.39 1051.93 867.81 1061.99 866.56 C 1075.89 865.03 1089.80 863.55 1103.71 862.03 C 1103.99 855.22 1103.31 847.77 1098.68 842.39 C 1093.45 836.10 1084.80 834.10 1076.96 834.31 C 1069.18 834.45 1060.71 836.36 1055.32 842.37 C 1052.10 845.88 1050.88 850.74 1050.99 855.41 C 1041.59 855.41 1032.19 855.42 1022.79 855.41 C 1022.91 843.82 1027.82 832.27 1036.64 824.64 M 1069.93 884.26 C 1064.14 885.04 1058.05 886.50 1053.65 890.57 C 1047.17 896.53 1048.15 908.72 1056.00 913.08 C 1063.07 917.02 1071.80 916.72 1079.41 914.62 C 1094.12 910.44 1105.08 895.48 1103.71 880.08 C 1092.45 881.47 1081.19 882.84 1069.93 884.26 Z" fill="#000000" opacity="1.00"/>
</g>
</svg>