<?xml version="1.0" encoding="utf-8"?>
<svg xmlns="http://www.w3.org/2000/svg" height="928pt" version="1.1" viewBox="0 0 1110 928" width="1110pt">
<g id="#76b900ff">
<path d="M 430.38 151.88 C 557.08 151.87 683.79 151.87 810.50 151.88 C 810.50 285.63 810.51 419.37 810.50 553.12 C 683.79 553.13 557.09 553.13 430.38 553.12 C 430.35 537.46 430.40 521.81 430.36 506.15 C 394.92 502.86 360.22 491.67 329.73 473.28 C 295.21 452.65 266.17 423.65 243.10 390.86 C 227.36 368.34 213.87 344.12 204.11 318.41 C 230.92 293.46 260.71 271.74 292.29 253.24 C 334.58 228.71 381.31 210.06 430.37 205.97 C 430.37 187.94 430.37 169.91 430.38 151.88 M 430.52 206.11 C 430.49 215.84 430.50 225.56 430.51 235.29 C 443.36 234.41 456.33 234.43 469.10 236.29 C 490.28 239.25 510.76 246.40 529.62 256.43 C 558.83 272.17 584.75 294.03 605.38 320.00 C 593.28 336.13 579.67 351.14 564.99 364.96 C 543.72 384.74 519.74 402.60 491.99 412.06 C 472.28 418.86 450.37 419.64 430.50 413.00 C 430.50 422.46 430.50 431.92 430.50 441.39 C 453.05 445.43 476.43 444.31 498.52 438.27 C 533.17 428.97 564.64 410.54 593.21 389.21 C 620.75 368.37 646.10 344.62 668.64 318.45 C 660.40 308.09 651.15 298.58 641.61 289.42 C 615.91 265.13 586.65 244.41 554.55 229.46 C 516.05 211.44 473.00 202.54 430.52 206.11 M 336.06 264.08 C 309.15 279.44 284.75 299.76 266.23 324.69 C 274.58 348.61 286.49 371.25 301.07 391.95 C 313.11 408.94 327.22 424.53 343.48 437.56 C 368.30 457.63 398.62 470.95 430.36 474.80 C 430.38 463.71 430.37 452.61 430.37 441.51 C 400.75 436.42 373.24 421.10 352.83 399.12 C 334.19 379.17 320.27 354.84 312.16 328.79 C 320.30 320.29 329.51 312.87 339.16 306.16 C 366.15 287.45 397.67 275.07 430.39 271.55 C 430.34 259.51 430.39 247.48 430.36 235.45 C 397.33 237.95 364.88 247.75 336.06 264.08 M 430.50 271.68 C 430.51 282.08 430.50 292.48 430.50 302.88 C 444.97 304.51 459.85 309.03 470.33 319.64 C 482.78 332.23 490.74 348.30 499.99 363.20 C 517.15 348.74 534.31 334.28 551.46 319.80 C 535.00 300.23 513.19 285.03 488.94 276.83 C 470.23 270.35 450.05 269.32 430.50 271.68 M 408.59 304.45 C 390.19 309.14 374.05 320.59 361.41 334.53 C 367.03 351.95 375.81 368.40 387.52 382.49 C 398.84 396.07 413.51 407.12 430.37 412.76 C 430.37 376.17 430.37 339.59 430.37 303.00 C 423.10 302.18 415.69 302.67 408.59 304.45 M 594.70 438.70 C 563.49 456.03 529.39 468.51 493.97 473.56 C 472.98 476.47 451.59 477.57 430.50 474.98 C 430.50 485.32 430.50 495.67 430.51 506.02 C 452.93 508.36 475.55 507.14 497.88 504.45 C 521.58 501.59 545.05 497.09 568.25 491.55 C 606.86 482.24 644.84 470.12 681.39 454.54 C 710.79 441.76 739.82 427.11 764.68 406.63 C 756.49 399.71 746.93 394.72 737.69 389.39 C 723.69 381.35 709.08 374.27 695.79 365.03 C 664.21 392.29 631.31 418.45 594.70 438.70 Z" fill="#76b900" opacity="1.00"/>
</g>
<g id="#000000ff">
<path d="M 151.63 624.63 C 179.42 624.71 207.22 624.42 235.01 624.79 C 252.70 625.32 271.88 628.27 285.44 640.67 C 298.50 652.58 302.78 670.97 303.23 688.02 C 303.28 717.30 303.24 746.59 303.25 775.87 C 289.33 775.88 275.42 775.88 261.50 775.87 C 261.49 758.59 261.50 741.31 261.50 724.04 C 261.35 712.03 262.10 699.93 260.07 688.04 C 258.76 679.88 255.53 671.35 248.47 666.49 C 241.40 661.49 232.38 661.02 224.03 661.12 C 214.23 661.14 204.43 661.11 194.63 661.13 C 194.62 699.38 194.63 737.62 194.63 775.87 C 180.29 775.88 165.96 775.88 151.63 775.87 C 151.62 725.46 151.62 675.04 151.63 624.63 Z" fill="#000000" opacity="1.00"/>
<path d="M 309.63 624.88 C 325.01 624.87 340.39 624.87 355.77 624.88 C 367.11 664.64 378.42 704.40 389.77 744.15 C 401.66 704.41 413.42 664.63 425.27 624.88 C 439.82 624.87 454.37 624.86 468.93 624.88 C 452.52 675.21 436.22 725.57 419.80 775.89 C 399.31 775.87 378.81 775.88 358.32 775.88 C 342.10 725.55 325.84 675.22 309.63 624.88 Z" fill="#000000" opacity="1.00"/>
<path d="M 486.63 624.88 C 500.88 624.87 515.12 624.87 529.37 624.88 C 529.38 675.21 529.38 725.54 529.37 775.87 C 515.17 775.88 500.96 775.88 486.75 775.87 C 486.70 725.54 486.85 675.21 486.63 624.88 Z" fill="#000000" opacity="1.00"/>
<path d="M 555.25 624.88 C 572.17 624.86 589.09 624.88 606.00 624.87 C 624.53 624.93 643.63 624.43 661.37 630.63 C 676.07 635.69 688.31 647.28 694.17 661.69 C 701.26 678.84 702.46 697.89 700.69 716.21 C 699.16 728.99 696.31 742.18 688.86 752.93 C 681.80 761.87 672.24 769.14 661.12 772.10 C 645.79 776.32 629.72 775.82 613.96 775.88 C 594.39 775.87 574.82 775.89 555.25 775.87 C 555.25 725.54 555.24 675.21 555.25 624.88 M 597.63 657.89 C 597.62 686.42 597.63 714.96 597.63 743.49 C 611.55 743.13 626.26 745.20 639.31 739.15 C 648.32 735.25 654.91 726.93 657.44 717.55 C 660.28 707.08 660.32 695.85 657.85 685.30 C 655.55 675.47 648.98 666.53 639.64 662.39 C 626.52 656.19 611.66 658.23 597.63 657.89 Z" fill="#000000" opacity="1.00"/>
<path d="M 721.13 624.88 C 735.38 624.87 749.62 624.87 763.87 624.88 C 763.88 675.21 763.88 725.54 763.87 775.87 C 749.62 775.88 735.37 775.88 721.13 775.87 C 721.12 725.54 721.11 675.21 721.13 624.88 Z" fill="#000000" opacity="1.00"/>
<path d="M 840.54 625.01 C 859.52 624.95 878.51 625.11 897.50 624.85 C 917.60 675.11 937.53 725.44 957.54 775.74 C 942.29 775.77 927.03 775.74 911.78 775.75 C 908.76 766.88 905.92 757.95 902.82 749.12 C 879.42 749.14 856.02 749.11 832.62 749.13 C 829.48 758.00 826.36 766.88 823.22 775.75 C 809.16 775.75 795.11 775.76 781.06 775.74 C 800.87 725.49 820.70 675.25 840.54 625.01 M 841.79 722.99 C 859.17 723.01 876.55 723.00 893.94 723.00 C 885.40 699.58 876.82 676.18 868.28 652.77 C 859.41 676.16 850.62 699.59 841.79 722.99 Z" fill="#000000" opacity="1.00"/>
</g>
</svg>