<?xml version="1.0" encoding="utf-8"?>
<svg xmlns="http://www.w3.org/2000/svg" height="486pt" version="1.1" viewBox="0 0 780 486" width="780pt">
<g id="#000000ff">
<path d="M 0.68 160.93 C 0.48 159.17 2.66 158.85 3.94 158.98 C 35.65 159.01 67.36 159.01 99.08 158.98 C 100.37 158.82 102.46 159.24 102.28 160.97 C 102.54 170.36 102.26 179.78 102.42 189.18 C 102.79 190.64 101.63 191.70 100.86 192.75 C 72.90 192.45 44.94 192.71 16.98 192.62 C 11.56 192.52 6.13 192.90 0.72 192.35 C 0.55 181.88 0.58 171.40 0.68 160.93 Z" fill="#000000" opacity="1.00"/>
<path d="M 102.24 194.14 C 103.30 193.36 104.37 192.19 105.86 192.58 C 114.92 192.68 123.98 192.58 133.04 192.63 C 134.57 192.48 136.70 193.06 136.35 195.06 C 136.39 204.72 136.42 214.39 136.33 224.05 C 136.73 225.96 134.48 226.59 133.03 226.39 C 123.97 226.39 114.91 226.34 105.85 226.42 C 104.37 226.80 103.30 225.63 102.24 224.86 C 102.45 214.63 102.46 204.37 102.24 194.14 Z" fill="#000000" opacity="1.00"/>
<path d="M 204.00 192.63 C 208.08 192.62 212.16 192.62 216.24 192.64 C 216.32 206.24 216.13 219.84 216.33 233.45 C 218.72 231.13 220.40 228.15 223.12 226.18 C 235.27 216.76 254.30 217.93 265.09 228.92 C 272.96 236.30 276.02 247.46 275.77 257.99 C 275.99 267.82 273.47 278.21 266.59 285.54 C 256.01 297.56 236.02 299.30 223.28 289.80 C 220.46 287.89 218.79 284.85 216.32 282.57 C 216.20 286.34 216.25 290.11 216.27 293.87 C 212.18 293.87 208.09 293.87 204.00 293.88 C 204.00 260.13 204.00 226.38 204.00 192.63 M 232.39 232.55 C 224.18 235.13 218.33 242.73 216.80 251.05 C 215.23 260.01 216.42 270.19 222.84 277.11 C 231.29 286.54 247.82 286.90 256.49 277.58 C 262.56 271.44 263.90 262.26 263.15 254.00 C 262.73 245.89 258.15 238.06 251.00 234.10 C 245.35 231.09 238.46 230.50 232.39 232.55 Z" fill="#000000" opacity="1.00"/>
<path d="M 567.50 221.87 C 567.51 212.12 567.48 202.37 567.51 192.63 C 571.59 192.61 575.67 192.62 579.75 192.65 C 579.76 202.39 579.72 212.13 579.77 221.87 C 588.97 221.88 598.17 221.87 607.37 221.87 C 607.38 225.62 607.38 229.37 607.37 233.13 C 598.16 233.12 588.94 233.13 579.73 233.13 C 579.76 248.09 579.75 263.05 579.73 278.01 C 579.69 279.67 579.89 282.30 582.03 282.48 C 589.34 282.84 596.67 282.51 603.99 282.62 C 604.00 286.37 604.00 290.12 603.99 293.88 C 595.31 293.80 586.63 294.01 577.96 293.79 C 572.28 293.70 567.46 288.61 567.55 282.95 C 567.42 266.35 567.53 249.74 567.50 233.14 C 561.67 233.11 555.84 233.13 550.00 233.12 C 549.99 229.37 549.99 225.62 550.01 221.88 C 555.83 221.87 561.66 221.88 567.50 221.87 Z" fill="#000000" opacity="1.00"/>
<path d="M 298.32 230.37 C 308.95 218.48 329.95 215.52 341.82 227.14 C 343.76 229.07 344.98 231.60 347.04 233.44 C 347.18 229.58 347.11 225.73 347.13 221.87 C 351.16 221.87 355.20 221.87 359.24 221.89 C 359.25 240.27 359.27 258.66 359.23 277.04 C 359.28 278.87 359.10 281.08 360.78 282.31 C 362.73 282.77 364.75 282.62 366.75 282.69 C 366.74 286.42 366.75 290.14 366.76 293.87 C 361.64 293.59 355.75 295.01 351.37 291.58 C 348.15 289.23 347.14 285.15 346.81 281.39 C 344.24 284.62 342.35 288.51 338.79 290.83 C 324.80 300.92 302.90 295.27 294.62 280.39 C 289.48 271.90 288.72 261.62 289.52 251.94 C 290.15 244.09 293.05 236.30 298.32 230.37 M 320.46 231.67 C 314.11 232.68 308.34 236.75 305.27 242.40 C 301.31 249.43 301.20 257.92 302.36 265.71 C 303.33 272.35 307.29 278.56 313.26 281.76 C 321.17 285.82 331.55 285.23 338.49 279.47 C 343.85 274.92 346.68 267.87 347.03 260.95 C 347.62 253.05 346.08 244.42 340.50 238.46 C 335.58 232.94 327.71 230.38 320.46 231.67 Z" fill="#000000" opacity="1.00"/>
<path d="M 406.08 220.97 C 416.32 218.47 428.06 219.86 436.48 226.55 C 441.52 230.44 444.35 236.54 445.31 242.73 C 441.47 243.62 437.63 244.54 433.81 245.48 C 433.21 242.14 432.29 238.67 429.83 236.18 C 425.71 231.49 418.98 230.23 413.03 230.92 C 409.02 231.43 404.58 232.65 402.12 236.11 C 399.22 240.14 400.92 246.39 405.43 248.45 C 412.84 252.04 421.35 251.00 429.18 252.91 C 435.27 254.39 441.60 257.34 444.80 263.02 C 447.65 268.64 447.70 275.57 445.41 281.39 C 442.46 289.02 434.71 293.58 426.96 294.97 C 416.83 296.85 405.53 296.06 396.77 290.23 C 389.67 285.69 385.52 277.59 384.96 269.28 C 387.67 268.77 390.38 267.38 393.20 267.93 L 392.60 267.37 C 393.57 267.15 395.51 266.71 396.48 266.49 C 397.18 271.96 399.35 277.58 404.07 280.81 C 409.79 284.80 417.25 285.28 423.94 284.04 C 428.02 283.22 432.33 281.15 434.08 277.14 C 435.66 273.06 434.70 267.54 430.57 265.35 C 423.92 261.73 416.09 262.38 408.85 261.16 C 402.69 260.07 396.20 257.86 392.26 252.71 C 388.52 247.84 388.23 241.20 389.47 235.41 C 391.62 227.85 398.66 222.68 406.08 220.97 Z" fill="#000000" opacity="1.00"/>
<path d="M 482.34 224.37 C 490.42 219.88 500.15 218.79 509.13 220.77 C 520.15 223.46 529.76 231.96 532.98 242.95 C 535.15 248.98 534.58 255.46 534.61 261.74 C 515.32 261.78 496.03 261.72 476.74 261.76 C 477.11 270.48 481.87 279.51 490.34 282.71 C 498.38 285.37 508.00 285.19 515.12 280.21 C 518.77 277.73 520.77 273.65 522.32 269.65 C 526.18 270.68 530.05 271.71 533.92 272.77 C 530.93 282.69 523.16 291.44 512.98 294.18 C 503.65 296.69 493.22 296.72 484.34 292.59 C 474.29 288.11 467.51 278.13 465.43 267.52 C 464.40 261.75 464.36 255.83 464.95 250.02 C 466.16 239.32 472.93 229.53 482.34 224.37 M 489.62 233.67 C 482.86 236.63 478.32 243.31 477.03 250.46 C 492.17 250.55 507.31 250.48 522.46 250.49 C 521.76 246.22 520.37 241.90 517.29 238.74 C 510.54 231.11 498.66 229.36 489.62 233.67 Z" fill="#000000" opacity="1.00"/>
<path d="M 623.60 247.15 C 626.46 231.99 640.80 220.50 656.04 219.91 C 666.90 219.00 678.21 223.40 685.16 231.88 C 690.33 237.97 692.93 246.07 692.77 254.02 C 692.77 256.59 692.73 259.17 692.74 261.75 C 673.47 261.76 654.20 261.74 634.92 261.76 C 635.38 268.69 638.05 275.87 643.82 280.10 C 650.77 285.05 660.16 285.34 668.12 282.95 C 674.30 281.05 678.57 275.59 680.55 269.63 C 682.93 270.25 685.29 270.93 687.63 271.68 C 689.08 272.08 690.55 272.37 692.05 272.66 C 689.32 282.11 682.26 290.39 672.85 293.64 C 665.56 296.06 657.58 296.52 650.04 295.07 C 639.55 293.17 630.53 285.58 626.25 275.91 C 622.30 266.94 621.99 256.70 623.60 247.15 M 645.11 235.12 C 639.70 238.43 636.44 244.38 635.21 250.47 C 650.37 250.51 665.53 250.52 680.69 250.47 C 679.80 244.76 677.12 239.05 672.18 235.79 C 664.43 230.00 653.17 229.95 645.11 235.12 Z" fill="#000000" opacity="1.00"/>
<path d="M 734.62 224.75 C 741.24 219.74 750.18 218.99 758.11 220.57 C 765.63 222.12 772.35 227.31 775.44 234.38 C 778.06 240.22 778.53 246.73 778.51 253.05 C 778.49 266.66 778.51 280.27 778.50 293.87 C 774.41 293.88 770.34 293.88 766.26 293.86 C 766.22 279.90 766.28 265.93 766.24 251.97 C 766.24 245.01 763.86 237.19 757.41 233.61 C 749.10 229.26 737.48 231.07 731.70 238.76 C 727.86 243.62 726.44 249.95 726.49 256.04 C 726.51 268.65 726.49 281.26 726.51 293.86 C 722.42 293.88 718.34 293.88 714.26 293.86 C 714.24 269.86 714.26 245.86 714.25 221.86 C 718.31 221.88 722.36 221.91 726.42 221.82 C 726.56 226.01 726.42 230.21 726.64 234.40 C 729.14 231.07 731.16 227.24 734.62 224.75 Z" fill="#000000" opacity="1.00"/>
<path d="M 34.63 228.01 C 34.97 227.63 35.67 226.88 36.02 226.50 C 57.62 226.12 79.25 226.63 100.86 226.25 C 101.63 227.30 102.79 228.35 102.42 229.83 C 102.34 239.89 102.38 249.94 102.38 260.00 C 112.61 260.01 122.84 259.97 133.07 260.01 C 134.29 259.93 136.45 260.22 136.28 261.92 C 136.53 271.28 136.29 280.66 136.39 290.03 C 136.53 291.62 136.11 294.06 133.97 293.69 C 123.45 293.85 112.92 293.68 102.39 293.76 C 102.27 304.55 102.55 315.35 102.27 326.14 C 101.97 326.44 101.36 327.04 101.06 327.34 C 90.28 327.49 79.41 327.88 68.65 327.11 C 68.40 316.41 68.42 305.69 68.61 294.99 C 68.94 294.72 69.61 294.18 69.95 293.91 C 80.73 293.51 91.54 293.87 102.34 293.74 C 102.41 282.54 102.37 271.33 102.36 260.13 C 81.23 260.13 60.10 260.10 38.97 260.15 C 37.40 260.24 35.91 259.78 34.46 259.22 C 34.65 248.82 34.28 238.40 34.63 228.01 Z" fill="#000000" opacity="1.00"/>
</g>
</svg>