<?xml version="1.0" encoding="utf-8"?>
<svg xmlns="http://www.w3.org/2000/svg" height="605pt" version="1.1" viewBox="0 0 1602 605" width="1602pt">
<g id="#ff5a00ff">
<path d="M 864.75 0.00 L 882.98 0.00 C 896.10 0.77 909.24 2.27 921.94 5.78 C 938.06 10.27 954.14 17.83 964.97 31.00 C 974.68 42.57 978.79 58.13 977.83 73.06 C 976.59 87.09 971.00 100.28 964.75 112.74 C 948.14 144.59 925.65 172.76 904.80 201.85 C 901.83 206.27 899.77 212.06 901.72 217.30 C 903.84 222.32 909.52 224.40 914.53 225.23 C 925.66 226.82 936.93 225.13 947.90 223.14 C 967.46 219.39 986.56 213.60 1005.45 207.33 C 1006.03 208.10 1006.59 208.90 1007.13 209.73 C 1000.42 214.68 993.16 218.84 985.98 223.05 C 962.67 236.21 938.32 247.96 912.49 255.24 C 899.70 258.54 886.07 261.34 872.99 258.09 C 865.20 256.27 858.66 250.14 856.81 242.30 C 854.74 232.82 855.03 222.69 858.54 213.58 C 863.53 200.24 871.78 188.48 880.15 177.07 C 900.20 150.31 921.65 124.40 938.48 95.39 C 943.88 85.75 949.60 75.24 948.82 63.85 C 947.07 51.67 936.03 44.02 925.73 39.11 C 908.82 31.28 890.67 26.50 872.73 21.70 C 869.82 22.86 867.42 25.02 864.77 26.66 C 870.66 31.35 876.79 35.74 882.62 40.52 C 866.34 43.43 850.11 46.61 833.98 50.29 C 793.40 59.35 753.81 72.26 714.83 86.62 C 717.94 93.03 721.02 99.45 724.28 105.78 C 716.90 114.17 709.31 122.38 701.95 130.78 C 718.76 135.70 736.75 136.65 753.99 133.46 C 770.82 130.33 786.69 122.50 799.53 111.19 C 796.29 107.17 792.24 103.94 787.86 101.26 C 802.39 101.49 815.27 114.20 815.53 128.76 C 812.68 128.75 809.84 128.75 807.00 128.75 C 806.36 125.62 805.53 122.53 804.48 119.52 C 791.89 130.71 776.71 138.97 760.38 143.16 C 736.34 149.42 710.53 147.40 687.29 138.90 C 688.48 150.13 689.78 161.36 690.85 172.61 C 676.52 178.45 662.95 187.03 652.87 198.90 C 647.49 205.46 642.78 214.78 646.76 223.18 C 650.03 231.63 659.10 235.23 667.03 237.94 C 687.47 244.04 709.20 243.01 730.19 241.08 C 752.09 238.84 773.75 234.59 795.14 229.42 C 796.78 228.50 798.69 231.51 796.89 232.54 C 767.56 248.24 735.51 259.18 702.41 263.22 C 688.99 264.72 675.41 266.39 661.92 264.75 C 644.61 263.04 626.89 258.11 613.37 246.70 C 602.31 237.47 595.73 223.42 595.07 209.09 C 593.96 190.77 600.28 172.90 609.06 157.09 C 622.07 132.31 638.77 109.40 658.92 89.94 C 685.25 63.94 717.08 43.92 750.87 29.08 C 786.92 13.40 825.33 2.16 864.75 0.00 Z" fill="#ff5a00" opacity="1.00"/>
<path d="M 123.48 352.11 C 153.45 351.94 183.43 351.91 213.40 352.12 C 216.06 358.18 219.02 364.10 221.84 370.09 C 258.32 446.72 294.83 523.35 331.29 600.00 C 301.50 600.04 271.71 599.93 241.92 600.05 C 235.65 585.19 229.67 570.20 223.55 555.27 C 182.43 555.23 141.32 555.25 100.20 555.26 C 93.67 570.17 87.09 585.05 80.57 599.97 C 53.71 600.05 26.86 599.97 0.00 600.01 L 0.00 599.72 C 16.15 567.54 32.19 535.30 48.22 503.05 C 73.35 452.76 98.59 402.52 123.48 352.11 M 123.78 500.99 C 149.89 501.00 176.00 501.01 202.10 500.98 C 189.42 471.12 176.72 441.27 164.01 411.42 C 150.61 441.28 137.19 471.13 123.78 500.99 Z" fill="#ff5a00" opacity="1.00"/>
<path d="M 354.00 352.00 C 380.00 352.00 406.00 352.00 432.00 352.00 C 432.00 434.67 432.00 517.33 432.00 600.00 C 406.00 600.00 380.00 600.00 354.00 600.00 C 354.00 517.33 354.00 434.67 354.00 352.00 Z" fill="#ff5a00" opacity="1.00"/>
<path d="M 481.24 352.01 C 507.24 351.99 533.25 352.00 559.25 352.00 C 559.25 368.50 559.25 385.00 559.25 401.50 C 533.24 401.49 507.23 401.54 481.23 401.47 C 481.27 384.98 481.24 368.50 481.24 352.01 Z" fill="#ff5a00" opacity="1.00"/>
<path d="M 608.49 352.26 C 634.08 352.23 659.66 352.26 685.24 352.25 C 685.23 385.95 685.32 419.66 685.20 453.37 C 696.93 440.56 711.96 430.49 728.82 425.94 C 745.61 421.32 763.61 422.07 780.31 426.70 C 796.53 431.37 810.86 441.65 821.21 454.89 C 832.66 471.00 839.45 490.38 840.34 510.14 C 841.11 528.35 838.65 547.31 829.40 563.32 C 824.25 572.47 817.08 580.39 808.97 587.01 C 793.94 597.83 775.61 604.44 756.99 604.27 C 740.85 604.46 724.47 600.75 710.57 592.38 C 700.54 586.50 691.99 578.39 684.75 569.36 C 684.76 579.57 684.74 589.78 684.76 599.99 C 659.33 600.00 633.91 600.02 608.49 599.98 C 608.51 517.41 608.50 434.83 608.49 352.26 M 716.57 463.87 C 704.25 465.61 693.38 474.25 689.08 485.94 C 683.78 500.88 683.37 517.45 687.27 532.77 C 690.32 542.91 696.89 553.09 707.26 556.82 C 714.55 559.81 722.70 561.49 730.52 559.74 C 740.95 557.56 749.54 550.14 755.52 541.60 C 762.89 527.69 764.07 511.03 760.62 495.82 C 758.53 486.80 754.54 477.82 747.37 471.71 C 739.03 464.53 727.28 462.00 716.57 463.87 Z" fill="#ff5a00" opacity="1.00"/>
<path d="M 1127.49 352.26 C 1153.08 352.23 1178.66 352.26 1204.24 352.25 C 1204.26 385.89 1204.25 419.52 1204.25 453.16 C 1217.01 439.51 1233.44 428.87 1251.86 424.91 C 1269.05 421.25 1287.29 422.49 1303.90 428.22 C 1321.91 434.83 1337.65 448.04 1346.56 465.12 C 1359.59 488.30 1362.36 516.33 1356.67 542.09 C 1353.46 555.80 1346.59 568.65 1336.82 578.81 C 1325.06 591.54 1308.65 599.33 1291.84 602.82 C 1270.30 606.58 1247.07 603.30 1228.33 591.67 C 1218.85 585.83 1210.66 578.08 1203.76 569.38 C 1203.75 579.58 1203.74 589.78 1203.76 599.99 C 1178.34 600.00 1152.91 600.01 1127.49 599.99 C 1127.50 517.41 1127.50 434.84 1127.49 352.26 M 1235.59 463.85 C 1227.53 465.27 1219.62 468.97 1214.35 475.40 C 1207.00 483.83 1204.83 495.28 1203.86 506.08 C 1203.33 517.72 1204.06 529.91 1209.27 540.54 C 1212.68 546.84 1217.34 553.03 1224.14 555.90 C 1232.01 559.49 1240.95 561.65 1249.56 559.73 C 1260.00 557.52 1268.50 550.07 1274.51 541.55 C 1282.14 527.10 1283.04 509.71 1279.13 494.04 C 1276.75 484.48 1271.73 475.22 1263.50 469.51 C 1255.38 464.15 1245.15 462.15 1235.59 463.85 Z" fill="#ff5a00" opacity="1.00"/>
<path d="M 924.07 427.66 C 942.23 422.50 961.27 421.66 980.04 421.74 C 998.86 422.12 1017.90 423.54 1035.98 429.13 C 1049.66 433.40 1063.19 440.50 1071.80 452.31 C 1079.28 462.20 1082.36 474.76 1082.50 487.00 C 1082.51 524.58 1082.49 562.15 1082.51 599.73 C 1058.59 599.78 1034.68 599.73 1010.76 599.76 C 1010.77 591.36 1010.69 582.97 1010.81 574.59 C 1003.23 584.37 992.82 591.80 981.28 596.20 C 963.80 603.00 944.70 604.24 926.14 603.29 C 912.41 602.07 898.57 598.43 886.95 590.82 C 877.94 584.99 871.16 575.71 868.91 565.16 C 866.14 551.75 867.77 537.02 875.33 525.37 C 882.85 513.61 895.07 505.67 907.93 500.79 C 924.55 494.36 942.41 492.24 960.05 490.70 C 976.42 489.24 992.86 489.02 1009.26 488.44 C 1008.84 480.15 1006.82 471.31 1000.65 465.35 C 993.97 458.80 984.08 457.15 975.08 457.55 C 968.42 457.83 961.42 459.86 956.82 464.94 C 953.93 468.04 952.24 472.00 950.97 475.99 C 927.20 476.01 903.44 475.99 879.67 476.00 C 881.27 465.76 884.77 455.57 891.46 447.51 C 899.63 437.34 911.75 431.24 924.07 427.66 M 952.42 530.32 C 943.69 536.57 943.50 551.57 952.53 557.61 C 959.15 561.91 967.42 561.96 975.05 561.69 C 984.69 561.12 994.95 558.08 1001.31 550.37 C 1008.09 542.28 1009.51 531.21 1009.25 521.01 C 1000.80 521.03 992.36 521.24 983.93 521.61 C 973.06 522.23 961.36 523.54 952.42 530.32 Z" fill="#ff5a00" opacity="1.00"/>
<path d="M 1429.73 432.76 C 1448.79 423.80 1470.25 422.21 1491.02 421.75 C 1514.01 421.69 1537.50 422.92 1559.39 430.55 C 1574.21 435.72 1588.40 445.21 1595.47 459.65 C 1600.14 468.46 1601.20 478.50 1602.00 488.27 L 1602.00 599.63 C 1578.01 599.92 1554.01 599.66 1530.01 599.76 C 1529.99 591.35 1529.99 582.93 1530.01 574.52 C 1523.71 582.45 1515.75 589.08 1506.60 593.47 C 1490.32 601.39 1471.89 603.81 1453.95 603.51 C 1441.94 603.76 1429.89 601.57 1418.68 597.28 C 1410.39 593.99 1402.35 589.36 1396.58 582.43 C 1390.76 575.64 1387.62 566.86 1386.97 558.00 C 1385.52 543.41 1390.21 528.10 1400.58 517.56 C 1413.06 504.75 1430.55 498.39 1447.72 494.87 C 1474.27 489.69 1501.42 489.33 1528.35 488.44 C 1528.07 479.00 1525.14 468.69 1517.02 463.04 C 1507.84 456.89 1495.71 456.18 1485.29 459.12 C 1477.42 461.31 1472.17 468.39 1470.08 475.99 C 1446.34 476.01 1422.59 476.01 1398.85 475.99 C 1399.60 471.36 1400.60 466.75 1402.27 462.35 C 1406.79 449.18 1417.24 438.63 1429.73 432.76 M 1494.80 522.25 C 1486.38 523.34 1477.61 525.35 1470.89 530.82 C 1462.69 537.43 1462.90 552.21 1472.06 557.87 C 1478.61 561.90 1486.63 561.96 1494.08 561.69 C 1503.56 561.19 1513.56 558.25 1519.99 550.87 C 1527.21 542.80 1528.53 531.41 1528.53 521.01 C 1517.28 521.15 1506.00 521.14 1494.80 522.25 Z" fill="#ff5a00" opacity="1.00"/>
<path d="M 481.24 428.01 C 507.24 427.99 533.25 428.00 559.25 428.00 C 559.25 485.33 559.25 542.67 559.25 600.00 C 533.25 600.00 507.24 600.01 481.24 599.99 C 481.25 542.66 481.25 485.34 481.24 428.01 Z" fill="#ff5a00" opacity="1.00"/>
</g>
</svg>