<?xml version="1.0" encoding="utf-8"?>
<svg xmlns="http://www.w3.org/2000/svg" id="Layer_1" style="enable-background:new 0 0 845 450;" version="1.1" viewBox="0 0 845 450" x="0px" y="0px">
<g>
	<path d="M357.7,163.1c-4-7.2-8.9-12.7-14.8-16.6c-5.9-3.9-12.8-5.8-20.7-5.8c-10.7,0-19.7,3.2-26.9,9.5&#xA;		c-7.2,6.3-12.4,14.5-15.6,24.3h-1.6l-2.2-30.6h-37.6l0,0v228.4H281v-76.8h1.6c4.1,7.1,9.2,12.7,15.3,16.8&#xA;		c6.1,4.1,13.2,6.1,21.4,6.1c6.6,0,13-1.7,19.1-5.2c6.1-3.4,11.5-8.6,16.1-15.5c4.6-6.9,8.2-15.4,10.9-25.7c2.7-10.2,4-22,4-35.3&#xA;		v-13.6c0-12.5-1-23.8-2.9-34C364.6,179.1,361.7,170.3,357.7,163.1z M323.8,243.1c0,16.1-1.7,27.6-5.1,34.6&#xA;		c-3.4,7-8.3,10.5-14.5,10.5h0c-5.6,0-10.5-3.4-14.8-10.1c-4.3-6.7-6.4-17.5-6.4-32.3v-30.9c0-14.4,1.8-25.4,5.3-33.1&#xA;		c3.6-7.7,8.8-11.6,15.6-11.6c13.3,0,20,15.8,20,47.3V243.1z"/>
	<path d="M510.4,163.1c-4-7.2-8.9-12.7-14.8-16.6c-5.9-3.9-12.8-5.8-20.7-5.8c-10.7,0-19.7,3.2-26.9,9.5&#xA;		c-7.2,6.3-12.4,14.5-15.6,24.3h-1.6l-2.2-30.6h-37.6l0,0v228.4h42.8v-76.8h1.6c4.1,7.1,9.2,12.7,15.3,16.8&#xA;		c6.1,4.1,13.2,6.1,21.4,6.1c6.6,0,13-1.7,19.1-5.2c6.1-3.4,11.5-8.6,16.1-15.5c4.6-6.9,8.2-15.4,10.9-25.7c2.7-10.2,4-22,4-35.3&#xA;		v-13.6c0-12.5-0.9-23.8-2.9-34C517.3,179.1,514.3,170.3,510.4,163.1z M476.4,243.1c0,16.1-1.7,27.6-5.1,34.6&#xA;		c-3.4,7-8.2,10.5-14.5,10.5h0c-5.6,0-10.5-3.4-14.8-10.1c-4.3-6.7-6.4-17.5-6.4-32.3v-30.9c0-14.4,1.8-25.4,5.3-33.1&#xA;		c3.6-7.7,8.8-11.6,15.6-11.6c13.3,0,20,15.8,20,47.3V243.1z"/>
	<path d="M798,151.7c-5.4-7.3-14.2-10.9-26.4-10.9c-8.6,0-17.1,2.8-25.6,8.5c-8.5,5.7-15.3,14.6-20.4,26.9h-0.6l-1.6-32.2h-39.9h0&#xA;		v170.9h43.8V209.9c0-10.9,2.2-19.9,6.6-26.9c4.4-7,9.8-10.5,16.3-10.5c4.5,0,7.7,1.3,9.7,4c1.9,2.7,2.9,6.9,2.9,12.7v125.5H806&#xA;		V179.4C806,168.2,803.3,159,798,151.7z"/>
	<path d="M603,140.7c-10.6,0-19.8,2.1-27.8,6.4c-8,4.3-14.7,10.1-20.2,17.4c-5.5,7.3-9.6,15.9-12.4,25.9c-2.8,10-4.2,20.6-4.2,31.7&#xA;		v14.2c0,13.3,1.6,25.1,4.8,35.3c3.2,10.2,7.8,18.8,13.7,25.6c5.9,6.9,13,12.1,21.1,15.6c8.2,3.5,17.2,5.3,27.1,5.3&#xA;		c9,0,16.8-1.4,23.4-4.2c1-0.4,1.9-0.9,2.9-1.3c22.4-10.6,32.2-35,32.2-58.6h-30.3c-1.5,10.8-4,19.3-7.6,25.5&#xA;		c-3.5,6.2-9.1,9.3-16.6,9.3c-9.2,0-15.7-4.4-19.2-13.3c-3.5-8.9-5.3-21.9-5.3-39.2v-1h79.1l0,0v-9.3c0-29.2-5.4-50.8-16.3-64.6&#xA;		C636.5,147.7,621.7,140.7,603,140.7z M584.6,213.8c0-14.6,1.4-25.6,4.2-32.9c2.8-7.3,7.5-11,14.2-11c6,0,10.4,3.2,13.1,9.7&#xA;		c2.7,6.4,4,17.8,4,34.1H584.6z"/>
	<polygon points="84.4,86.9 41,314.9 80.5,314.9 89.3,269.8 123.9,269.8 123.9,268.9 123.9,234.2 123.9,225.4 98.3,225.4 &#xA;		123.9,86.9"/>
	<polygon points="132.7,86.9 158.4,225.4 132.7,225.4 132.7,234.2 132.7,268.9 132.7,269.8 167.4,269.8 176.2,314.9 215.7,314.9 &#xA;		172.2,86.9"/>
</g>
</svg>