<?xml version="1.0" encoding="utf-8"?>
<svg xmlns="http://www.w3.org/2000/svg" height="508pt" version="1.1" viewBox="0 0 2500 508" width="2500pt">
<g id="#232425ff">
<path d="M 148.55 13.58 C 158.99 5.63 171.90 0.84 185.04 0.32 C 194.98 -0.04 205.46 3.20 212.17 10.85 C 218.86 18.51 223.91 27.91 225.41 38.05 C 226.38 44.27 224.89 51.61 219.31 55.27 C 213.06 59.21 204.38 60.18 197.99 56.01 C 189.70 50.52 185.39 41.18 179.71 33.35 C 175.18 26.69 168.82 19.43 160.01 19.70 C 149.94 19.24 141.74 30.29 144.38 39.80 C 146.42 45.86 152.08 49.67 157.44 52.58 C 174.37 61.27 192.82 67.28 208.20 78.78 C 216.45 84.92 224.17 92.91 226.67 103.18 C 227.73 108.13 228.17 113.82 225.34 118.28 C 222.41 122.43 216.72 122.77 212.10 122.34 C 196.32 120.57 181.74 113.22 165.92 111.59 C 160.91 111.17 155.08 111.51 151.44 115.46 C 147.78 119.66 147.58 125.61 147.82 130.89 C 148.22 136.61 148.86 142.82 152.58 147.45 C 155.29 150.81 159.86 151.88 164.01 151.49 C 176.53 150.43 188.10 143.20 200.90 144.64 C 207.10 145.29 212.04 150.09 214.26 155.71 C 218.31 165.59 218.42 176.51 218.23 187.02 C 218.10 194.86 215.52 203.15 209.24 208.23 C 204.23 212.70 197.51 214.12 191.56 216.89 C 198.97 219.79 207.26 222.07 212.39 228.63 C 218.69 236.25 218.49 246.71 218.23 256.04 C 217.79 264.91 216.98 274.33 212.06 281.99 C 209.10 286.72 203.55 289.36 198.04 289.26 C 186.27 289.30 175.62 283.23 164.03 282.15 C 159.54 281.66 154.53 283.13 151.93 287.03 C 148.58 291.98 148.10 298.19 147.77 304.00 C 147.67 308.93 147.97 314.55 151.61 318.30 C 155.24 322.15 161.00 322.52 165.96 322.08 C 181.08 320.45 195.07 313.74 210.08 311.54 C 214.76 311.03 220.22 310.63 224.05 313.92 C 227.57 317.19 227.77 322.52 227.28 326.98 C 226.25 336.61 220.11 344.79 213.01 350.99 C 200.67 361.71 185.46 368.18 170.69 374.76 C 164.05 377.95 157.03 380.58 151.11 385.06 C 147.38 387.93 144.00 392.02 143.83 396.94 C 143.73 403.91 148.29 410.96 154.99 413.20 C 160.66 415.13 167.08 413.52 171.55 409.66 C 181.80 400.93 185.91 386.99 196.54 378.61 C 203.03 373.39 212.74 374.11 219.48 378.48 C 224.97 382.16 226.37 389.43 225.41 395.59 C 223.84 406.03 218.61 415.79 211.45 423.47 C 205.25 430.21 195.96 433.29 186.97 433.28 C 173.27 433.37 159.71 428.40 148.80 420.24 C 133.57 408.59 128.65 388.12 113.17 376.74 C 101.42 368.31 86.75 366.22 73.28 361.87 C 51.91 354.90 30.94 344.20 16.07 326.92 C 6.74 316.25 0.94 302.55 0.00 288.38 L 0.00 278.80 C 1.15 261.13 9.95 243.82 24.59 233.60 C 38.26 223.89 55.75 221.63 72.09 223.04 C 83.68 224.20 95.59 226.91 105.16 233.89 C 111.28 238.29 116.13 244.69 117.90 252.09 C 120.13 261.04 116.19 271.46 108.02 276.02 C 101.26 279.84 93.04 279.75 85.64 278.17 C 73.24 275.49 61.96 269.31 51.29 262.65 C 45.40 259.05 38.25 256.17 31.28 258.06 C 24.12 260.10 19.64 266.90 17.30 273.58 C 13.98 283.42 13.15 294.29 15.78 304.39 C 17.05 309.53 20.93 314.18 26.13 315.61 C 31.16 316.88 36.19 314.75 40.64 312.56 C 50.92 307.20 60.35 299.90 71.69 296.79 C 80.76 294.16 90.97 295.07 99.15 299.92 C 103.26 302.36 104.62 307.45 104.47 311.96 C 104.00 323.14 99.28 333.78 99.76 345.05 C 99.92 349.81 101.59 354.66 105.04 358.05 C 109.68 362.69 116.23 364.62 122.51 365.77 C 131.94 367.35 141.56 367.24 151.07 366.56 C 155.56 366.14 160.27 365.59 164.18 363.16 C 166.48 361.79 167.93 358.83 166.91 356.22 C 165.08 350.60 160.33 346.75 156.59 342.43 C 146.37 330.73 137.60 317.59 131.86 303.11 C 129.07 295.72 126.59 288.02 126.56 280.04 C 126.58 274.49 128.53 268.54 133.17 265.16 C 137.66 261.82 143.73 262.04 148.93 263.24 C 160.51 266.15 170.44 273.06 181.23 277.86 C 183.94 278.81 186.97 280.35 189.85 279.25 C 192.00 278.50 191.75 275.93 190.99 274.27 C 189.31 270.46 186.30 267.47 183.43 264.54 C 175.56 256.93 166.83 250.28 157.98 243.86 C 153.93 240.86 150.23 236.91 148.94 231.91 C 147.94 228.57 148.68 224.69 151.16 222.19 C 153.64 219.74 157.09 218.77 160.05 217.08 C 156.89 214.11 151.67 213.62 149.66 209.37 C 146.34 202.75 151.05 195.33 156.21 191.18 C 166.96 183.07 178.09 175.21 187.15 165.14 C 189.26 162.56 191.83 159.66 191.52 156.09 C 189.83 152.93 185.84 154.08 183.17 155.04 C 171.15 159.81 160.49 167.92 147.68 170.69 C 142.46 171.81 136.40 171.49 132.28 167.73 C 127.79 163.92 126.32 157.74 126.59 152.08 C 127.03 143.43 129.92 135.15 133.23 127.23 C 140.03 111.49 150.37 97.49 162.18 85.15 C 164.91 81.80 168.86 77.12 166.36 72.65 C 162.53 67.80 155.64 67.64 150.00 67.00 C 137.54 66.53 124.55 65.95 112.73 70.60 C 106.49 72.97 101.22 78.35 100.15 85.10 C 98.12 97.64 104.10 109.58 104.46 122.00 C 104.57 126.27 103.30 130.99 99.51 133.44 C 90.98 138.83 80.01 139.53 70.50 136.50 C 59.71 133.23 50.63 126.31 40.76 121.13 C 36.29 118.86 31.20 116.88 26.13 118.04 C 21.00 119.43 17.17 123.95 15.87 129.00 C 13.46 137.76 13.85 147.16 16.04 155.92 C 17.71 162.32 20.62 168.81 26.00 172.92 C 30.05 176.07 35.54 176.91 40.45 175.66 C 48.37 173.89 54.64 168.44 61.73 164.82 C 72.85 158.94 85.10 153.66 97.95 154.60 C 105.86 155.09 113.65 159.85 116.62 167.38 C 120.06 175.01 118.48 184.07 113.82 190.83 C 107.00 201.14 94.94 206.51 83.20 208.91 C 64.75 212.71 44.35 211.93 27.80 202.14 C 11.35 192.39 1.32 173.86 0.00 155.02 L 0.00 145.15 C 0.98 132.07 5.83 119.29 14.12 109.10 C 28.35 91.09 49.38 79.95 70.74 72.62 C 84.89 67.65 100.56 65.91 113.03 56.99 C 128.53 45.69 133.47 25.29 148.55 13.58 Z" fill="#232425" opacity="1.00"/>
<path d="M 267.18 3.08 C 277.83 -1.26 289.90 -0.06 300.59 3.48 C 309.40 6.43 317.86 10.97 324.37 17.69 C 335.36 28.76 340.60 44.35 352.44 54.68 C 363.59 64.36 378.66 66.75 392.35 70.91 C 416.47 78.31 440.38 90.52 455.82 111.10 C 473.63 134.55 472.85 170.76 452.45 192.42 C 443.24 202.66 430.02 208.56 416.48 210.25 C 403.61 211.96 390.37 210.75 377.94 207.02 C 367.56 203.79 357.48 197.40 352.58 187.38 C 348.76 180.06 349.00 170.62 353.73 163.76 C 356.57 159.48 361.15 156.52 366.12 155.32 C 372.65 153.70 379.52 154.53 385.96 156.23 C 397.08 159.25 407.29 164.80 416.98 170.92 C 423.23 174.75 431.04 177.91 438.31 175.16 C 445.67 172.34 449.70 164.81 451.86 157.67 C 454.53 148.21 455.07 137.92 452.35 128.41 C 450.62 122.29 444.72 117.03 438.12 117.69 C 431.55 118.31 425.92 122.10 420.31 125.25 C 410.35 131.22 399.90 137.72 387.95 138.25 C 381.48 138.51 374.84 137.05 369.25 133.73 C 365.61 131.58 363.98 127.24 363.99 123.17 C 363.77 110.72 369.93 98.90 368.45 86.39 C 367.77 79.87 363.41 74.08 357.44 71.44 C 346.75 66.41 334.57 66.47 323.00 66.75 C 316.73 67.11 310.04 67.17 304.41 70.33 C 301.84 71.65 300.48 74.79 301.51 77.53 C 303.43 83.33 308.44 87.20 312.27 91.70 C 324.13 105.49 334.16 121.22 339.37 138.77 C 341.48 146.05 343.05 154.09 340.44 161.44 C 338.39 167.38 332.35 171.51 326.07 171.26 C 315.35 170.84 305.90 165.15 296.57 160.45 C 291.55 158.04 286.71 154.82 281.11 154.01 C 278.85 153.47 275.95 155.54 276.87 157.99 C 278.37 162.66 282.10 166.13 285.43 169.56 C 293.34 177.09 302.06 183.72 310.88 190.15 C 315.29 193.47 319.31 198.19 319.77 203.91 C 320.22 207.56 318.27 211.25 315.15 213.12 C 312.77 214.48 310.27 215.61 307.83 216.85 C 312.07 218.97 317.47 220.57 319.30 225.46 C 321.33 232.17 316.88 238.77 311.80 242.76 C 301.73 250.24 291.51 257.67 282.83 266.78 C 280.15 269.65 277.24 272.81 276.69 276.86 C 277.30 279.45 280.29 280.14 282.53 279.38 C 289.10 277.60 294.89 273.87 300.96 270.90 C 309.37 266.72 318.21 261.86 327.92 262.51 C 333.68 262.77 338.69 267.06 340.52 272.42 C 342.91 279.31 341.58 286.80 339.70 293.65 C 334.59 311.72 324.34 327.95 312.13 342.05 C 308.26 346.50 303.34 350.45 301.46 356.23 C 300.51 359.05 302.05 362.12 304.64 363.41 C 310.50 366.58 317.40 366.54 323.88 366.93 C 334.37 367.16 345.24 367.00 355.17 363.21 C 361.63 360.89 367.19 355.47 368.25 348.50 C 370.43 335.40 363.58 322.95 364.00 309.91 C 363.98 305.53 366.39 301.23 370.33 299.24 C 377.79 295.37 386.64 294.30 394.81 296.31 C 407.64 299.23 417.99 307.83 429.63 313.44 C 434.43 315.75 440.50 317.37 445.34 314.28 C 450.11 311.68 452.49 306.43 453.32 301.28 C 455.07 290.91 454.00 279.93 449.74 270.27 C 446.92 263.94 441.35 258.03 434.07 257.52 C 426.56 256.87 419.78 260.83 413.70 264.73 C 402.43 271.52 390.25 277.68 376.98 279.04 C 368.97 279.88 359.95 277.83 354.75 271.25 C 349.18 264.37 348.44 254.19 352.52 246.40 C 357.64 235.55 368.82 229.06 380.00 225.98 C 395.39 221.90 411.99 221.25 427.37 225.70 C 440.25 229.39 451.63 237.94 458.76 249.28 C 468.98 265.16 471.10 285.63 465.50 303.54 C 461.31 317.05 452.30 328.64 441.49 337.56 C 426.43 349.99 408.27 358.12 389.62 363.47 C 376.68 367.24 362.60 369.92 352.21 379.15 C 341.87 388.30 336.53 401.42 327.93 411.99 C 319.03 423.19 305.40 429.78 291.57 432.45 C 280.09 434.54 266.95 433.08 258.17 424.73 C 250.79 417.41 245.50 407.90 243.31 397.73 C 241.98 391.30 242.54 383.43 248.10 379.08 C 254.90 373.99 265.42 373.18 272.16 378.82 C 282.47 387.16 286.58 400.74 296.56 409.40 C 300.46 412.85 305.88 414.77 311.07 413.73 C 319.55 412.46 325.63 403.40 324.33 395.08 C 322.84 388.31 316.64 384.14 310.94 381.02 C 292.54 371.63 272.26 365.23 256.26 351.72 C 248.85 345.43 242.25 337.13 241.14 327.17 C 240.68 322.51 240.79 316.89 244.66 313.62 C 248.47 310.64 253.65 311.06 258.17 311.50 C 273.46 313.70 287.69 320.64 303.12 322.12 C 308.00 322.53 313.59 321.85 317.07 318.03 C 320.86 313.63 320.66 307.43 320.47 301.98 C 320.13 296.53 319.37 290.67 315.86 286.27 C 313.07 282.68 308.17 281.63 303.85 282.15 C 293.00 283.36 282.99 288.64 272.03 289.24 C 266.69 289.57 260.95 287.89 257.52 283.58 C 252.70 277.55 251.35 269.63 250.54 262.17 C 249.87 253.42 249.22 244.32 251.99 235.86 C 254.15 229.08 259.70 223.91 266.08 221.06 C 269.47 219.26 273.58 218.98 276.55 216.40 C 269.10 213.98 261.07 211.40 256.00 205.01 C 250.68 198.65 249.94 189.93 249.98 181.98 C 250.23 172.71 250.70 163.09 254.63 154.54 C 257.03 149.22 262.07 144.91 268.06 144.55 C 280.55 143.45 291.84 150.24 304.05 151.45 C 308.21 151.89 312.87 150.96 315.66 147.61 C 319.47 143.02 320.16 136.79 320.50 131.06 C 320.65 125.65 320.81 119.35 316.67 115.24 C 312.94 111.37 307.11 111.18 302.09 111.60 C 286.97 113.27 272.96 120.02 257.93 122.14 C 253.35 122.72 248.02 122.86 244.31 119.69 C 240.47 116.00 240.68 110.14 241.28 105.26 C 243.01 94.63 250.62 86.12 258.89 79.76 C 274.43 67.70 293.34 61.52 310.70 52.70 C 316.13 49.79 321.85 46.00 323.97 39.91 C 326.55 30.90 319.36 20.34 309.92 19.73 C 305.21 19.14 300.47 20.88 296.90 23.91 C 286.46 32.72 282.41 46.99 271.44 55.29 C 265.11 60.17 256.00 59.42 249.42 55.48 C 245.13 52.91 242.90 47.88 242.76 43.01 C 242.49 35.24 245.29 27.71 249.00 21.00 C 253.25 13.56 259.00 6.34 267.18 3.08 Z" fill="#232425" opacity="1.00"/>
<path d="M 896.36 2.70 C 900.17 0.92 905.61 0.95 907.95 5.02 C 910.65 10.24 909.51 16.34 909.76 21.99 C 909.10 58.99 909.91 96.02 909.24 133.02 C 909.38 157.33 908.98 181.65 909.51 205.96 C 909.49 232.96 909.49 259.95 909.51 286.95 C 909.96 297.31 909.63 307.67 909.78 318.03 C 910.09 324.61 911.33 331.93 916.45 336.59 C 921.19 340.83 928.07 340.81 934.02 340.00 C 938.98 339.52 943.96 338.01 948.96 338.82 C 953.75 339.40 954.78 346.51 951.33 349.26 C 947.67 352.28 943.10 353.87 938.82 355.78 C 924.25 361.79 909.67 367.79 895.37 374.41 C 891.00 376.33 886.78 378.93 881.93 379.37 C 878.41 379.89 874.21 379.09 872.22 375.87 C 868.85 370.58 871.05 363.93 868.80 358.30 C 867.23 354.19 863.63 350.62 859.13 350.13 C 853.68 349.40 848.54 352.15 844.44 355.47 C 828.50 368.20 809.31 377.68 788.74 379.21 C 769.49 381.35 749.69 377.58 732.63 368.42 C 705.06 354.21 685.93 326.65 678.20 297.03 C 672.34 273.88 672.11 249.47 676.02 225.98 C 681.36 194.89 697.36 164.91 723.14 146.11 C 739.68 133.86 759.58 126.36 780.01 124.10 C 803.56 121.49 827.84 124.31 849.83 133.29 C 854.33 135.14 859.74 136.79 864.30 134.20 C 868.71 131.50 869.94 125.91 870.00 121.09 C 870.00 108.03 870.02 94.98 869.98 81.93 C 869.82 73.74 868.13 64.85 861.88 59.03 C 855.50 53.34 847.56 49.85 840.01 46.04 C 836.68 44.53 833.24 41.91 833.02 37.95 C 832.90 34.26 835.87 31.34 839.15 30.18 C 856.88 23.18 874.10 14.92 890.71 5.58 C 892.55 4.55 894.38 3.47 896.36 2.70 M 780.42 138.64 C 773.47 139.94 766.69 142.19 760.39 145.41 C 747.75 151.50 738.27 162.65 731.86 174.92 C 721.87 193.57 719.31 215.09 718.79 235.94 C 718.51 258.18 720.85 280.85 729.15 301.65 C 735.02 316.78 744.00 331.09 756.85 341.23 C 767.42 349.73 780.53 355.02 794.05 356.13 C 811.40 357.92 829.30 352.82 843.13 342.20 C 857.09 331.56 866.73 315.38 869.24 297.99 C 870.34 291.38 869.94 284.66 870.00 277.99 C 869.97 251.97 870.07 225.96 869.95 199.94 C 868.43 179.08 854.94 160.39 837.58 149.39 C 820.93 138.36 799.89 135.27 780.42 138.64 Z" fill="#232425" opacity="1.00"/>
<path d="M 560.23 38.29 C 565.36 37.14 570.71 37.92 575.94 37.93 C 603.63 38.42 631.34 38.40 659.03 37.97 C 664.36 37.89 669.72 37.42 675.04 37.92 C 679.45 38.47 682.79 43.29 681.45 47.59 C 680.71 51.07 677.68 53.44 674.43 54.46 C 666.73 57.07 658.89 59.64 651.99 64.03 C 647.04 67.21 643.58 72.44 642.33 78.16 C 640.47 86.28 640.27 94.67 640.25 102.96 C 639.93 127.32 639.65 151.67 639.76 176.04 C 639.37 192.35 639.37 208.68 639.76 225.00 C 639.62 247.69 640.00 270.37 640.31 293.06 C 640.73 304.98 640.93 316.96 642.67 328.79 C 643.73 335.32 646.08 342.33 651.77 346.26 C 658.86 351.03 667.25 353.23 675.27 355.88 C 677.51 356.64 679.87 357.83 680.88 360.12 C 683.08 364.26 680.92 369.74 676.88 371.83 C 674.73 372.74 672.33 372.49 670.07 372.54 C 643.70 371.66 617.32 372.11 590.95 372.00 C 583.32 372.28 575.68 372.16 568.05 372.51 C 565.75 372.51 563.40 372.72 561.15 372.14 C 556.68 370.63 554.05 365.08 555.89 360.70 C 556.85 358.19 559.28 356.68 561.73 355.90 C 569.80 353.29 578.16 350.96 585.32 346.25 C 592.12 341.47 594.19 332.77 595.03 324.97 C 597.05 305.35 596.79 285.59 597.08 265.89 C 597.84 212.90 597.44 159.89 596.89 106.90 C 596.48 95.87 597.31 84.36 593.21 73.88 C 589.03 64.11 578.29 60.27 569.09 56.79 C 564.42 54.90 558.14 54.34 555.81 49.17 C 553.64 45.14 555.84 39.64 560.23 38.29 Z" fill="#232425" opacity="1.00"/>
<path d="M 1736.41 122.71 C 1740.36 121.65 1745.75 122.27 1747.72 126.39 C 1750.32 131.51 1748.73 137.51 1750.42 142.87 C 1751.75 147.33 1755.35 151.42 1760.12 152.17 C 1765.37 153.20 1770.57 150.77 1774.82 147.87 C 1781.73 143.03 1788.70 138.25 1796.00 134.00 C 1808.64 126.62 1823.27 121.26 1838.12 123.11 C 1846.56 123.81 1855.52 127.54 1859.60 135.41 C 1863.98 144.14 1864.54 155.50 1858.72 163.73 C 1854.02 170.42 1846.48 175.72 1838.07 175.76 C 1829.61 175.82 1821.78 171.76 1815.00 167.05 C 1808.96 162.77 1802.41 158.91 1795.10 157.36 C 1788.50 155.84 1781.38 157.13 1775.65 160.68 C 1767.83 165.51 1762.31 173.24 1758.20 181.30 C 1751.39 194.76 1749.55 210.09 1749.27 224.99 C 1748.89 254.32 1748.64 283.68 1750.00 312.98 C 1750.87 322.18 1750.69 332.15 1755.76 340.25 C 1759.74 346.57 1767.25 348.96 1774.03 351.01 C 1781.17 353.24 1788.53 354.62 1795.81 356.31 C 1798.94 356.97 1801.90 359.54 1802.03 362.91 C 1802.48 366.83 1799.48 370.63 1795.69 371.43 C 1793.47 371.87 1791.20 371.78 1788.98 371.76 C 1774.35 371.11 1759.69 371.87 1745.06 371.27 C 1734.35 371.28 1723.65 371.08 1712.96 371.49 C 1702.63 371.61 1692.30 371.27 1681.99 371.76 C 1679.07 371.89 1675.76 371.57 1673.78 369.17 C 1670.46 365.90 1671.19 359.55 1675.39 357.38 C 1679.48 355.41 1684.09 354.88 1688.33 353.27 C 1694.39 351.08 1701.14 348.43 1704.23 342.31 C 1708.66 333.86 1708.37 323.99 1709.17 314.72 C 1710.35 285.16 1710.86 255.56 1710.19 225.98 C 1709.82 215.71 1710.09 205.12 1706.49 195.33 C 1701.28 180.00 1684.70 170.35 1668.89 170.99 C 1659.24 171.15 1649.68 177.59 1647.01 187.05 C 1644.04 197.19 1647.29 207.71 1646.51 218.02 C 1645.03 250.56 1623.88 280.42 1595.41 295.42 C 1575.48 305.89 1552.26 309.38 1529.99 306.98 C 1516.71 305.60 1503.34 303.94 1489.98 305.04 C 1484.79 305.60 1478.93 307.45 1476.39 312.43 C 1473.31 318.64 1474.90 326.07 1477.78 332.06 C 1482.09 340.94 1491.17 346.54 1500.55 348.71 C 1507.55 350.46 1514.82 349.94 1521.98 350.00 C 1540.98 350.00 1559.99 350.00 1578.99 350.00 C 1597.28 349.90 1616.06 349.46 1633.60 355.48 C 1644.58 359.13 1655.03 365.64 1661.54 375.42 C 1670.55 388.70 1672.18 405.76 1669.18 421.21 C 1665.33 440.43 1653.32 457.10 1638.68 469.71 C 1615.18 489.59 1585.32 500.90 1555.10 505.36 C 1528.10 509.09 1500.29 508.65 1473.73 502.18 C 1457.96 498.28 1442.42 490.84 1431.77 478.27 C 1419.92 464.65 1417.25 444.11 1424.75 427.76 C 1430.36 415.16 1441.14 405.60 1453.08 399.08 C 1457.20 396.89 1461.25 392.97 1461.04 387.94 C 1461.00 382.70 1456.50 379.23 1453.18 375.79 C 1441.55 364.26 1436.13 346.78 1439.83 330.75 C 1441.97 320.93 1447.58 311.72 1455.99 306.05 C 1460.26 302.81 1465.47 300.97 1469.49 297.39 C 1472.19 294.95 1469.69 291.18 1467.73 289.15 C 1462.50 284.08 1456.36 280.02 1451.37 274.68 C 1438.07 260.88 1430.87 242.04 1429.24 223.13 C 1427.29 202.39 1431.63 180.72 1443.25 163.24 C 1451.12 151.23 1462.65 141.98 1475.35 135.47 C 1493.96 125.84 1515.20 122.28 1536.01 122.49 C 1556.03 122.21 1576.50 124.79 1594.90 133.09 C 1602.50 136.41 1609.60 140.81 1616.24 145.77 C 1623.78 151.32 1632.58 155.57 1642.02 156.32 C 1653.68 157.37 1665.08 153.77 1675.89 149.82 C 1693.03 143.21 1709.53 135.09 1726.10 127.17 C 1729.48 125.59 1732.77 123.69 1736.41 122.71 M 1529.19 133.14 C 1519.13 134.53 1509.56 139.22 1502.40 146.43 C 1488.42 159.75 1482.16 179.09 1479.81 197.81 C 1477.57 218.99 1479.40 241.13 1488.35 260.67 C 1493.97 273.11 1503.03 284.34 1515.15 290.91 C 1527.59 297.61 1542.83 298.54 1556.20 294.21 C 1571.54 289.00 1582.88 275.81 1589.27 261.30 C 1598.04 241.05 1599.86 218.25 1596.84 196.53 C 1594.06 177.98 1586.90 159.19 1572.78 146.30 C 1561.27 135.49 1544.75 130.62 1529.19 133.14 M 1492.54 392.76 C 1482.75 394.35 1472.67 397.38 1465.19 404.19 C 1457.63 411.23 1455.05 422.00 1455.21 432.00 C 1455.08 443.08 1458.77 454.38 1466.42 462.54 C 1475.29 472.33 1487.94 477.62 1500.58 480.54 C 1515.45 483.97 1530.79 484.95 1546.01 484.75 C 1560.40 484.92 1574.92 484.33 1589.00 481.12 C 1602.47 478.04 1616.10 471.81 1624.28 460.23 C 1633.90 446.22 1635.25 426.39 1626.33 411.73 C 1621.69 404.28 1614.03 399.18 1605.83 396.39 C 1593.72 392.07 1580.71 391.70 1568.00 391.50 C 1553.66 391.50 1539.33 391.50 1524.99 391.50 C 1514.16 391.54 1503.27 391.15 1492.54 392.76 Z" fill="#232425" opacity="1.00"/>
<path d="M 2116.23 125.23 C 2120.31 123.14 2124.98 121.48 2129.62 122.48 C 2133.16 123.34 2134.80 127.12 2135.29 130.41 C 2136.13 136.08 2135.19 142.41 2138.68 147.38 C 2141.04 151.16 2145.79 152.83 2150.11 152.19 C 2157.56 151.36 2163.45 146.33 2169.71 142.69 C 2187.70 132.06 2207.91 124.45 2228.93 123.32 C 2245.28 122.53 2262.46 126.20 2275.57 136.44 C 2280.73 140.27 2284.84 145.26 2288.69 150.36 C 2292.26 155.10 2297.81 159.04 2304.02 158.43 C 2311.02 157.64 2317.02 153.54 2322.60 149.53 C 2337.73 138.62 2354.79 130.11 2373.06 126.05 C 2388.45 122.72 2404.84 122.09 2420.00 126.88 C 2436.40 132.16 2450.98 144.33 2457.05 160.73 C 2463.79 177.30 2461.86 195.51 2461.76 212.95 C 2461.82 248.32 2461.39 283.71 2462.73 319.06 C 2463.33 327.01 2463.15 335.51 2467.16 342.67 C 2470.97 349.45 2478.94 351.91 2485.89 354.14 C 2490.92 355.86 2497.75 355.99 2500.00 361.80 L 2500.00 365.83 C 2498.66 369.14 2495.64 371.85 2491.92 371.71 C 2462.60 371.81 2433.28 371.72 2403.96 371.75 C 2399.45 371.64 2394.91 372.13 2390.47 371.45 C 2384.50 370.31 2382.88 361.21 2388.18 358.17 C 2393.70 355.22 2400.12 354.50 2405.74 351.72 C 2410.63 349.67 2415.33 346.43 2417.54 341.43 C 2421.25 333.33 2421.15 324.22 2421.83 315.52 C 2423.30 283.05 2422.57 250.54 2422.75 218.05 C 2422.39 207.93 2423.07 197.61 2420.37 187.73 C 2416.13 170.49 2403.35 155.20 2386.43 149.29 C 2370.98 143.75 2353.54 145.61 2338.94 152.78 C 2327.01 158.77 2315.32 166.77 2308.82 178.79 C 2299.82 195.29 2298.64 214.61 2298.74 233.02 C 2298.34 245.68 2298.55 258.33 2298.49 270.99 C 2298.91 290.63 2298.60 310.34 2300.57 329.92 C 2301.20 336.19 2302.86 342.94 2307.87 347.21 C 2315.14 353.30 2325.03 353.98 2333.46 357.57 C 2339.39 360.80 2337.17 370.43 2330.74 371.44 C 2322.21 372.34 2313.61 371.37 2305.05 371.49 C 2281.37 371.61 2257.67 371.24 2233.99 371.81 C 2230.47 371.71 2226.13 372.29 2223.66 369.19 C 2220.65 366.04 2221.30 360.37 2225.07 358.12 C 2229.22 355.73 2234.10 355.10 2238.53 353.33 C 2244.78 351.01 2251.60 347.87 2254.45 341.38 C 2258.54 332.20 2258.10 321.86 2258.86 312.05 C 2259.85 281.05 2259.94 250.03 2259.50 219.02 C 2259.19 209.08 2259.81 198.99 2257.63 189.21 C 2254.43 173.80 2244.17 160.09 2230.29 152.70 C 2214.00 144.11 2193.84 144.62 2177.27 152.19 C 2164.06 158.30 2151.28 167.32 2144.79 180.76 C 2135.46 198.64 2135.64 219.35 2135.49 238.98 C 2135.66 268.00 2134.86 297.08 2137.10 326.04 C 2137.73 333.53 2138.72 341.97 2144.71 347.26 C 2151.05 352.45 2159.34 354.08 2167.05 356.24 C 2170.04 356.95 2172.92 359.09 2173.55 362.26 C 2174.71 366.86 2170.65 371.66 2166.00 371.70 C 2160.00 371.90 2154.00 371.30 2148.00 371.50 C 2125.83 371.74 2103.56 366.95 2081.48 370.77 C 2069.00 373.06 2057.29 378.40 2044.74 380.38 C 2036.14 381.66 2027.09 381.28 2018.98 377.97 C 2009.98 374.38 2002.72 367.42 1997.51 359.38 C 1994.82 355.52 1992.41 350.82 1987.68 349.17 C 1983.09 347.47 1978.28 349.88 1974.73 352.73 C 1969.77 356.77 1964.97 361.03 1959.57 364.47 C 1943.28 375.31 1923.44 380.50 1903.95 379.63 C 1887.98 378.47 1871.33 372.77 1860.77 360.20 C 1853.67 351.87 1850.42 340.83 1850.24 330.01 C 1849.27 305.92 1858.49 281.63 1875.56 264.55 C 1888.78 250.89 1905.49 241.09 1922.99 233.97 C 1937.99 227.93 1953.73 223.64 1969.75 221.37 C 1975.35 220.48 1981.65 221.06 1986.44 217.45 C 1991.26 213.96 1992.98 207.82 1993.72 202.20 C 1995.01 191.38 1993.89 180.18 1990.03 169.97 C 1986.28 159.94 1977.97 151.95 1968.17 147.87 C 1959.63 144.32 1950.24 143.45 1941.09 143.58 C 1930.26 144.06 1918.90 145.54 1909.63 151.59 C 1903.92 155.20 1899.68 161.22 1898.88 168.00 C 1897.60 179.58 1901.24 191.35 1898.50 202.83 C 1896.99 209.74 1892.41 215.83 1886.17 219.16 C 1877.59 224.37 1865.32 223.08 1858.57 215.47 C 1853.71 209.88 1853.58 201.80 1854.83 194.88 C 1857.24 183.67 1864.29 174.20 1871.88 165.90 C 1882.94 153.93 1896.40 144.37 1910.82 136.87 C 1924.84 129.59 1940.11 124.33 1955.94 123.11 C 1971.64 121.76 1987.88 124.61 2001.74 132.29 C 2016.89 140.67 2027.76 155.98 2031.53 172.80 C 2034.96 186.95 2033.45 201.60 2033.49 216.00 C 2033.79 238.66 2032.79 261.32 2033.50 283.97 C 2033.52 293.31 2033.56 302.66 2033.28 312.00 C 2033.53 323.35 2034.39 335.48 2040.87 345.20 C 2045.13 351.76 2053.22 355.14 2060.91 354.42 C 2068.87 353.63 2077.13 351.56 2083.42 346.36 C 2089.25 341.54 2092.25 334.20 2093.79 326.97 C 2096.31 315.50 2095.49 303.69 2095.96 292.05 C 2096.18 264.36 2096.64 236.66 2095.86 208.98 C 2095.21 198.55 2094.73 186.79 2087.22 178.69 C 2080.78 172.27 2072.18 168.82 2064.27 164.62 C 2061.42 163.19 2058.95 160.38 2059.20 157.02 C 2059.26 153.65 2062.05 151.22 2064.95 150.00 C 2082.26 142.21 2099.28 133.79 2116.23 125.23 M 1968.56 234.78 C 1945.51 238.32 1922.40 248.00 1906.92 265.98 C 1893.88 280.90 1888.30 301.77 1891.67 321.25 C 1893.27 330.72 1896.63 340.49 1903.93 347.12 C 1910.61 353.33 1920.07 355.65 1929.02 355.22 C 1943.12 354.39 1956.99 349.06 1967.70 339.78 C 1975.60 333.70 1982.96 326.48 1987.30 317.37 C 1995.11 301.07 1993.97 282.55 1994.51 264.97 C 1994.53 256.44 1994.94 246.79 1989.24 239.77 C 1984.20 233.92 1975.62 233.63 1968.56 234.78 Z" fill="#232425" opacity="1.00"/>
<path d="M 1048.55 123.79 C 1074.90 120.74 1102.86 126.55 1124.21 142.76 C 1135.32 151.07 1144.23 162.21 1150.22 174.70 C 1157.11 189.35 1159.59 205.93 1158.17 222.00 C 1157.56 227.34 1152.00 230.08 1147.12 229.96 C 1101.76 230.05 1056.39 229.97 1011.03 230.00 C 1004.66 230.15 997.55 229.03 991.99 232.89 C 986.27 236.90 984.96 244.54 985.35 251.06 C 986.61 268.18 989.78 285.38 996.87 301.11 C 1003.04 314.62 1011.97 327.15 1024.01 336.02 C 1048.46 354.06 1082.56 355.93 1110.04 343.93 C 1121.74 338.83 1132.32 331.31 1141.29 322.25 C 1142.80 320.75 1144.23 319.13 1146.05 317.99 C 1148.76 316.34 1152.93 316.52 1154.72 319.44 C 1156.10 321.90 1155.34 324.84 1154.12 327.20 C 1146.78 340.79 1136.41 352.91 1123.40 361.37 C 1111.54 369.44 1097.96 374.81 1083.86 377.32 C 1052.49 383.28 1018.18 378.77 991.44 360.55 C 966.86 344.37 950.42 317.66 943.96 289.22 C 938.98 266.85 938.58 243.38 943.26 220.93 C 949.30 192.00 965.86 165.32 989.39 147.41 C 1006.55 134.48 1027.16 126.07 1048.55 123.79 M 1046.56 137.73 C 1032.93 139.86 1019.93 146.27 1010.34 156.24 C 998.50 167.94 991.52 183.79 988.51 200.00 C 987.77 204.34 988.36 209.20 991.34 212.63 C 994.19 215.92 998.75 217.02 1002.96 217.00 C 1033.97 217.00 1064.99 217.01 1096.01 216.99 C 1101.42 217.10 1107.41 215.08 1110.17 210.11 C 1114.21 203.10 1112.59 194.70 1111.47 187.13 C 1108.94 171.26 1100.72 155.90 1087.37 146.59 C 1075.55 138.62 1060.62 135.45 1046.56 137.73 Z" fill="#232425" opacity="1.00"/>
<path d="M 1278.54 123.78 C 1297.98 121.58 1317.97 123.02 1336.64 129.07 C 1355.04 135.03 1371.98 145.59 1385.28 159.66 C 1396.57 171.44 1405.10 185.72 1410.85 200.96 C 1418.67 221.97 1420.82 244.84 1418.67 267.07 C 1415.90 297.42 1402.45 327.08 1379.88 347.79 C 1364.58 361.83 1345.55 371.73 1325.31 376.33 C 1303.24 381.26 1279.93 380.97 1258.05 375.19 C 1229.18 367.53 1203.33 348.56 1188.12 322.76 C 1177.49 305.35 1171.57 285.28 1169.99 265.00 C 1168.31 243.79 1170.50 222.07 1178.03 202.09 C 1184.61 184.60 1195.03 168.48 1208.71 155.70 C 1227.71 137.87 1252.67 126.70 1278.54 123.78 M 1279.43 137.55 C 1260.59 140.69 1244.34 153.52 1234.62 169.66 C 1223.62 187.41 1218.54 208.25 1217.46 228.96 C 1216.57 249.19 1217.92 269.64 1222.88 289.32 C 1226.90 305.20 1233.62 320.50 1243.23 333.81 C 1253.24 347.72 1267.51 358.98 1284.15 363.67 C 1300.22 368.26 1318.19 365.40 1332.02 355.99 C 1346.80 346.49 1356.63 331.06 1362.83 314.92 C 1371.10 293.37 1372.65 269.85 1371.24 247.01 C 1369.96 226.50 1365.88 205.89 1356.87 187.30 C 1349.58 172.24 1339.41 158.11 1325.39 148.67 C 1312.17 139.44 1295.47 134.71 1279.43 137.55 Z" fill="#232425" opacity="1.00"/>
</g>
</svg>