<?xml version="1.0" encoding="utf-8"?>
<svg xmlns="http://www.w3.org/2000/svg" height="439pt" version="1.1" viewBox="0 0 2531 439" width="2531pt">
<g id="#000000ff">
<path d="M 1791.68 0.00 L 1793.25 0.00 C 1793.24 34.41 1793.27 68.83 1793.24 103.24 C 1767.24 103.26 1741.25 103.26 1715.25 103.24 C 1715.23 72.97 1715.25 42.70 1715.24 12.42 C 1740.71 8.21 1766.23 4.31 1791.68 0.00 Z" fill="#000000" opacity="1.00"/>
<path d="M 234.85 38.90 C 247.12 33.44 260.66 31.07 274.05 31.50 C 288.34 31.49 302.62 31.51 316.90 31.49 C 321.36 50.68 326.01 69.83 330.39 89.05 C 272.08 100.63 214.46 116.73 159.83 140.38 C 169.17 121.57 178.69 102.85 188.18 84.11 C 198.83 64.97 214.54 47.84 234.85 38.90 Z" fill="#000000" opacity="1.00"/>
<path d="M 410.03 90.03 C 435.04 87.78 460.20 86.57 485.31 87.54 C 487.52 95.17 491.35 102.27 496.48 108.32 C 443.37 105.40 390.14 111.36 338.02 121.36 C 352.73 184.15 367.45 246.93 382.29 309.68 C 392.99 306.36 403.62 302.82 414.19 299.10 C 416.75 298.68 417.02 295.82 417.89 293.88 C 433.56 251.93 449.40 210.05 465.12 168.12 C 467.73 161.07 471.41 154.13 477.32 149.29 C 487.38 141.02 501.20 137.68 513.99 139.95 C 520.83 141.17 527.89 142.37 533.88 146.13 C 545.98 153.15 553.38 167.17 552.76 181.09 C 552.68 190.57 547.96 199.03 544.77 207.71 C 539.69 220.30 534.82 232.97 529.64 245.52 C 549.96 232.85 569.70 218.69 585.73 200.75 C 594.40 190.73 602.61 179.39 605.03 166.09 C 606.91 156.68 603.43 146.85 596.97 139.94 C 588.07 130.37 575.91 124.66 563.77 120.35 C 570.56 116.38 576.54 111.13 581.23 104.80 C 596.77 111.53 612.07 121.35 620.41 136.58 C 627.78 149.54 628.25 165.64 623.37 179.56 C 617.66 196.12 606.48 210.11 594.22 222.36 C 572.02 243.96 545.78 260.90 518.78 275.86 C 517.34 276.46 516.83 277.96 516.27 279.28 C 499.80 320.79 483.27 362.28 466.76 403.78 C 465.05 408.24 463.31 412.74 460.76 416.80 C 452.86 429.69 438.58 438.86 423.25 439.00 L 364.62 439.00 C 343.43 438.62 324.76 424.07 315.25 405.77 C 308.20 393.09 307.59 378.32 304.71 364.41 C 333.57 358.88 362.19 351.90 390.11 342.68 C 391.33 347.79 392.56 352.89 393.73 358.02 C 398.01 346.68 402.22 335.32 406.56 324.01 C 357.88 340.60 307.62 352.47 256.73 359.88 C 218.09 365.42 178.99 368.57 139.94 367.19 C 133.96 379.52 128.17 391.94 122.22 404.29 C 115.22 417.35 104.41 429.05 90.28 434.31 C 81.63 437.76 72.20 438.04 63.02 438.01 C 46.11 437.97 29.21 438.04 12.31 437.98 C 26.30 409.84 40.05 381.58 53.63 353.23 C 36.92 347.07 20.13 338.30 9.51 323.50 C 3.96 315.89 0.69 306.71 0.00 297.32 L 0.00 290.49 C 1.12 275.55 8.07 261.73 16.92 249.90 C 29.90 232.64 46.62 218.63 64.05 206.05 C 97.50 182.32 134.47 163.97 172.32 148.38 C 248.19 117.66 328.52 97.79 410.03 90.03 M 246.29 144.47 C 245.16 145.74 244.60 147.40 243.84 148.90 C 212.45 214.95 180.92 280.95 149.54 347.00 C 199.70 347.75 249.75 341.36 298.80 331.20 C 294.64 308.18 290.96 285.08 285.80 262.26 C 277.15 221.61 268.74 180.90 259.93 140.29 C 255.40 141.73 250.77 142.85 246.29 144.47 M 79.04 220.91 C 63.96 231.55 49.47 243.34 37.68 257.63 C 30.22 266.83 23.37 277.23 21.43 289.14 C 19.96 297.33 22.50 305.93 27.65 312.39 C 36.45 323.43 49.68 329.67 62.68 334.33 C 74.28 310.74 85.89 287.16 97.87 263.76 C 110.58 238.32 123.26 212.87 136.17 187.53 C 116.45 197.42 97.14 208.25 79.04 220.91 Z" fill="#000000" opacity="1.00"/>
<path d="M 1049.98 151.05 C 1074.70 130.90 1107.26 121.15 1138.98 122.97 C 1157.83 123.70 1176.76 127.72 1193.66 136.26 C 1210.50 144.76 1225.02 157.79 1235.30 173.60 C 1246.51 190.94 1252.50 211.18 1255.24 231.52 C 1258.05 251.82 1257.65 272.42 1255.68 292.77 C 1197.00 292.74 1138.32 292.74 1079.65 292.77 C 1081.03 306.27 1087.66 319.19 1098.30 327.70 C 1113.69 340.62 1134.41 344.47 1153.98 344.75 C 1180.05 344.53 1206.41 340.80 1230.75 331.15 C 1234.17 352.23 1237.66 373.29 1241.20 394.34 C 1224.45 402.15 1206.04 405.56 1187.88 408.29 C 1163.63 411.80 1138.86 412.94 1114.53 409.57 C 1087.93 405.91 1061.92 395.26 1041.73 377.35 C 1027.21 364.47 1016.26 347.76 1009.67 329.54 C 999.55 301.39 997.73 270.74 1001.55 241.23 C 1006.17 206.76 1022.78 173.19 1049.98 151.05 M 1098.25 199.17 C 1086.71 209.35 1082.26 224.85 1079.70 239.48 C 1113.82 239.51 1147.94 239.50 1182.07 239.49 C 1181.20 229.08 1179.20 218.41 1173.72 209.36 C 1166.30 196.88 1152.64 188.20 1138.08 187.38 C 1123.95 185.93 1108.88 189.35 1098.25 199.17 Z" fill="#000000" opacity="1.00"/>
<path d="M 1852.35 135.77 C 1875.31 128.99 1899.12 125.55 1922.94 123.55 C 1944.30 122.06 1965.96 122.48 1987.00 126.78 C 2006.25 130.92 2025.35 139.34 2038.79 154.14 C 2050.46 166.74 2057.01 183.23 2059.92 199.97 C 2063.97 220.06 2062.85 240.62 2063.00 260.98 C 2062.98 306.15 2063.04 351.32 2062.97 396.49 C 2038.20 401.49 2013.33 406.48 1988.12 408.48 C 1966.54 409.97 1944.84 410.76 1923.26 409.22 C 1902.30 407.46 1880.82 403.50 1862.68 392.29 C 1850.54 385.05 1840.65 374.13 1834.76 361.28 C 1829.24 349.65 1827.28 336.69 1826.83 323.93 C 1826.23 306.97 1829.23 289.23 1838.95 274.97 C 1848.61 259.97 1864.04 249.62 1880.59 243.56 C 1898.61 236.87 1917.92 234.44 1937.04 233.77 C 1954.18 233.56 1971.51 234.18 1988.23 238.27 C 1988.40 230.25 1988.37 222.02 1985.58 214.38 C 1982.44 205.48 1976.07 197.45 1967.40 193.44 C 1959.16 189.57 1949.99 188.22 1940.98 187.78 C 1914.40 187.25 1887.43 189.90 1862.18 198.57 C 1859.00 177.62 1855.48 156.72 1852.35 135.77 M 1932.04 288.16 C 1923.36 289.97 1914.53 293.73 1909.13 301.06 C 1903.81 307.95 1903.52 317.25 1904.80 325.51 C 1905.96 332.53 1909.91 339.28 1916.26 342.79 C 1926.44 348.61 1938.47 349.73 1949.97 349.91 C 1962.73 349.65 1975.56 349.71 1988.22 347.83 C 1988.25 328.26 1988.28 308.69 1988.21 289.12 C 1969.70 285.81 1950.61 284.76 1932.04 288.16 Z" fill="#000000" opacity="1.00"/>
<path d="M 2371.17 125.50 C 2388.02 123.38 2405.05 122.19 2422.04 123.03 C 2437.63 123.65 2453.31 125.62 2468.17 130.59 C 2480.95 134.98 2493.29 141.45 2502.94 151.05 C 2513.08 160.83 2520.16 173.54 2524.05 187.02 C 2531.88 213.31 2530.04 240.98 2530.25 268.05 C 2530.26 310.84 2530.23 353.64 2530.27 396.44 C 2500.84 402.48 2471.19 408.24 2441.09 409.37 C 2410.75 410.61 2379.57 411.15 2350.33 401.74 C 2334.67 396.52 2319.75 387.66 2309.75 374.28 C 2300.24 361.92 2295.58 346.46 2294.43 331.06 C 2293.04 314.23 2294.45 296.56 2302.34 281.35 C 2308.72 269.35 2318.29 259.02 2330.03 252.11 C 2343.42 243.96 2358.63 239.24 2374.04 236.70 C 2392.50 233.48 2411.36 233.11 2430.02 234.43 C 2438.59 235.05 2447.13 236.22 2455.48 238.31 C 2455.74 228.73 2455.34 218.71 2450.90 210.00 C 2447.15 202.16 2440.59 195.66 2432.45 192.49 C 2419.36 187.15 2404.95 187.56 2391.08 187.84 C 2370.24 188.91 2349.19 191.50 2329.48 198.65 C 2326.02 177.74 2322.84 156.78 2319.47 135.86 C 2336.31 130.72 2353.71 127.63 2371.17 125.50 M 2401.06 287.83 C 2394.17 289.09 2387.25 291.32 2381.65 295.64 C 2376.00 299.83 2372.21 306.43 2371.57 313.45 C 2370.80 320.88 2371.69 328.87 2375.66 335.35 C 2379.00 340.79 2384.83 344.07 2390.72 346.10 C 2401.07 349.65 2412.18 350.18 2423.03 349.76 C 2433.85 349.77 2444.70 349.29 2455.43 347.86 C 2455.57 328.29 2455.47 308.72 2455.49 289.14 C 2437.56 285.91 2419.09 284.84 2401.06 287.83 Z" fill="#000000" opacity="1.00"/>
<path d="M 780.98 128.31 C 802.50 125.05 824.29 123.80 846.04 123.79 C 865.47 124.16 885.28 126.15 903.41 133.60 C 918.99 139.92 933.28 150.19 942.70 164.29 C 953.62 179.73 958.83 198.38 961.38 216.92 C 964.58 238.49 963.21 260.34 963.50 282.06 C 963.47 322.80 963.57 363.53 963.45 404.27 C 937.55 404.22 911.65 404.27 885.76 404.24 C 885.73 355.15 885.76 306.05 885.74 256.95 C 885.13 240.18 884.71 222.47 876.63 207.31 C 870.89 196.53 858.47 191.56 846.85 190.62 C 832.80 189.52 818.69 191.09 804.76 192.84 C 804.76 263.31 804.74 333.77 804.77 404.24 C 778.76 404.26 752.76 404.25 726.76 404.24 C 726.73 316.01 726.77 227.78 726.73 139.55 C 744.47 134.33 762.74 131.21 780.98 128.31 Z" fill="#000000" opacity="1.00"/>
<path d="M 1641.83 125.48 C 1659.55 123.48 1677.84 123.81 1695.06 128.87 C 1701.37 130.67 1707.56 132.89 1713.59 135.50 C 1715.88 136.67 1718.51 136.16 1721.00 136.26 C 1745.08 136.24 1769.16 136.25 1793.24 136.25 C 1793.28 222.63 1793.21 309.00 1793.28 395.38 C 1771.73 401.83 1749.45 405.51 1727.14 408.13 C 1706.18 410.50 1685.00 411.97 1663.93 410.41 C 1644.16 408.83 1624.45 404.17 1606.73 395.13 C 1591.38 387.52 1577.70 376.52 1567.16 363.01 C 1555.19 347.85 1547.26 329.78 1542.84 311.04 C 1537.67 288.76 1537.26 265.60 1539.61 242.92 C 1541.61 224.39 1546.12 206.00 1554.08 189.10 C 1560.96 174.35 1570.64 160.75 1583.12 150.21 C 1599.54 136.16 1620.47 127.98 1641.83 125.48 M 1647.63 195.43 C 1638.21 199.94 1630.87 208.06 1626.42 217.42 C 1618.69 233.72 1617.46 252.18 1617.77 269.96 C 1618.34 289.99 1623.36 310.88 1636.70 326.38 C 1646.84 338.35 1662.62 344.18 1678.02 344.60 C 1690.45 344.92 1702.94 344.07 1715.23 342.11 C 1715.27 295.09 1715.22 248.07 1715.26 201.05 C 1705.59 195.30 1694.51 192.31 1683.42 190.88 C 1671.40 189.45 1658.69 190.12 1647.63 195.43 Z" fill="#000000" opacity="1.00"/>
<path d="M 1266.73 130.01 C 1294.80 129.99 1322.87 130.01 1350.94 130.00 C 1368.91 155.55 1386.82 181.14 1404.77 206.70 C 1422.93 181.15 1441.02 155.55 1459.19 129.99 C 1486.03 130.03 1512.88 129.96 1539.73 130.03 C 1508.08 174.55 1476.29 218.97 1444.57 263.44 C 1469.96 292.48 1493.41 323.24 1514.38 355.64 C 1524.64 371.45 1534.56 387.52 1543.28 404.24 C 1515.43 404.27 1487.58 404.23 1459.73 404.27 C 1450.38 387.13 1441.64 369.60 1430.74 353.36 C 1422.94 341.69 1412.69 331.95 1402.29 322.63 C 1396.04 327.93 1390.13 333.59 1384.43 339.47 C 1378.41 345.95 1373.49 353.35 1369.04 360.96 C 1360.54 375.29 1351.86 389.53 1344.05 404.25 C 1317.61 404.24 1291.17 404.26 1264.73 404.24 C 1272.82 388.51 1282.00 373.37 1291.38 358.38 C 1303.04 339.98 1315.27 321.91 1329.03 305.01 C 1339.85 291.78 1351.01 278.83 1362.56 266.24 C 1330.65 220.81 1298.60 175.47 1266.73 130.01 Z" fill="#000000" opacity="1.00"/>
<path d="M 2109.47 136.29 C 2166.56 136.19 2223.65 136.27 2280.75 136.25 C 2280.76 155.83 2280.74 175.41 2280.75 194.99 C 2249.67 195.02 2218.59 194.99 2187.51 195.00 C 2187.49 221.66 2187.50 248.32 2187.50 274.97 C 2187.57 289.85 2186.57 305.15 2191.36 319.49 C 2193.75 326.87 2197.45 334.46 2204.36 338.59 C 2213.72 344.39 2225.24 345.04 2235.96 344.54 C 2251.19 343.87 2266.38 341.07 2280.69 335.75 C 2284.36 355.99 2288.01 376.23 2291.68 396.47 C 2273.59 403.66 2254.53 408.95 2235.01 410.02 C 2216.53 411.08 2197.75 410.84 2179.65 406.55 C 2160.54 401.93 2142.22 391.73 2130.30 375.81 C 2121.31 364.08 2116.09 349.87 2113.45 335.42 C 2108.71 311.94 2109.58 287.87 2109.50 264.05 C 2109.48 221.46 2109.54 178.88 2109.47 136.29 Z" fill="#000000" opacity="1.00"/>
</g>
<g id="#0677ffff">
<path d="M 2144.53 10.75 C 2161.54 8.05 2179.94 14.94 2190.09 29.05 C 2197.50 39.26 2198.77 52.55 2197.31 64.74 C 2195.97 74.86 2190.97 84.53 2183.01 91.00 C 2169.24 103.04 2148.42 105.43 2131.88 98.07 C 2122.82 93.87 2114.82 86.90 2110.42 77.84 C 2106.23 69.17 2105.38 59.25 2106.28 49.76 C 2107.16 40.48 2110.81 31.23 2117.50 24.59 C 2124.63 17.14 2134.30 12.14 2144.53 10.75 Z" fill="#0677ff" opacity="1.00"/>
<path d="M 526.48 31.68 C 536.58 29.08 547.63 30.24 556.90 35.06 C 568.31 40.93 576.85 52.18 579.15 64.84 C 583.19 83.67 572.58 104.23 554.93 111.88 C 545.13 116.33 533.63 116.91 523.46 113.38 C 510.93 109.28 500.69 98.90 496.71 86.34 C 492.33 73.27 494.81 58.11 503.23 47.18 C 508.94 39.58 517.28 34.04 526.48 31.68 Z" fill="#0677ff" opacity="1.00"/>
</g>
</svg>