<?xml version="1.0" encoding="utf-8"?>
<svg xmlns="http://www.w3.org/2000/svg" height="235pt" version="1.1" viewBox="0 0 654 235" width="654pt">
<g id="#003366ff">
<path d="M 96.55 77.39 C 116.98 70.50 140.01 72.73 159.21 82.31 C 160.65 80.96 160.57 79.01 160.64 77.19 C 164.27 77.20 167.90 77.20 171.53 77.21 C 171.53 86.13 171.52 95.06 171.54 103.99 C 168.28 104.00 165.03 104.00 161.77 104.00 C 160.31 98.33 156.46 93.37 151.07 90.95 C 139.01 85.12 125.03 83.93 111.89 85.92 C 107.13 86.81 101.95 87.86 98.42 91.44 C 96.07 93.77 95.93 98.26 98.90 100.16 C 102.18 102.24 106.24 102.30 109.97 102.93 C 124.20 104.62 138.55 105.68 152.58 108.71 C 159.27 110.42 166.14 112.91 171.05 117.99 C 177.49 124.85 179.12 136.06 174.13 144.19 C 170.62 149.86 164.51 153.23 158.48 155.65 C 141.99 161.76 123.62 161.96 106.76 157.21 C 101.71 156.00 96.99 153.81 92.06 152.25 C 89.48 152.75 90.80 156.23 90.42 158.13 C 86.36 158.13 82.30 158.13 78.24 158.13 C 78.23 147.86 78.23 137.60 78.24 127.33 C 81.85 127.33 85.46 127.33 89.08 127.33 C 89.48 136.20 97.32 142.26 105.10 144.90 C 117.73 149.07 131.59 150.88 144.60 147.37 C 147.67 146.45 150.92 145.55 153.40 143.42 C 156.77 140.54 156.93 134.45 153.14 131.86 C 149.46 129.57 144.99 129.25 140.82 128.55 C 126.62 126.76 112.27 125.78 98.24 122.81 C 91.88 121.42 85.60 118.69 81.11 113.86 C 75.16 107.22 73.88 96.44 79.02 88.97 C 83.13 83.01 89.90 79.69 96.55 77.39 Z" fill="#003366" opacity="1.00"/>
<path d="M 249.33 73.47 C 265.47 72.66 282.60 75.42 295.84 85.26 C 302.74 90.15 308.25 97.14 310.73 105.29 C 315.16 118.98 311.28 134.93 301.02 145.03 C 291.84 153.92 279.33 158.53 266.87 160.40 C 250.60 162.70 233.36 160.90 218.63 153.29 C 210.17 148.89 202.50 142.24 198.63 133.36 C 193.00 120.93 194.42 105.52 202.62 94.55 C 206.82 88.67 212.80 84.32 219.24 81.17 C 228.61 76.57 238.94 74.16 249.33 73.47 M 245.46 85.70 C 237.59 87.44 230.04 91.78 225.55 98.61 C 218.18 109.68 218.28 125.22 225.77 136.20 C 237.96 153.47 266.69 154.29 280.36 138.39 C 291.72 125.27 289.94 102.54 275.98 91.91 C 267.41 85.40 255.88 83.45 245.46 85.70 Z" fill="#003366" opacity="1.00"/>
<path d="M 324.58 78.28 C 337.40 78.25 350.22 78.28 363.04 78.26 C 380.98 94.40 398.87 110.58 416.79 126.74 C 416.62 115.84 416.44 104.95 416.24 94.06 C 416.15 92.00 416.09 89.07 413.66 88.39 C 409.38 87.60 404.98 88.15 400.65 88.00 C 400.64 84.76 400.64 81.52 400.66 78.28 C 415.99 78.25 431.32 78.27 446.65 78.27 C 446.64 81.51 446.64 84.76 446.65 88.00 C 442.46 88.11 438.22 87.67 434.06 88.32 C 431.54 88.92 431.78 92.01 431.69 94.02 C 431.95 114.83 432.24 135.65 432.53 156.46 C 427.27 156.47 422.01 156.46 416.76 156.47 C 396.13 138.08 375.53 119.66 354.90 101.27 C 354.87 114.54 354.87 127.81 354.89 141.08 C 354.96 143.02 354.91 145.98 357.37 146.45 C 361.74 147.07 366.18 146.60 370.58 146.73 C 370.59 149.97 370.59 153.22 370.58 156.46 C 355.53 156.47 340.47 156.47 325.42 156.46 C 325.41 153.22 325.41 149.97 325.42 146.73 C 329.46 146.60 333.56 147.08 337.58 146.45 C 339.67 145.62 339.68 143.00 339.75 141.11 C 339.78 125.72 339.75 110.33 339.77 94.94 C 339.89 92.43 339.27 89.21 336.44 88.49 C 332.56 87.61 328.53 88.12 324.59 88.00 C 324.58 84.76 324.59 81.52 324.58 78.28 Z" fill="#003366" opacity="1.00"/>
<path d="M 456.12 78.27 C 474.08 78.27 492.04 78.27 509.99 78.27 C 510.00 81.51 510.00 84.75 510.00 87.99 C 507.35 88.54 502.61 86.51 501.62 89.83 C 507.67 97.93 514.54 105.42 520.91 113.28 C 527.50 105.44 534.34 97.82 540.73 89.82 C 538.69 86.79 534.68 88.36 531.65 87.99 C 531.64 84.75 531.64 81.51 531.65 78.28 C 546.37 78.26 561.09 78.27 575.82 78.27 C 575.82 81.51 575.82 84.76 575.82 88.00 C 571.84 88.06 567.85 87.81 563.88 88.16 C 561.11 88.30 559.27 90.59 557.54 92.46 C 547.74 103.66 537.91 114.83 528.13 126.05 C 528.19 132.01 527.95 137.99 528.22 143.95 C 528.22 145.45 529.73 146.57 531.16 146.58 C 535.17 146.91 539.20 146.67 543.23 146.74 C 543.23 149.98 543.23 153.22 543.23 156.46 C 525.35 156.47 507.47 156.47 489.59 156.46 C 489.58 153.22 489.58 149.98 489.59 146.74 C 493.83 146.61 498.13 147.09 502.32 146.35 C 505.50 144.47 503.72 140.04 504.18 137.01 C 503.64 132.68 505.77 127.28 502.04 123.96 C 492.78 113.54 483.64 103.01 474.37 92.60 C 472.43 90.49 470.04 88.47 467.07 88.17 C 463.43 87.81 459.77 88.04 456.12 88.00 C 456.11 84.76 456.11 81.51 456.12 78.27 Z" fill="#003366" opacity="1.00"/>
</g>
</svg>