<?xml version="1.0" encoding="utf-8"?>
<svg xmlns="http://www.w3.org/2000/svg" height="100%" style="fill-rule:evenodd;clip-rule:evenodd;stroke-linejoin:round;stroke-miterlimit:2;" version="1.1" viewBox="0 0 1167 374" width="100%">
  <rect height="373.05" id="Artboard2" style="fill:none;" width="1166.67" x="0" y="0"/>
  <clipPath id="_clip1">
    <rect height="373.05" width="1166.67" x="0" y="0"/>
  </clipPath>
  <g clip-path="url(#_clip1)">
    <rect height="364.099" id="Artboard1" style="fill:none;" width="967.751" x="95.351" y="18"/>
    <g id="_-ab1e2eff">
      <path d="M219.263,83.953c0.82,-1.02 2.06,-1.39 3.33,-1.24c52.72,0.05 105.44,-0.02 158.16,0.03c-19.84,19.71 -39.51,39.59 -59.37,59.27c-9.82,-0.08 -19.64,0 -29.45,-0.05c-0.09,59.17 -0.02,118.34 -0.04,177.51l-59.51,0c-0.02,-59.17 0.05,-118.34 -0.03,-177.52c-23.57,0.06 -47.14,0 -70.71,0.03l0,-1.56l0.01,1.14c19.22,-19.19 38.42,-38.4 57.61,-57.61Z" style="fill:#ab1e2e;fill-rule:nonzero;"/>
      <path d="M391.463,100.263c10.93,-11.2 26.5,-17.83 42.18,-17.55c26.68,0.05 53.37,-0.03 80.05,0.04c25.25,0.86 48.25,20.01 54.23,44.45c2.34,8.22 1.63,16.8 1.72,25.23c-0.01,37.02 0.01,74.04 -0.01,111.07c-0.51,13.03 -5.75,25.75 -14.26,35.6c-9.92,11.66 -24.54,18.97 -39.74,20.37l-87.26,-0c-13.66,-1.37 -26.95,-7.3 -36.57,-17.19c-10.87,-10.6 -17.18,-25.59 -17.41,-40.75c-0.01,-40.02 0,-80.03 0,-120.05c0.03,-15.27 6.24,-30.44 17.07,-41.22m55.37,42.39c-7.81,2 -13.37,9.76 -13.14,17.77c-0.12,25.99 0,51.98 -0.06,77.97c0.02,4.31 0.09,8.89 2.4,12.69c3.01,5.62 9.26,9.14 15.59,9.13c13.35,0.03 26.69,-0.01 40.03,0.02c7.61,0.18 15.14,-4.7 17.71,-11.92c1.33,-3.47 1.01,-7.23 1.03,-10.86c-0.02,-26.01 0.02,-52.02 -0.02,-78.03c0.07,-9.03 -7.82,-17.08 -16.82,-17.36c-11.3,-0.2 -22.62,-0.02 -33.92,-0.08c-4.27,0.07 -8.61,-0.34 -12.8,0.67Z" style="fill:#ab1e2e;fill-rule:nonzero;"/>
      <path d="M652.163,82.953c13.8,-0.54 27.67,-0.05 41.51,-0.24c28.12,-0.53 55.78,13.85 72.1,36.66c12.73,17.46 18.65,39.72 16.33,61.21c-1.55,15.91 -7.65,31.26 -17.11,44.13c7.88,7.88 15.79,15.74 23.64,23.66c0.03,23.7 -0.01,47.4 0.02,71.1l-0.32,-0c-39.51,-39.45 -79.03,-78.9 -118.43,-118.46c8.9,-0.19 17.8,0.17 26.69,-0.17c14.65,-1.1 27.01,-14.63 26.6,-29.34c0.45,-15.09 -12.59,-28.73 -27.58,-29.39c-14.31,-0.32 -28.63,-0.02 -42.95,-0.15c-0.05,59.17 0,118.34 -0.02,177.51l-59.5,0c0,-59.21 -0.02,-118.42 0.01,-177.63c19.69,-19.6 39.22,-39.39 59.01,-58.89Z" style="fill:#ab1e2e;fill-rule:nonzero;"/>
      <path d="M832.213,127.003c21.39,-26.86 54.94,-43.82 89.36,-44.29c28.65,0.03 57.29,-0.01 85.94,0.02c-19.76,19.75 -39.5,39.5 -59.25,59.24c-10.57,0.26 -21.2,-0.58 -31.73,0.64c-21.88,2.77 -41.2,19 -48.07,39.9c-5.01,14.62 -3.79,31.2 3.27,44.94c7.21,14.56 20.71,25.85 36.32,30.35c13,3.9 26.72,1.93 40.07,2.43c0.04,19.75 0,39.49 0.01,59.24l-30.76,-0c-15.27,-1.01 -30.38,-4.82 -44.18,-11.48c-28.3,-13.48 -50.76,-38.7 -60.8,-68.41c-7.22,-21.01 -8.27,-44.09 -3.2,-65.71c4.04,-17.09 12,-33.21 23.02,-46.87Z" style="fill:#ab1e2e;fill-rule:nonzero;"/>
    </g>
  </g>
</svg>