<?xml version="1.0" encoding="utf-8"?>
<svg xmlns="http://www.w3.org/2000/svg" height="535pt" version="1.1" viewBox="0 0 1727 535" width="1727pt">
<g id="#c74634ff">
<path d="M 797.52 187.52 C 804.68 176.46 820.85 173.27 831.95 180.14 C 835.20 182.08 837.99 184.78 840.02 187.99 C 875.93 244.16 911.88 300.31 947.79 356.48 C 934.32 356.49 920.85 356.49 907.38 356.48 C 901.02 345.99 894.70 335.48 888.33 325.00 C 857.48 325.00 826.63 325.00 795.79 325.00 C 789.03 314.55 782.34 304.05 775.56 293.62 C 806.04 293.63 836.52 293.62 866.99 293.62 C 850.92 267.65 834.82 241.69 818.74 215.73 C 789.16 262.63 759.64 309.57 730.07 356.48 C 716.56 356.49 703.06 356.48 689.55 356.48 C 725.54 300.16 761.51 243.83 797.52 187.52 Z" fill="#c74634" opacity="1.00"/>
<path d="M 264.31 178.30 C 299.55 178.15 334.78 178.28 370.02 178.24 C 382.21 178.13 394.43 180.47 405.66 185.24 C 424.54 193.18 440.44 207.90 449.87 226.08 C 458.97 243.43 462.01 263.81 458.59 283.08 C 455.12 303.12 444.45 321.78 429.01 335.01 C 413.33 348.59 392.76 356.33 372.02 356.47 C 337.02 356.50 302.02 356.49 267.02 356.48 C 249.55 356.45 232.13 351.13 217.65 341.35 C 201.78 330.72 189.47 314.87 183.20 296.82 C 176.08 276.56 176.64 253.71 184.78 233.83 C 191.74 216.63 204.24 201.75 219.96 191.90 C 233.19 183.54 248.67 178.79 264.31 178.30 M 259.44 210.66 C 246.21 212.99 233.94 220.17 225.38 230.50 C 216.21 241.42 211.39 255.83 212.10 270.06 C 212.69 284.51 219.04 298.60 229.41 308.67 C 239.84 318.96 254.33 325.01 268.99 325.09 C 302.33 325.10 335.66 325.09 369.00 325.09 C 381.11 325.06 393.17 321.05 402.89 313.83 C 413.71 305.88 421.61 294.05 424.72 280.98 C 428.37 266.01 425.73 249.62 417.44 236.62 C 409.19 223.44 395.39 213.90 380.12 210.90 C 373.18 209.39 366.04 209.80 358.99 209.75 C 329.32 209.75 299.65 209.75 269.98 209.75 C 266.45 209.76 262.91 210.04 259.44 210.66 Z" fill="#c74634" opacity="1.00"/>
<path d="M 478.21 178.24 C 528.13 178.24 578.06 178.23 627.99 178.24 C 641.09 178.16 654.17 182.51 664.58 190.48 C 676.78 199.69 685.23 213.72 687.59 228.84 C 689.95 243.32 686.85 258.64 678.89 270.99 C 670.39 284.40 656.39 294.18 640.84 297.44 C 631.59 299.52 622.06 298.52 612.66 298.77 C 635.49 318.08 658.45 337.22 681.32 356.48 C 664.75 356.50 648.18 356.47 631.61 356.49 C 597.48 326.79 563.36 297.08 529.24 267.35 C 559.15 267.34 589.05 267.40 618.96 267.42 C 623.59 267.36 628.32 267.76 632.86 266.56 C 641.90 264.33 649.59 257.40 652.82 248.67 C 656.12 240.08 654.95 229.93 649.71 222.35 C 644.50 214.60 635.34 209.72 626.00 209.76 C 588.16 209.73 550.33 209.76 512.50 209.75 C 512.47 258.66 512.50 307.57 512.48 356.48 C 501.06 356.50 489.64 356.48 478.22 356.49 C 478.19 297.07 478.21 237.66 478.21 178.24 Z" fill="#c74634" opacity="1.00"/>
<path d="M 1016.25 178.30 C 1058.31 178.16 1100.38 178.26 1142.44 178.24 C 1135.71 188.72 1128.91 199.16 1122.25 209.69 C 1088.52 209.84 1054.77 209.69 1021.03 209.76 C 1001.72 209.78 982.89 220.32 972.74 236.74 C 963.13 251.83 961.26 271.48 967.77 288.14 C 975.71 309.45 997.24 324.75 1020.01 325.07 C 1061.71 325.13 1103.42 325.08 1145.13 325.10 C 1138.46 335.56 1131.77 346.02 1125.10 356.48 C 1089.75 356.49 1054.40 356.49 1019.05 356.48 C 1001.57 356.47 984.14 351.17 969.64 341.41 C 954.02 330.99 941.82 315.53 935.42 297.88 C 928.42 278.77 928.30 257.25 935.03 238.05 C 940.91 221.11 952.08 206.08 966.56 195.50 C 980.89 184.94 998.45 178.85 1016.25 178.30 Z" fill="#c74634" opacity="1.00"/>
<path d="M 1160.71 178.25 C 1172.15 178.22 1183.59 178.24 1195.04 178.24 C 1195.06 227.15 1195.04 276.07 1195.05 324.98 C 1248.29 324.99 1301.54 324.99 1354.78 324.98 C 1348.01 335.47 1341.19 345.92 1334.47 356.45 C 1282.33 356.53 1230.18 356.48 1178.04 356.47 C 1168.82 356.59 1160.35 348.30 1160.70 339.00 C 1160.71 285.41 1160.70 231.83 1160.71 178.25 Z" fill="#c74634" opacity="1.00"/>
<path d="M 1385.83 193.80 C 1400.45 183.73 1418.15 178.24 1435.91 178.24 C 1476.96 178.22 1518.01 178.24 1559.07 178.23 C 1552.38 188.75 1545.68 199.26 1538.96 209.75 C 1509.62 209.75 1480.29 209.75 1450.95 209.75 C 1441.75 209.84 1432.37 209.13 1423.42 211.72 C 1404.12 216.72 1388.18 232.50 1382.88 251.71 C 1438.45 251.73 1494.01 251.72 1549.57 251.71 C 1542.77 262.15 1536.11 272.69 1529.33 283.14 C 1480.51 283.15 1431.70 283.13 1382.88 283.15 C 1386.68 296.51 1395.43 308.37 1407.12 315.88 C 1416.25 321.81 1427.11 325.05 1438.01 325.09 C 1479.33 325.09 1520.66 325.12 1561.98 325.08 C 1555.31 335.57 1548.59 346.02 1541.87 356.49 C 1511.60 356.49 1481.32 356.49 1451.05 356.49 C 1444.38 356.43 1437.72 356.63 1431.07 356.33 C 1412.85 355.37 1395.01 348.57 1380.76 337.20 C 1367.68 326.85 1357.59 312.76 1352.08 297.01 C 1345.31 277.88 1345.38 256.43 1352.25 237.33 C 1358.49 219.77 1370.45 204.32 1385.83 193.80 Z" fill="#c74634" opacity="1.00"/>
</g>
</svg>