<?xml version="1.0" encoding="utf-8"?>
<svg xmlns="http://www.w3.org/2000/svg" height="782pt" version="1.1" viewBox="0 0 1493 782" width="1493pt">
<g id="#0891b2ff">
<path d="M 139.93 267.70 C 150.16 265.63 160.68 266.06 171.06 266.37 C 181.40 267.09 191.51 269.95 201.11 273.77 C 205.47 276.01 210.78 277.28 214.15 280.92 C 214.44 320.99 214.13 361.09 214.30 401.17 C 209.65 410.40 202.57 418.25 194.19 424.26 C 190.74 426.51 187.19 428.64 183.35 430.17 C 183.14 411.95 183.34 393.72 183.26 375.49 C 187.96 374.30 192.78 373.57 197.39 372.04 C 194.20 371.48 190.99 370.92 187.90 369.91 C 186.38 369.65 184.86 369.42 183.34 369.21 C 183.13 346.38 183.29 323.55 183.26 300.73 C 177.54 299.07 171.74 297.33 165.74 297.27 C 160.20 296.19 154.62 297.52 149.06 297.80 C 144.76 299.15 140.26 299.75 136.00 301.24 C 117.28 307.83 101.39 321.99 92.76 339.88 C 86.76 353.06 84.05 367.88 86.11 382.29 C 87.40 389.84 89.36 397.29 92.67 404.22 C 94.74 409.56 100.07 413.84 99.22 420.01 C 99.15 431.01 99.18 442.01 99.18 453.01 C 99.17 455.10 98.78 457.16 98.41 459.22 C 98.17 458.85 97.67 458.11 97.42 457.74 C 84.45 448.06 73.57 435.50 66.14 421.10 C 64.04 417.24 62.34 413.19 60.80 409.08 C 59.15 405.16 58.25 401.01 57.11 396.94 C 56.10 393.66 55.57 390.25 55.24 386.84 C 54.04 381.64 54.53 376.25 54.38 370.96 C 54.50 366.37 54.19 361.72 55.24 357.22 C 55.78 350.57 58.09 344.27 59.72 337.85 C 60.45 336.21 61.13 334.55 61.76 332.87 C 62.42 331.20 63.10 329.53 63.74 327.85 C 64.26 326.94 64.77 326.03 65.28 325.13 C 76.12 302.82 95.22 284.73 117.86 274.68 C 124.97 271.65 132.37 269.33 139.93 267.70 Z" fill="#0891b2" opacity="1.00"/>
<path d="M 222.27 286.10 C 222.72 286.22 223.63 286.48 224.08 286.60 C 239.69 298.71 252.51 314.67 259.71 333.16 C 266.66 350.12 268.12 368.86 266.05 386.95 C 264.78 397.40 261.50 407.51 257.24 417.10 C 256.41 418.69 255.59 420.28 254.77 421.87 C 243.59 443.10 224.93 460.26 202.92 469.80 C 200.98 470.57 199.03 471.34 197.12 472.20 C 195.12 472.86 193.11 473.50 191.10 474.14 C 189.02 474.66 186.97 475.27 184.90 475.82 C 182.65 476.33 180.38 476.75 178.14 477.30 C 175.15 477.48 172.16 477.65 169.23 478.30 C 163.45 478.55 157.67 478.55 151.90 478.28 C 148.99 477.61 145.99 477.46 143.02 477.28 C 139.98 476.55 136.92 475.98 133.90 475.16 C 131.60 474.36 129.25 473.73 126.88 473.23 C 125.62 472.72 124.36 472.21 123.10 471.70 C 121.46 471.06 119.82 470.39 118.19 469.71 C 117.09 469.22 116.00 468.74 114.90 468.27 C 114.40 467.99 113.42 467.44 112.92 467.16 C 111.60 466.49 110.27 465.84 108.94 465.19 C 108.52 464.94 107.69 464.43 107.28 464.17 C 107.37 420.70 107.13 377.23 107.39 333.76 C 115.63 324.01 126.10 315.84 138.45 312.09 C 138.50 330.97 138.46 349.85 138.44 368.74 C 133.46 370.12 128.42 371.34 123.29 372.03 C 127.79 373.22 132.35 374.18 136.87 375.28 C 137.25 375.35 138.01 375.49 138.39 375.56 C 138.60 398.39 138.34 421.22 138.54 444.05 C 143.92 445.54 149.38 446.63 154.94 447.21 C 159.27 447.32 163.63 447.56 167.94 446.93 C 180.99 445.71 193.69 440.89 204.33 433.24 C 216.32 424.80 225.42 412.59 230.81 399.01 C 231.29 397.70 231.75 396.39 232.23 395.10 C 232.69 392.70 233.32 390.33 234.13 388.03 C 234.47 386.35 234.77 384.67 235.19 383.02 C 235.67 377.36 235.59 371.67 235.50 366.01 C 235.36 359.83 233.34 353.94 231.78 348.04 C 230.98 345.94 230.14 343.87 229.31 341.80 C 227.58 337.95 225.44 334.31 223.18 330.76 C 222.14 329.39 222.30 327.61 222.26 326.00 C 222.30 312.70 222.29 299.40 222.27 286.10 Z" fill="#0891b2" opacity="1.00"/>
<path d="M 594.97 321.96 C 606.92 309.97 624.57 306.01 641.00 306.27 C 656.71 305.87 673.50 309.65 685.16 320.80 C 695.22 330.00 699.44 344.13 698.83 357.48 C 686.73 357.41 674.63 357.43 662.54 357.47 C 662.39 353.49 661.58 349.59 660.38 345.81 C 657.74 340.74 653.28 336.43 647.53 335.28 C 639.16 333.43 628.71 335.05 623.74 342.76 C 617.71 351.98 618.78 363.50 618.71 373.99 C 619.06 382.11 620.70 391.14 627.17 396.73 C 632.07 400.88 638.79 401.18 644.91 400.73 C 650.25 400.51 655.64 398.24 659.03 394.00 C 661.31 391.48 662.14 388.12 663.35 385.03 C 663.46 383.13 663.57 381.23 663.67 379.33 C 675.53 379.28 687.39 379.25 699.25 379.35 C 698.77 389.86 696.97 400.82 690.56 409.49 C 686.21 415.84 679.82 420.55 672.90 423.78 C 666.95 426.50 660.57 428.27 654.06 428.88 C 645.84 430.09 637.30 430.16 629.08 428.85 C 624.60 428.52 620.21 427.54 615.91 426.24 C 614.22 425.61 612.52 424.98 610.83 424.37 C 602.85 420.83 595.42 415.62 590.43 408.36 C 581.41 395.92 579.25 379.97 579.54 364.97 C 579.93 349.57 583.73 333.17 594.97 321.96 Z" fill="#0891b2" opacity="1.00"/>
<path d="M 1070.93 308.89 C 1082.35 305.83 1094.37 305.83 1106.07 306.88 C 1119.79 308.57 1133.66 314.59 1142.14 325.87 C 1144.76 329.18 1146.54 333.02 1148.27 336.85 C 1150.31 343.51 1151.73 350.45 1151.50 357.45 C 1139.31 357.43 1127.11 357.46 1114.92 357.43 C 1114.97 350.74 1113.11 343.56 1107.78 339.13 C 1101.02 333.71 1091.16 333.39 1083.39 336.66 C 1075.84 339.93 1072.33 348.39 1071.55 356.10 C 1071.07 362.73 1071.31 369.40 1071.34 376.04 C 1071.47 384.15 1074.07 393.13 1081.15 397.85 C 1087.30 401.67 1095.07 401.67 1101.93 400.01 C 1106.61 398.78 1110.94 395.84 1113.27 391.52 C 1115.48 387.82 1115.87 383.46 1116.33 379.27 C 1128.06 379.33 1139.81 379.27 1151.55 379.30 C 1151.63 386.65 1150.31 394.02 1147.71 400.89 C 1143.49 411.56 1134.56 419.84 1124.14 424.39 C 1122.44 425.02 1120.74 425.65 1119.07 426.31 C 1118.54 426.45 1117.47 426.73 1116.94 426.87 C 1113.66 427.92 1110.26 428.47 1106.86 428.83 C 1098.39 430.14 1089.61 430.13 1081.15 428.84 C 1077.72 428.50 1074.32 427.93 1071.00 427.04 C 1067.94 426.09 1064.91 425.06 1062.00 423.77 C 1050.43 418.74 1041.37 408.84 1036.75 397.17 C 1036.14 395.13 1035.46 393.11 1034.73 391.12 C 1034.04 388.08 1033.57 384.99 1032.81 381.97 C 1031.09 364.97 1031.55 346.69 1040.28 331.48 C 1046.66 319.98 1058.32 312.07 1070.93 308.89 Z" fill="#0891b2" opacity="1.00"/>
<path d="M 1178.78 317.93 C 1188.67 310.71 1200.90 307.34 1213.00 306.52 C 1222.38 306.04 1231.84 306.12 1241.10 307.85 C 1249.78 309.81 1258.34 313.00 1265.43 318.50 C 1274.33 324.88 1280.52 334.60 1283.47 345.07 C 1287.45 359.32 1287.44 374.63 1283.99 388.98 C 1283.18 391.68 1282.28 394.36 1281.29 397.00 C 1276.12 409.47 1265.53 419.20 1253.16 424.34 C 1247.25 426.53 1241.15 428.34 1234.84 428.84 C 1226.35 430.10 1217.54 430.17 1209.06 428.84 C 1205.34 428.52 1201.65 427.96 1198.08 426.91 C 1195.00 426.03 1191.94 425.05 1189.04 423.70 C 1177.77 418.96 1168.36 410.08 1163.24 398.94 C 1162.56 397.26 1161.91 395.58 1161.26 393.91 C 1160.20 391.04 1159.53 388.05 1158.81 385.09 C 1158.51 383.08 1158.22 381.07 1157.76 379.09 C 1157.23 371.69 1157.26 364.25 1157.73 356.85 C 1158.72 351.88 1159.40 346.81 1161.18 342.04 C 1164.44 332.47 1170.48 323.80 1178.78 317.93 M 1217.56 334.85 C 1211.87 335.55 1206.17 338.01 1202.55 342.58 C 1197.95 348.27 1196.34 355.80 1196.48 362.99 C 1196.61 371.54 1195.57 380.66 1199.64 388.55 C 1202.73 395.30 1209.57 399.99 1216.94 400.65 C 1225.48 402.00 1235.42 400.10 1241.06 393.01 C 1246.93 386.13 1247.40 376.58 1247.24 367.96 C 1247.40 359.31 1246.98 349.75 1241.15 342.80 C 1235.68 335.74 1226.01 333.80 1217.56 334.85 Z" fill="#0891b2" opacity="1.00"/>
<path d="M 333.91 308.32 C 346.74 308.28 359.58 308.24 372.42 308.34 C 372.37 322.75 372.41 337.15 372.40 351.56 C 386.45 351.56 400.50 351.57 414.56 351.56 C 414.55 337.15 414.58 322.74 414.54 308.34 C 427.31 308.23 440.09 308.32 452.86 308.29 C 452.87 348.09 452.86 387.89 452.86 427.70 C 440.09 427.66 427.31 427.76 414.54 427.64 C 414.58 412.55 414.55 397.46 414.56 382.37 C 400.51 382.35 386.46 382.36 372.41 382.36 C 372.40 397.45 372.38 412.54 372.41 427.64 C 359.58 427.75 346.74 427.69 333.91 427.67 C 333.86 387.89 333.89 348.10 333.91 308.32 Z" fill="#0891b2" opacity="1.00"/>
<path d="M 468.72 308.38 C 491.48 308.18 514.24 308.32 537.00 308.31 C 549.53 308.00 561.82 314.88 568.33 325.54 C 574.21 334.85 575.22 346.45 573.61 357.13 C 571.96 368.88 564.41 379.62 553.83 385.03 C 548.05 388.07 541.44 389.00 534.98 389.08 C 525.78 389.14 516.58 389.05 507.38 389.11 C 507.44 401.95 507.36 414.79 507.42 427.62 C 494.52 427.72 481.62 427.77 468.72 427.60 C 468.75 387.86 468.75 348.12 468.72 308.38 M 507.40 336.42 C 507.42 344.71 507.29 353.01 507.48 361.30 C 514.31 360.94 521.30 362.09 528.02 360.44 C 530.83 359.78 532.74 357.46 534.28 355.17 C 534.52 354.39 535.01 352.81 535.25 352.02 C 535.30 349.92 535.32 347.81 535.36 345.72 C 534.36 341.65 531.81 337.57 527.36 336.83 C 520.75 335.96 514.05 336.62 507.40 336.42 Z" fill="#0891b2" opacity="1.00"/>
<path d="M 838.07 308.50 C 853.11 308.03 868.17 308.40 883.22 308.31 C 888.30 322.57 893.54 336.77 898.73 350.99 C 900.66 355.94 902.26 361.03 904.25 365.96 C 905.09 368.33 905.93 370.71 906.78 373.08 C 907.27 374.33 907.73 375.60 908.23 376.86 C 909.09 379.27 910.01 381.66 910.81 384.10 C 911.30 385.35 911.78 386.59 912.31 387.85 C 914.91 395.20 917.59 402.52 920.35 409.81 C 920.83 411.25 921.33 412.69 921.81 414.13 C 923.57 418.59 925.07 423.15 926.83 427.61 C 913.20 427.73 899.56 427.79 885.92 427.58 C 884.51 421.87 882.59 416.30 881.06 410.63 C 867.19 410.49 853.32 410.73 839.45 410.50 C 837.25 416.08 835.78 421.93 834.09 427.68 C 821.06 427.69 808.03 427.74 795.01 427.65 C 796.07 423.98 797.54 420.45 798.77 416.83 C 799.13 415.85 799.50 414.88 799.88 413.91 C 807.78 392.24 815.71 370.57 823.53 348.87 C 828.34 335.40 833.56 322.07 838.07 308.50 M 858.97 343.45 C 858.64 344.95 858.36 346.47 857.98 347.97 C 856.98 351.00 856.07 354.05 855.21 357.13 C 854.41 359.71 853.69 362.32 852.82 364.89 C 851.84 368.25 850.90 371.62 849.78 374.94 C 848.97 378.02 848.04 381.07 847.17 384.14 C 855.76 384.17 864.36 384.16 872.96 384.14 C 869.41 370.37 864.81 356.88 861.25 343.11 C 860.48 343.22 859.72 343.33 858.97 343.45 Z" fill="#0891b2" opacity="1.00"/>
<path d="M 932.81 308.37 C 945.71 308.21 958.61 308.30 971.51 308.32 C 971.48 348.10 971.48 387.88 971.51 427.66 C 958.61 427.68 945.71 427.78 932.81 427.61 C 932.84 387.86 932.83 348.12 932.81 308.37 Z" fill="#0891b2" opacity="1.00"/>
<path d="M 1294.81 308.27 C 1312.97 308.37 1331.14 308.17 1349.30 308.37 C 1355.09 331.45 1361.27 354.43 1367.27 377.45 C 1368.92 374.37 1369.38 370.86 1370.32 367.55 C 1373.94 353.73 1377.40 339.88 1381.08 326.08 C 1382.49 320.13 1384.16 314.26 1385.63 308.34 C 1403.16 308.27 1420.69 308.23 1438.22 308.36 C 1438.20 348.11 1438.20 387.87 1438.22 427.62 C 1425.68 427.77 1413.13 427.67 1400.59 427.68 C 1400.31 427.01 1399.73 425.67 1399.44 425.00 C 1400.86 423.36 1400.08 420.97 1400.30 419.00 C 1400.46 397.31 1399.51 375.55 1401.80 353.94 C 1402.66 351.27 1402.60 348.44 1402.17 345.70 C 1400.80 352.54 1398.63 359.19 1396.82 365.91 C 1395.81 369.60 1394.90 373.31 1393.76 376.95 C 1389.32 393.89 1384.39 410.70 1380.02 427.65 C 1370.00 427.72 1359.98 427.72 1349.97 427.65 C 1349.35 425.08 1348.61 422.56 1347.88 420.04 C 1347.32 417.66 1346.69 415.31 1345.94 413.00 C 1344.06 405.97 1342.10 398.96 1340.13 391.96 C 1337.93 383.55 1335.37 375.25 1333.25 366.83 C 1332.27 363.95 1331.58 360.99 1330.83 358.05 C 1330.32 356.31 1329.78 354.59 1329.25 352.86 C 1328.67 350.77 1328.26 348.65 1327.67 346.58 C 1327.32 349.38 1327.34 352.25 1328.15 354.97 C 1328.44 357.97 1328.54 360.99 1329.14 363.96 C 1329.38 367.37 1329.47 370.79 1329.67 374.20 C 1330.53 378.09 1330.27 382.08 1330.31 386.03 C 1330.33 399.88 1330.28 413.74 1330.34 427.59 C 1318.49 427.81 1306.63 427.66 1294.77 427.67 C 1294.81 387.87 1294.74 348.07 1294.81 308.27 Z" fill="#0891b2" opacity="1.00"/>
<path d="M 159.92 351.63 C 160.21 351.60 160.78 351.55 161.07 351.52 C 162.01 357.19 163.38 362.78 164.58 368.41 C 165.43 368.52 166.29 368.64 167.16 368.76 C 172.38 369.91 177.52 371.42 182.85 372.03 C 178.60 373.16 174.30 374.09 170.01 375.06 C 168.23 375.38 166.43 375.62 164.63 375.86 C 163.38 380.82 162.59 385.88 161.31 390.84 L 159.78 390.77 C 159.08 386.23 157.56 381.85 157.19 377.26 C 156.76 376.77 156.33 376.29 155.90 375.81 C 154.28 375.56 152.66 375.32 151.05 375.01 C 146.83 374.04 142.62 373.05 138.43 372.01 C 141.97 371.56 145.52 370.96 148.94 369.90 C 151.68 369.40 154.40 368.82 157.11 368.22 C 157.42 362.58 159.50 357.25 159.92 351.63 Z" fill="#0891b2" opacity="1.00"/>
<path d="M 719.34 380.49 C 719.29 372.22 719.20 363.94 719.39 355.67 C 744.76 355.71 770.13 355.70 795.51 355.68 C 795.66 363.95 795.59 372.22 795.55 380.49 C 770.15 380.48 744.74 380.47 719.34 380.49 Z" fill="#0891b2" opacity="1.00"/>
<path d="M 986.65 393.17 C 998.92 393.17 1011.20 393.16 1023.47 393.17 C 1023.48 404.68 1023.47 416.18 1023.48 427.68 C 1011.20 427.70 998.92 427.70 986.64 427.69 C 986.65 416.18 986.64 404.67 986.65 393.17 Z" fill="#0891b2" opacity="1.00"/>
<path d="M 1087.68 481.87 C 1089.95 481.88 1092.24 481.88 1094.54 481.88 C 1094.35 483.24 1094.18 484.61 1093.86 485.95 C 1093.25 489.31 1092.63 492.67 1092.18 496.06 C 1091.64 498.31 1091.24 500.60 1090.71 502.86 C 1090.47 505.10 1090.27 507.36 1090.13 509.61 C 1087.53 509.89 1084.92 509.91 1082.33 509.86 C 1083.67 502.94 1084.80 495.98 1086.08 489.05 C 1086.43 486.62 1086.92 484.21 1087.68 481.87 Z" fill="#0891b2" opacity="1.00"/>
<path d="M 1145.81 481.88 C 1149.69 481.89 1153.58 481.89 1157.48 481.88 C 1156.53 491.18 1153.79 500.24 1153.18 509.59 C 1150.58 509.88 1147.97 509.91 1145.38 509.84 C 1146.37 505.39 1147.16 500.89 1147.63 496.36 L 1148.48 496.45 C 1148.37 494.50 1148.27 492.56 1148.11 490.62 C 1147.78 492.30 1147.49 493.99 1147.27 495.69 L 1146.67 495.45 C 1145.04 500.33 1142.78 504.97 1141.13 509.84 C 1138.27 509.90 1135.43 509.89 1132.59 509.82 C 1132.55 503.09 1132.18 496.37 1131.42 489.68 C 1130.79 496.47 1129.26 503.12 1128.30 509.86 C 1125.90 509.88 1123.51 509.89 1121.13 509.88 C 1122.54 500.68 1124.48 491.56 1125.85 482.35 C 1129.75 482.31 1133.67 482.32 1137.58 482.33 C 1137.53 488.95 1138.09 495.54 1138.69 502.13 C 1140.47 495.19 1143.27 488.56 1145.81 481.88 Z" fill="#0891b2" opacity="1.00"/>
<path d="M 1162.64 493.89 C 1165.24 485.84 1173.56 480.41 1182.01 481.72 C 1183.04 482.05 1184.09 482.37 1185.16 482.67 C 1188.50 484.50 1190.22 487.90 1189.94 491.69 C 1187.59 491.71 1185.26 491.71 1182.94 491.70 C 1182.40 490.25 1181.81 488.82 1181.25 487.39 C 1179.10 487.33 1176.96 487.34 1174.84 487.41 C 1169.99 491.15 1167.68 499.35 1171.93 504.28 C 1175.32 506.85 1179.73 504.21 1181.27 500.81 C 1179.55 500.75 1177.83 500.71 1176.14 500.69 C 1176.33 498.90 1176.53 497.12 1176.75 495.34 C 1180.80 495.32 1184.86 495.31 1188.92 495.34 C 1188.23 500.21 1187.31 505.05 1186.43 509.89 C 1184.56 509.88 1182.70 509.87 1180.86 509.85 C 1180.76 508.46 1180.72 507.10 1180.68 505.72 C 1179.48 510.90 1173.22 511.09 1169.05 510.04 C 1165.98 509.32 1164.15 506.67 1162.58 504.18 C 1162.29 500.75 1162.33 497.31 1162.64 493.89 Z" fill="#0891b2" opacity="1.00"/>
<path d="M 1288.67 482.38 C 1291.54 482.34 1294.43 482.29 1297.29 481.82 C 1299.85 488.22 1302.24 494.70 1304.29 501.29 C 1305.84 495.05 1306.79 488.68 1307.81 482.34 C 1310.17 482.33 1312.53 482.32 1314.91 482.34 C 1313.57 491.55 1311.63 500.65 1310.25 509.85 C 1307.08 509.90 1303.91 509.90 1300.76 509.86 C 1298.57 503.71 1296.45 497.54 1294.00 491.49 C 1293.46 497.65 1291.85 503.66 1291.14 509.80 C 1288.52 509.92 1285.91 509.90 1283.33 509.59 C 1280.47 509.94 1277.60 509.93 1274.75 509.78 C 1274.62 507.36 1274.44 504.93 1273.54 502.67 C 1270.87 502.71 1268.20 502.62 1265.56 502.80 C 1263.58 504.52 1263.00 507.33 1261.96 509.64 C 1259.29 509.91 1256.62 509.91 1253.97 509.84 C 1258.63 500.70 1263.83 491.83 1268.15 482.52 C 1271.48 482.24 1274.84 482.28 1278.19 482.45 C 1278.34 484.30 1278.52 486.15 1278.76 488.01 C 1280.32 493.99 1280.95 500.16 1281.98 506.25 C 1282.50 506.70 1283.54 507.61 1284.07 508.06 C 1285.61 499.50 1287.14 490.94 1288.67 482.38 M 1272.17 488.85 C 1270.59 491.56 1269.10 494.33 1268.08 497.30 C 1269.61 497.31 1271.16 497.33 1272.72 497.35 C 1272.57 494.51 1272.38 491.68 1272.17 488.85 Z" fill="#0891b2" opacity="1.00"/>
<path d="M 1399.72 482.38 C 1403.67 482.32 1407.62 482.23 1411.56 481.77 C 1410.88 491.18 1408.10 500.32 1407.18 509.71 C 1404.61 509.88 1402.05 509.88 1399.50 509.80 C 1400.17 507.76 1400.53 505.64 1400.73 503.51 C 1400.05 502.18 1396.78 498.61 1401.64 500.46 L 1401.65 492.04 C 1400.96 494.18 1399.59 498.45 1398.90 500.59 L 1398.40 499.14 C 1398.22 501.50 1397.79 503.84 1396.85 506.02 C 1396.28 507.29 1395.76 508.58 1395.26 509.87 C 1392.37 509.91 1389.49 509.89 1386.63 509.74 C 1386.56 505.21 1386.39 500.68 1386.30 496.15 L 1384.73 496.20 C 1384.10 500.80 1383.02 505.32 1382.35 509.91 C 1379.94 509.89 1377.55 509.87 1375.16 509.84 C 1376.85 500.72 1378.52 491.58 1379.91 482.41 C 1383.82 482.29 1387.75 482.32 1391.69 482.33 C 1391.65 483.71 1391.63 485.10 1391.62 486.49 L 1392.36 486.50 C 1392.33 490.86 1392.33 495.22 1392.61 499.57 C 1393.65 498.53 1394.41 497.31 1394.89 495.90 C 1396.04 492.16 1397.57 488.55 1398.78 484.82 C 1399.02 484.21 1399.49 482.99 1399.72 482.38 Z" fill="#0891b2" opacity="1.00"/>
<path d="M 993.14 482.49 C 995.00 483.73 997.32 484.75 998.06 487.07 C 999.40 491.10 997.67 495.93 994.09 498.23 C 990.49 500.82 985.79 500.23 981.62 500.35 C 980.86 503.44 980.37 506.58 980.14 509.76 C 977.76 509.85 975.40 509.90 973.05 509.93 C 973.23 507.59 973.45 505.26 973.76 502.94 C 975.20 496.10 976.22 489.18 977.61 482.33 C 982.78 482.33 987.96 482.25 993.14 482.49 M 983.74 488.15 C 983.37 490.32 982.97 492.49 982.55 494.66 C 984.40 494.64 986.28 494.62 988.16 494.59 C 988.76 494.21 989.96 493.45 990.55 493.08 C 990.61 491.53 990.64 489.99 990.65 488.45 C 988.34 488.28 986.04 488.20 983.74 488.15 Z" fill="#0891b2" opacity="1.00"/>
<path d="M 1027.65 482.39 C 1034.67 482.28 1041.70 482.29 1048.73 482.38 C 1048.43 484.09 1048.29 485.86 1047.67 487.50 C 1043.28 487.88 1038.86 487.63 1034.47 487.57 C 1033.96 489.29 1033.54 491.04 1033.20 492.80 C 1037.30 492.87 1041.40 492.85 1045.51 492.82 C 1045.48 494.75 1045.39 496.67 1045.30 498.60 C 1040.75 498.83 1036.17 498.52 1031.67 499.36 C 1031.57 501.04 1031.47 502.74 1031.39 504.44 C 1035.81 504.53 1040.26 504.13 1044.67 504.61 C 1045.62 505.28 1046.44 506.12 1047.34 506.90 C 1049.03 498.75 1050.19 490.50 1051.80 482.34 C 1055.69 482.32 1059.58 482.31 1063.48 482.35 C 1063.84 488.96 1063.14 495.70 1064.75 502.20 C 1065.86 495.34 1069.31 489.18 1071.03 482.49 C 1075.15 482.23 1079.29 482.28 1083.43 482.42 C 1082.43 486.59 1081.78 490.84 1081.11 495.08 C 1079.97 499.97 1079.45 504.99 1078.40 509.90 C 1076.01 509.89 1073.63 509.88 1071.26 509.85 C 1072.27 503.15 1073.95 496.55 1074.41 489.78 C 1073.98 491.24 1073.59 492.71 1073.21 494.18 C 1070.88 499.29 1068.93 504.57 1066.95 509.82 C 1064.12 509.89 1061.30 509.90 1058.48 509.90 C 1058.42 503.15 1057.80 496.42 1057.51 489.69 C 1056.57 496.42 1055.09 503.07 1054.21 509.81 C 1051.90 509.87 1049.59 509.88 1047.31 509.77 C 1046.61 508.40 1045.82 507.12 1044.93 505.90 C 1044.78 506.88 1044.46 508.84 1044.31 509.82 C 1033.97 510.08 1023.63 509.66 1013.30 509.89 C 1013.29 506.50 1012.92 503.12 1012.28 499.79 C 1010.36 499.65 1008.45 499.55 1006.55 499.47 C 1005.93 502.95 1005.33 506.44 1004.63 509.91 C 1002.25 509.89 999.88 509.88 997.52 509.85 C 999.24 500.68 1000.74 491.48 1002.46 482.32 C 1007.30 482.38 1012.15 482.20 1016.99 482.40 C 1019.42 482.25 1021.35 483.87 1023.38 484.96 C 1023.52 487.78 1024.43 491.15 1022.40 493.53 C 1021.37 494.97 1019.61 495.53 1018.09 496.22 C 1018.71 498.15 1019.47 500.04 1020.27 501.92 C 1020.29 504.04 1020.30 506.16 1020.31 508.30 C 1021.37 508.28 1022.43 508.28 1023.52 508.29 C 1024.08 500.81 1025.93 493.47 1027.21 486.09 C 1027.35 484.85 1027.49 483.62 1027.65 482.39 M 1008.66 487.61 C 1008.22 489.88 1007.79 492.16 1007.44 494.46 C 1010.12 494.47 1012.82 494.23 1015.39 493.40 C 1015.54 491.84 1016.75 490.05 1015.42 488.72 C 1013.53 487.11 1010.90 487.82 1008.66 487.61 Z" fill="#0891b2" opacity="1.00"/>
<path d="M 1194.88 482.40 C 1200.56 482.45 1206.33 481.84 1211.96 482.90 C 1213.21 484.16 1214.49 485.41 1215.76 486.68 C 1215.76 489.18 1215.68 491.67 1215.54 494.17 C 1213.82 496.19 1212.12 498.43 1209.54 499.38 C 1206.10 500.58 1202.41 500.25 1198.85 500.46 C 1198.43 503.61 1197.87 506.75 1197.36 509.89 C 1194.95 509.89 1192.55 509.88 1190.15 509.85 C 1191.75 500.71 1193.53 491.59 1194.88 482.40 M 1201.48 487.59 C 1200.86 489.93 1200.44 492.30 1200.14 494.70 C 1202.19 494.62 1204.30 494.78 1206.35 494.33 C 1208.48 493.38 1208.45 490.93 1208.42 488.96 C 1207.82 488.65 1206.63 488.03 1206.03 487.72 C 1204.50 487.67 1202.99 487.64 1201.48 487.59 Z" fill="#0891b2" opacity="1.00"/>
<path d="M 1219.73 482.42 C 1222.11 482.35 1224.50 482.32 1226.91 482.32 C 1226.77 489.75 1223.43 496.86 1224.55 504.34 C 1227.73 505.04 1232.61 505.90 1233.72 501.75 C 1235.42 495.38 1236.00 488.74 1237.43 482.29 C 1239.78 482.32 1242.15 482.34 1244.53 482.38 C 1243.00 489.29 1242.62 496.47 1240.39 503.21 C 1239.10 507.67 1234.50 510.26 1230.07 510.42 C 1225.67 510.76 1220.19 510.19 1217.70 506.03 C 1215.41 501.99 1217.70 497.29 1218.14 493.06 C 1218.73 489.52 1219.44 486.00 1219.73 482.42 Z" fill="#0891b2" opacity="1.00"/>
<path d="M 1317.14 482.38 C 1319.77 482.31 1322.41 482.33 1325.07 482.43 C 1325.53 484.35 1326.10 486.26 1326.64 488.18 C 1327.33 489.82 1328.04 491.48 1328.77 493.12 C 1331.09 489.52 1333.46 485.96 1335.77 482.34 C 1346.48 482.30 1357.20 482.32 1367.93 482.34 C 1367.66 484.10 1367.40 485.86 1367.18 487.63 C 1364.25 487.67 1361.34 487.67 1358.44 487.61 C 1356.54 494.90 1355.65 502.40 1354.31 509.80 C 1351.92 509.86 1349.53 509.89 1347.17 509.91 C 1347.96 502.43 1350.15 495.16 1350.67 487.65 C 1347.88 487.66 1345.09 487.66 1342.31 487.69 C 1342.30 486.73 1342.26 484.81 1342.24 483.85 C 1341.91 484.57 1341.58 485.30 1341.27 486.03 C 1337.42 490.60 1333.86 495.45 1330.64 500.49 C 1330.49 501.97 1330.30 503.45 1330.11 504.93 C 1329.68 506.54 1329.41 508.18 1329.17 509.83 C 1326.81 509.87 1324.46 509.89 1322.12 509.88 C 1322.53 504.60 1325.04 498.98 1321.72 494.12 C 1321.17 492.71 1320.63 491.30 1320.11 489.89 C 1319.05 487.41 1318.07 484.90 1317.14 482.38 Z" fill="#0891b2" opacity="1.00"/>
<path d="M 1415.77 482.29 C 1422.67 482.38 1429.59 482.27 1436.50 482.36 C 1436.13 484.12 1435.78 485.89 1435.45 487.67 C 1431.07 487.65 1426.69 487.71 1422.31 487.59 C 1421.78 489.50 1421.39 491.45 1421.10 493.42 C 1425.27 493.40 1429.45 493.40 1433.64 493.41 C 1433.43 495.14 1433.25 496.87 1433.09 498.61 C 1428.79 498.81 1424.50 498.77 1420.22 498.67 C 1419.74 500.57 1419.40 502.49 1419.13 504.43 C 1423.69 504.41 1428.25 504.42 1432.83 504.41 C 1432.57 506.22 1432.34 508.04 1432.12 509.87 C 1425.10 509.91 1418.08 509.90 1411.07 509.88 C 1411.49 505.88 1412.30 501.94 1412.95 497.98 C 1414.03 492.77 1414.76 487.51 1415.77 482.29 Z" fill="#0891b2" opacity="1.00"/>
<path d="M 1098.39 482.29 C 1100.56 482.31 1102.75 482.33 1104.94 482.36 C 1104.85 488.69 1102.86 494.79 1102.46 501.09 C 1101.84 504.59 1106.37 506.19 1109.04 504.89 C 1111.43 504.13 1112.22 501.40 1112.67 499.21 C 1113.71 493.59 1114.55 487.93 1115.64 482.32 C 1118.00 482.32 1120.36 482.33 1122.74 482.36 C 1121.54 488.82 1120.74 495.37 1119.15 501.76 C 1118.21 505.77 1115.07 509.24 1110.94 510.02 C 1105.59 511.11 1098.33 510.80 1095.55 505.25 C 1094.70 500.12 1096.00 494.99 1096.88 489.97 C 1097.44 487.42 1097.82 484.83 1098.39 482.29 Z" fill="#0891b2" opacity="1.00"/>
<path d="M 1368.87 482.40 C 1371.39 482.34 1373.91 482.31 1376.46 482.32 C 1374.54 491.46 1373.22 500.71 1371.46 509.88 C 1369.09 509.88 1366.72 509.89 1364.37 509.90 C 1365.71 500.71 1367.86 491.64 1368.87 482.40 Z" fill="#0891b2" opacity="1.00"/>
<path d="M 1242.83 503.25 C 1245.12 503.23 1247.38 503.23 1249.71 503.27 C 1247.56 507.09 1245.40 510.89 1243.32 514.74 C 1241.42 514.78 1239.54 514.80 1237.68 514.84 C 1239.48 511.01 1241.15 507.13 1242.83 503.25 Z" fill="#0891b2" opacity="1.00"/>
</g>
</svg>