<?xml version="1.0" encoding="utf-8"?>
<svg xmlns="http://www.w3.org/2000/svg" height="890pt" version="1.1" viewBox="0 0 1462 890" width="1462pt">
<g id="#ffffffff">
</g>
<g id="#000000ff">
<path d="M 296.37 296.34 C 311.21 296.33 326.04 296.34 340.87 296.33 C 340.88 357.55 340.87 418.76 340.88 479.98 C 340.95 496.63 345.08 513.58 354.48 527.49 C 362.93 540.19 375.80 549.85 390.36 554.42 C 410.02 560.62 432.41 558.81 450.29 548.29 C 467.60 538.30 479.56 520.47 483.98 501.15 C 487.26 488.36 486.33 475.09 486.46 462.03 C 486.46 406.80 486.46 351.57 486.46 296.34 C 501.29 296.33 516.12 296.34 530.95 296.33 C 530.96 395.12 530.96 493.92 530.95 592.71 C 516.27 592.70 501.60 592.71 486.92 592.71 C 486.92 583.55 486.91 574.40 486.92 565.25 C 473.82 578.91 456.96 588.91 438.68 593.84 C 404.96 602.83 366.80 596.59 338.97 575.09 C 324.88 564.28 313.77 549.76 306.69 533.51 C 299.59 517.35 296.39 499.64 296.38 482.04 C 296.37 420.14 296.38 358.24 296.37 296.34 Z" fill="#000000" opacity="1.00"/>
<path d="M 563.96 296.34 C 578.22 296.33 592.48 296.34 606.75 296.33 C 606.75 332.29 606.75 368.25 606.75 404.21 C 619.53 391.22 635.61 381.48 653.13 376.40 C 689.79 365.65 731.59 375.41 759.77 401.18 C 783.82 422.64 797.60 454.85 796.82 487.04 C 796.57 520.56 780.23 553.44 753.67 573.88 C 723.84 597.41 681.72 604.39 646.02 591.22 C 631.11 585.80 617.47 577.00 606.33 565.71 C 606.34 574.71 606.33 583.71 606.33 592.70 C 592.21 592.72 578.08 592.71 563.96 592.71 C 563.96 493.92 563.95 395.13 563.96 296.34 M 675.40 410.42 C 648.31 411.90 623.02 429.65 612.31 454.55 C 604.50 472.13 603.82 492.71 610.33 510.81 C 615.59 525.58 625.66 538.58 638.66 547.35 C 661.28 562.97 692.78 564.37 716.56 550.50 C 731.63 541.97 743.53 528.03 749.61 511.82 C 756.45 493.85 756.03 473.26 748.50 455.57 C 742.25 440.70 731.00 427.99 716.98 419.98 C 704.47 412.77 689.80 409.42 675.40 410.42 Z" fill="#000000" opacity="1.00"/>
<path d="M 873.75 384.78 C 908.63 366.62 953.50 368.57 986.04 390.95 C 1009.06 406.55 1024.70 431.81 1030.08 458.93 C 1032.97 472.00 1032.74 485.44 1032.67 498.75 C 974.09 498.75 915.52 498.74 856.95 498.75 C 860.00 516.99 869.92 534.08 884.66 545.31 C 909.68 564.94 947.63 564.90 973.07 546.08 C 979.85 541.14 985.69 535.01 990.73 528.32 C 1001.05 535.95 1011.36 543.58 1021.68 551.22 C 1008.80 568.48 991.16 582.31 970.94 589.87 C 939.40 601.60 902.85 599.65 872.94 584.12 C 848.42 571.48 829.04 549.23 820.10 523.11 C 807.67 487.74 813.58 446.33 836.41 416.43 C 846.29 403.27 859.13 392.34 873.75 384.78 M 880.80 425.80 C 869.11 435.83 861.24 449.89 857.80 464.82 C 901.68 464.83 945.56 464.84 989.44 464.82 C 986.07 449.32 977.80 434.74 965.45 424.65 C 953.15 414.44 936.98 409.14 921.02 409.89 C 906.32 410.43 891.89 416.13 880.80 425.80 Z" fill="#000000" opacity="1.00"/>
<path d="M 1131.85 377.57 C 1142.64 374.24 1154.04 375.22 1165.16 375.09 C 1165.16 388.36 1165.16 401.64 1165.16 414.91 C 1153.42 415.27 1141.17 413.50 1129.99 418.02 C 1116.29 423.07 1106.16 435.37 1102.09 449.19 C 1098.08 461.42 1099.31 474.41 1099.13 487.05 C 1099.12 522.27 1099.13 557.49 1099.12 592.71 C 1084.86 592.71 1070.60 592.71 1056.34 592.71 C 1056.33 520.72 1056.33 448.73 1056.34 376.75 C 1070.46 376.75 1084.58 376.75 1098.70 376.75 C 1098.71 385.60 1098.72 394.45 1098.70 403.30 C 1106.12 391.07 1117.97 381.41 1131.85 377.57 Z" fill="#000000" opacity="1.00"/>
</g>
</svg>