<?xml version="1.0" encoding="utf-8"?>
<svg xmlns="http://www.w3.org/2000/svg" height="333pt" version="1.1" viewBox="0 0 1217 333" width="1217pt">
<g id="#ff6d04ff">
<path d="M 53.15 4.09 C 59.82 -0.14 68.74 -0.45 75.65 3.39 C 82.43 7.23 89.16 11.16 95.91 15.07 C 89.50 18.77 83.09 22.46 76.68 26.16 C 73.06 24.21 69.64 21.86 65.91 20.12 C 63.59 19.23 61.23 21.66 61.70 23.98 C 61.66 97.20 61.71 170.41 61.68 243.62 C 55.27 239.92 48.85 236.22 42.44 232.53 C 42.44 162.67 42.42 92.81 42.45 22.95 C 42.44 15.36 46.65 7.99 53.15 4.09 Z" fill="#ff6d04" opacity="1.00"/>
<path d="M 117.93 49.98 C 124.34 46.27 130.76 42.58 137.17 38.88 C 197.65 73.76 258.15 108.63 318.62 143.53 C 325.15 147.23 329.55 154.39 329.81 161.90 C 330.31 169.93 326.10 178.03 319.18 182.16 C 312.90 185.88 306.54 189.46 300.22 193.13 C 300.22 185.73 300.23 178.33 300.22 170.93 C 303.31 169.03 306.62 167.47 309.58 165.36 C 311.52 163.73 310.49 160.57 308.27 159.77 C 244.83 123.16 181.36 86.60 117.93 49.98 Z" fill="#ff6d04" opacity="1.00"/>
<path d="M 1003.21 95.28 C 1027.78 94.95 1052.36 95.26 1076.94 95.12 C 1079.39 95.20 1082.32 94.77 1084.20 96.77 C 1085.92 98.38 1085.77 100.88 1085.81 103.03 C 1085.76 106.30 1085.92 109.57 1085.67 112.83 C 1085.49 115.64 1082.83 117.86 1080.05 117.69 C 1062.02 117.78 1043.98 117.69 1025.95 117.73 C 1023.33 117.57 1020.30 118.61 1019.45 121.33 C 1018.59 124.82 1019.12 128.47 1019.00 132.03 C 1019.14 136.65 1018.63 141.31 1019.32 145.89 C 1019.82 148.44 1022.59 149.57 1024.96 149.46 C 1039.75 149.66 1055.07 148.41 1069.18 153.75 C 1080.97 157.83 1091.21 167.00 1095.14 179.02 C 1099.60 192.65 1098.61 208.52 1090.80 220.77 C 1083.77 231.91 1071.51 238.89 1058.80 241.46 C 1044.65 244.30 1029.27 243.42 1016.33 236.60 C 1003.56 229.94 994.22 217.63 990.00 203.98 C 988.95 201.26 991.25 198.36 994.06 198.36 C 999.58 198.22 1005.17 197.98 1010.68 198.52 C 1015.10 199.56 1015.54 204.89 1017.94 208.02 C 1027.78 223.51 1052.15 225.93 1065.16 213.18 C 1075.60 203.25 1074.73 183.62 1062.50 175.51 C 1054.45 170.06 1044.33 170.13 1035.00 170.27 C 1025.29 170.14 1015.56 170.54 1005.86 170.07 C 1000.74 169.79 997.18 164.88 997.44 159.97 C 997.37 140.65 997.37 121.32 997.44 102.00 C 997.26 98.67 999.76 95.41 1003.21 95.28 Z" fill="#ff6d04" opacity="1.00"/>
<path d="M 1156.39 95.54 C 1160.61 94.68 1167.74 94.20 1168.39 99.98 C 1168.66 137.66 1168.37 175.35 1168.53 213.03 C 1168.40 215.79 1170.13 218.73 1173.02 219.20 C 1179.39 219.87 1185.84 218.97 1192.22 219.64 C 1194.47 219.86 1196.40 221.82 1196.57 224.09 C 1196.79 228.08 1196.76 232.09 1196.59 236.08 C 1196.46 239.31 1193.10 241.35 1190.09 241.00 C 1166.35 241.00 1142.60 241.01 1118.86 240.99 C 1115.88 241.33 1112.71 239.22 1112.59 236.08 C 1112.42 232.05 1112.36 227.99 1112.64 223.96 C 1112.83 221.46 1115.15 219.53 1117.62 219.53 C 1124.73 219.10 1131.88 219.80 1138.98 219.20 C 1141.91 218.80 1143.61 215.78 1143.46 213.01 C 1143.52 187.99 1143.50 162.97 1143.47 137.95 C 1143.92 135.18 1141.55 131.79 1138.55 133.33 C 1131.37 136.54 1123.88 139.31 1116.00 140.13 C 1113.42 140.57 1110.84 138.58 1110.66 135.96 C 1110.36 131.64 1110.37 127.27 1110.67 122.94 C 1110.84 120.12 1113.52 118.38 1116.07 117.93 C 1127.86 115.49 1139.38 110.50 1148.29 102.25 C 1150.89 99.94 1152.88 96.59 1156.39 95.54 Z" fill="#ff6d04" opacity="1.00"/>
<path d="M 67.35 305.25 C 133.97 266.84 200.58 228.40 267.21 189.99 C 267.21 197.39 267.21 204.79 267.21 212.20 C 203.57 248.91 139.93 285.62 76.27 322.31 C 70.14 325.92 62.29 326.36 55.83 323.37 C 48.15 320.05 42.68 312.18 42.47 303.79 C 42.35 295.90 42.46 288.01 42.43 280.12 C 48.85 283.83 55.28 287.52 61.69 291.24 C 61.79 295.46 61.44 299.70 61.86 303.90 C 62.63 306.18 65.58 306.69 67.35 305.25 Z" fill="#ff6d04" opacity="1.00"/>
</g>
<g id="#9b9b9bff">
<path d="M 133.92 5.85 C 141.58 1.36 151.58 1.33 159.25 5.81 C 198.35 28.36 237.47 50.91 276.57 73.48 C 284.15 77.81 289.15 86.28 289.20 95.03 C 289.27 101.30 289.19 107.58 289.22 113.86 C 285.57 111.76 281.92 109.66 278.28 107.55 C 278.60 103.16 277.32 98.20 273.15 95.99 C 269.14 93.42 264.15 94.77 260.49 97.28 C 219.38 73.60 178.28 49.89 137.20 26.17 C 123.44 34.10 109.69 42.03 95.94 49.97 C 137.03 73.72 178.17 97.39 219.27 121.12 C 200.84 131.75 182.41 142.38 163.98 153.01 C 160.45 155.06 156.70 156.91 153.83 159.90 C 149.08 164.63 146.48 171.34 146.62 178.03 C 146.63 200.96 146.61 223.89 146.63 246.82 C 123.33 260.29 99.99 273.72 76.68 287.18 C 58.32 276.61 39.98 266.01 21.63 255.43 C 18.07 253.37 14.32 251.48 11.42 248.50 C 6.58 243.67 3.88 236.84 4.03 230.01 C 4.03 185.31 4.03 140.60 4.03 95.89 C 3.83 87.16 8.47 78.51 15.93 73.95 C 21.05 70.87 26.27 67.98 31.43 64.97 C 31.43 122.93 31.44 180.89 31.42 238.85 C 45.16 246.81 58.93 254.72 72.68 262.66 C 72.69 188.83 72.68 115.00 72.68 41.17 C 93.10 29.39 113.51 17.61 133.92 5.85 Z" fill="#9b9b9b" opacity="1.00"/>
<path d="M 551.50 93.80 C 569.46 91.75 588.24 94.95 603.93 104.13 C 618.65 112.60 630.22 126.44 635.69 142.54 C 641.69 160.13 641.15 179.91 634.19 197.14 C 628.23 211.89 617.13 224.44 603.31 232.29 C 586.71 241.87 566.71 244.79 547.89 241.84 C 529.68 239.04 512.34 229.75 500.71 215.35 C 479.33 189.25 478.74 148.28 499.73 121.78 C 512.15 105.80 531.52 95.98 551.50 93.80 M 549.48 116.67 C 537.45 119.21 526.33 126.23 519.30 136.38 C 510.25 149.25 508.05 166.07 511.42 181.24 C 514.04 193.12 520.90 204.13 530.87 211.21 C 543.76 220.51 560.89 222.86 576.15 219.02 C 587.76 216.13 598.29 208.95 604.96 198.98 C 613.63 186.15 615.87 169.64 612.64 154.66 C 609.98 142.30 602.56 130.95 591.94 124.00 C 579.59 115.81 563.84 113.63 549.48 116.67 Z" fill="#9b9b9b" opacity="1.00"/>
<path d="M 353.26 95.40 C 357.81 94.83 362.42 95.29 366.99 95.13 C 369.63 95.24 372.52 94.77 374.92 96.14 C 376.64 97.08 377.38 99.00 378.09 100.72 C 390.93 136.01 403.78 171.30 416.62 206.59 C 417.25 208.16 418.02 210.14 419.99 210.32 C 421.84 209.81 422.44 207.85 423.08 206.28 C 435.66 171.21 448.29 136.17 460.88 101.11 C 461.70 98.59 463.31 95.91 466.14 95.41 C 470.41 94.85 474.75 95.26 479.06 95.12 C 481.43 95.23 484.37 94.77 486.11 96.79 C 487.38 98.38 486.88 100.55 486.23 102.28 C 469.67 145.33 453.03 188.35 436.48 231.40 C 435.14 235.18 433.35 239.81 428.89 240.66 C 422.93 241.34 416.88 240.95 410.90 240.92 C 407.20 241.01 404.03 238.36 402.91 234.94 C 385.54 190.71 368.23 146.44 350.91 102.18 C 349.66 99.76 350.07 95.91 353.26 95.40 Z" fill="#9b9b9b" opacity="1.00"/>
<path d="M 640.28 95.31 C 646.18 94.96 652.10 95.16 658.01 95.19 C 660.80 95.10 663.32 96.70 664.85 98.96 C 675.69 113.84 686.42 128.80 697.29 143.66 C 698.44 145.82 701.65 146.41 703.06 144.16 C 713.92 129.25 724.47 114.10 735.23 99.11 C 736.58 97.15 738.57 95.46 741.05 95.29 C 745.69 94.95 750.35 95.22 755.01 95.13 C 757.30 95.18 760.42 94.96 761.62 97.42 C 762.38 99.41 761.02 101.31 759.96 102.87 C 746.43 121.37 732.95 139.90 719.43 158.41 C 717.91 160.63 715.96 162.64 715.03 165.19 C 714.42 167.08 715.48 168.89 716.54 170.37 C 731.91 191.71 747.37 212.98 762.68 234.36 C 764.27 236.21 764.34 239.67 761.64 240.51 C 757.16 241.54 752.49 240.77 747.94 241.01 C 743.90 240.95 738.82 241.75 736.15 237.94 C 724.37 221.97 712.92 205.76 701.18 189.77 C 700.01 187.64 696.86 187.24 695.50 189.40 C 683.61 205.19 671.98 221.19 660.16 237.04 C 658.69 239.02 656.59 240.73 654.03 240.88 C 649.00 241.17 643.95 240.92 638.92 241.01 C 636.77 240.95 633.90 241.14 632.75 238.90 C 631.88 236.93 633.24 234.99 634.32 233.44 C 650.22 212.28 666.17 191.16 682.04 169.98 C 683.81 167.98 683.69 165.05 681.97 163.06 C 668.48 144.20 654.95 125.37 641.44 106.52 C 639.93 104.33 638.12 102.30 637.05 99.85 C 636.09 97.65 638.08 95.40 640.28 95.31 Z" fill="#9b9b9b" opacity="1.00"/>
<path d="M 781.27 95.34 C 804.16 94.86 827.09 95.30 850.00 95.12 C 852.67 95.21 855.93 94.69 857.93 96.93 C 860.13 99.42 859.17 103.00 859.42 106.01 C 859.23 108.74 859.95 111.88 858.13 114.20 C 856.69 116.03 854.15 116.08 852.04 116.13 C 836.33 116.15 820.62 116.09 804.91 116.15 C 802.67 115.87 800.50 117.62 800.84 119.98 C 800.76 131.34 800.76 142.71 800.84 154.07 C 800.52 156.37 802.65 158.13 804.85 157.85 C 819.92 157.98 834.99 157.77 850.06 157.95 C 852.78 157.89 855.23 160.21 855.30 162.94 C 855.43 166.92 855.59 170.93 855.16 174.90 C 854.59 177.67 851.72 179.00 849.10 178.84 C 834.71 178.90 820.31 178.85 805.92 178.85 C 804.51 178.94 802.89 178.79 801.79 179.83 C 800.51 181.24 800.88 183.30 800.77 185.04 C 800.86 195.39 800.70 205.75 800.85 216.10 C 800.55 218.39 802.72 220.06 804.88 219.79 C 821.62 219.89 838.37 219.74 855.12 219.86 C 857.65 219.71 860.28 221.49 860.57 224.11 C 860.97 228.08 860.87 232.11 860.66 236.09 C 860.63 238.94 857.92 241.15 855.14 240.96 C 831.74 241.07 808.33 240.95 784.93 241.02 C 782.48 241.00 779.69 241.02 777.84 239.15 C 776.22 237.56 776.00 235.18 775.99 233.04 C 776.00 189.66 775.99 146.27 776.00 102.88 C 775.66 99.51 777.58 95.68 781.27 95.34 Z" fill="#9b9b9b" opacity="1.00"/>
<path d="M 882.26 95.42 C 886.13 94.83 890.08 95.27 894.00 95.13 C 896.72 95.24 900.02 94.63 902.13 96.83 C 903.54 98.15 903.70 100.15 903.70 101.96 C 903.70 139.32 903.67 176.68 903.72 214.03 C 903.33 216.53 905.43 218.58 907.92 218.20 C 927.65 218.27 947.38 218.17 967.11 218.24 C 969.89 218.02 972.76 220.06 972.96 222.94 C 973.19 227.32 973.16 231.73 972.99 236.11 C 972.85 239.08 969.92 241.23 967.06 240.98 C 940.71 241.04 914.36 240.96 888.01 241.02 C 885.51 240.97 882.67 241.12 880.68 239.34 C 878.84 237.79 878.49 235.25 878.50 232.99 C 878.50 189.33 878.49 145.68 878.50 102.02 C 878.28 99.34 879.36 96.13 882.26 95.42 Z" fill="#9b9b9b" opacity="1.00"/>
<path d="M 278.22 217.97 C 278.22 197.02 278.21 176.07 278.22 155.12 C 281.89 157.24 285.57 159.35 289.22 161.49 C 289.20 184.65 289.26 207.82 289.20 230.98 C 289.18 240.00 283.86 248.64 275.96 252.94 C 237.07 275.37 198.18 297.81 159.28 320.22 C 151.78 324.59 142.03 324.72 134.45 320.48 C 128.91 317.37 123.45 314.14 117.94 310.98 C 127.48 305.46 137.04 299.99 146.57 294.45 C 146.64 297.25 146.55 300.28 148.25 302.68 C 150.99 307.11 157.32 308.75 161.81 306.05 C 196.35 286.19 230.85 266.25 265.36 246.35 C 270.86 243.27 275.17 238.11 277.05 232.08 C 278.57 227.53 278.18 222.68 278.22 217.97 Z" fill="#9b9b9b" opacity="1.00"/>
</g>
</svg>