<?xml version="1.0" encoding="utf-8"?>
<svg xmlns="http://www.w3.org/2000/svg" height="493pt" version="1.1" viewBox="0 0 1891 493" width="1891pt">
<g id="#eb1000ff">
<path d="M 0.00 0.00 L 206.09 0.00 C 204.93 3.20 203.70 6.37 202.35 9.49 C 134.86 170.79 67.55 332.17 0.00 493.44 L 0.00 0.00 Z" fill="#eb1000" opacity="1.00"/>
<path d="M 350.53 0.49 C 419.19 0.52 487.84 0.49 556.50 0.50 C 556.47 164.78 556.57 329.05 556.44 493.33 C 524.25 416.79 492.42 340.09 460.35 263.50 C 423.76 175.82 387.10 88.18 350.53 0.49 Z" fill="#eb1000" opacity="1.00"/>
<path d="M 1142.02 96.90 C 1141.78 95.19 1143.02 93.38 1144.92 93.76 C 1163.64 93.87 1182.38 93.49 1201.10 93.96 C 1201.45 175.63 1201.15 257.32 1201.25 339.00 C 1201.22 352.00 1201.37 365.03 1202.94 377.95 C 1203.36 379.58 1202.65 381.45 1200.94 381.96 C 1177.53 391.95 1152.37 397.87 1126.93 399.06 C 1098.75 400.64 1069.01 395.86 1045.52 379.32 C 1032.85 370.42 1022.49 358.24 1015.81 344.26 C 1008.67 329.54 1005.47 313.16 1004.90 296.88 C 1003.25 265.86 1014.60 233.86 1037.42 212.43 C 1064.73 185.94 1104.92 176.53 1141.99 180.29 C 1142.02 152.49 1141.97 124.70 1142.02 96.90 M 1078.14 249.97 C 1068.27 262.21 1064.86 278.55 1065.97 293.97 C 1066.69 308.07 1070.86 322.70 1080.89 333.05 C 1090.20 342.91 1103.82 347.56 1117.11 348.36 C 1125.44 348.75 1134.00 348.63 1142.01 346.00 C 1142.00 307.66 1141.99 269.33 1142.01 230.99 C 1134.56 228.57 1126.58 228.72 1118.87 229.34 C 1103.39 230.79 1087.93 237.61 1078.14 249.97 Z" fill="#eb1000" opacity="1.00"/>
<path d="M 1478.75 103.98 C 1479.16 100.70 1477.62 96.51 1480.06 93.88 C 1498.72 93.63 1517.41 93.72 1536.08 93.84 C 1538.34 93.73 1538.10 96.45 1538.23 97.98 C 1538.27 126.65 1538.24 155.32 1538.24 183.99 C 1559.06 178.60 1581.23 177.73 1602.21 182.75 C 1621.59 187.48 1639.71 198.03 1652.54 213.41 C 1666.63 229.98 1674.29 251.45 1675.55 273.04 C 1676.70 293.69 1673.52 314.84 1664.57 333.60 C 1658.12 347.25 1648.66 359.46 1637.09 369.15 C 1621.92 381.99 1603.44 390.60 1584.16 395.15 C 1563.36 400.26 1541.65 400.07 1520.48 397.76 C 1507.47 396.23 1494.55 393.67 1482.06 389.74 C 1479.58 389.10 1478.61 386.32 1478.75 384.02 C 1478.75 290.67 1478.75 197.33 1478.75 103.98 M 1538.25 233.18 C 1538.26 271.53 1538.24 309.87 1538.26 348.21 C 1557.90 352.26 1580.02 348.77 1595.51 335.39 C 1608.05 324.68 1614.19 308.13 1615.02 291.97 C 1616.05 275.84 1613.20 258.32 1602.30 245.77 C 1595.37 237.75 1585.43 232.74 1575.09 230.89 C 1562.84 228.69 1550.18 229.88 1538.25 233.18 Z" fill="#eb1000" opacity="1.00"/>
<path d="M 827.88 118.99 C 827.82 117.39 829.56 116.34 831.02 116.51 C 853.36 116.49 875.70 116.48 898.05 116.52 C 899.30 116.68 901.29 116.41 901.55 118.11 C 933.89 209.23 966.21 300.36 998.52 391.50 C 999.04 392.65 998.46 393.82 998.14 394.94 C 979.06 395.08 959.99 394.95 940.92 395.01 C 938.80 395.29 936.56 394.10 936.06 391.94 C 928.75 370.90 921.67 349.78 914.36 328.74 C 881.76 328.76 849.16 328.76 816.56 328.74 C 809.77 349.61 803.04 370.49 796.24 391.35 C 795.69 393.19 794.26 395.04 792.16 394.97 C 775.09 394.99 758.02 395.09 740.95 394.92 C 737.92 394.81 738.12 390.99 739.10 388.98 C 766.45 310.05 793.83 231.12 821.17 152.18 C 823.02 146.64 825.36 141.21 826.20 135.38 C 827.16 129.96 827.35 124.46 827.88 118.99 M 831.89 275.51 C 854.13 275.48 876.37 275.53 898.61 275.48 C 887.52 238.90 875.16 202.69 865.05 165.82 C 855.73 202.88 843.46 239.11 831.89 275.51 Z" fill="#eb1000" opacity="1.00"/>
<path d="M 1322.60 180.77 C 1344.29 177.72 1367.12 179.71 1387.19 188.90 C 1404.23 196.62 1418.64 209.79 1428.23 225.83 C 1437.41 241.00 1442.51 258.43 1444.07 276.05 C 1445.89 298.72 1442.97 322.16 1433.09 342.82 C 1425.34 359.31 1413.00 373.69 1397.57 383.45 C 1380.50 394.32 1360.10 399.47 1339.95 399.26 C 1321.20 399.44 1302.15 395.52 1285.72 386.30 C 1270.00 377.62 1257.21 364.03 1248.83 348.21 C 1237.40 326.82 1233.45 301.95 1235.42 277.93 C 1237.16 257.84 1243.74 237.98 1255.48 221.49 C 1270.90 199.31 1295.93 184.52 1322.60 180.77 M 1330.58 229.74 C 1317.57 232.21 1307.21 242.29 1301.90 254.10 C 1294.72 270.00 1293.77 288.14 1296.34 305.21 C 1298.56 319.33 1304.62 333.81 1316.57 342.36 C 1326.20 349.26 1338.93 351.36 1350.38 348.61 C 1360.45 346.21 1368.99 339.16 1374.26 330.37 C 1383.30 315.31 1384.94 297.04 1383.61 279.86 C 1382.25 264.92 1377.70 249.12 1366.14 238.82 C 1356.62 230.33 1342.95 227.41 1330.58 229.74 Z" fill="#eb1000" opacity="1.00"/>
<path d="M 1782.82 180.85 C 1801.99 178.00 1822.21 179.17 1840.17 186.88 C 1855.21 193.21 1867.99 204.54 1876.48 218.44 C 1885.76 233.40 1890.31 250.95 1891.00 268.45 L 1891.00 277.16 C 1890.44 284.95 1890.63 292.90 1888.66 300.52 C 1887.97 303.46 1884.47 303.43 1882.11 303.72 C 1867.44 304.85 1852.72 305.06 1838.01 305.00 C 1811.61 305.01 1785.21 304.99 1758.82 305.01 C 1759.73 314.85 1763.35 324.62 1770.14 331.93 C 1779.47 342.05 1793.20 346.71 1806.57 348.22 C 1829.07 350.54 1852.17 347.36 1873.09 338.71 C 1875.30 340.55 1873.84 344.37 1874.26 347.01 C 1874.18 359.03 1874.33 371.05 1874.21 383.07 C 1874.41 386.35 1870.79 387.22 1868.47 388.37 C 1855.10 394.30 1840.63 397.43 1826.09 398.56 C 1807.37 399.93 1788.25 399.82 1770.01 394.91 C 1752.42 390.26 1735.84 380.91 1723.80 367.13 C 1711.61 353.33 1704.04 335.87 1700.65 317.87 C 1696.54 295.83 1697.59 272.76 1704.28 251.33 C 1709.97 233.13 1720.12 216.11 1734.46 203.41 C 1747.92 191.36 1765.01 183.63 1782.82 180.85 M 1770.15 238.11 C 1763.62 245.04 1759.91 254.18 1758.41 263.48 C 1773.30 263.52 1788.19 263.49 1803.08 263.50 C 1813.69 263.38 1824.34 263.89 1834.92 262.84 C 1835.88 249.18 1827.72 235.24 1815.19 229.63 C 1800.35 223.42 1781.33 226.07 1770.15 238.11 Z" fill="#eb1000" opacity="1.00"/>
<path d="M 188.25 393.75 C 218.24 323.01 248.23 252.27 278.31 181.56 C 320.89 282.43 363.36 383.34 405.92 484.22 C 407.19 487.06 408.41 489.95 409.12 493.00 L 323.59 493.00 C 310.11 460.05 297.35 426.80 284.09 393.76 C 252.14 393.74 220.19 393.76 188.25 393.75 Z" fill="#eb1000" opacity="1.00"/>
</g>
</svg>