<?xml version="1.0" encoding="utf-8"?>
<svg xmlns="http://www.w3.org/2000/svg" height="586pt" version="1.1" viewBox="0 0 2127 586" width="2127pt">
<g id="#0f64ecff">
<path d="M 443.56 0.00 L 531.41 0.00 C 531.62 193.16 531.45 386.33 531.50 579.50 C 502.16 579.50 472.83 579.50 443.50 579.50 C 443.49 555.68 443.50 531.87 443.50 508.06 C 443.44 500.36 443.76 492.64 442.93 484.97 C 440.31 454.88 428.61 425.73 409.95 402.01 C 385.30 370.40 348.23 348.74 308.49 343.20 C 293.74 340.95 278.80 341.58 263.94 341.50 C 212.71 341.50 161.49 341.50 110.26 341.50 C 110.25 312.17 110.24 282.83 110.26 253.50 C 164.50 253.50 218.74 253.50 272.99 253.50 C 284.70 253.46 296.44 253.54 308.12 254.58 C 357.61 258.85 405.46 278.92 443.51 310.80 C 443.53 207.20 443.42 103.60 443.56 0.00 Z" fill="#0f64ec" opacity="1.00"/>
<path d="M 271.14 232.46 C 321.54 167.90 371.98 103.38 422.42 38.85 C 422.63 86.45 422.41 134.05 422.53 181.65 C 405.68 203.34 388.71 224.94 371.83 246.61 C 343.88 237.32 314.46 232.14 284.97 232.50 C 280.36 232.48 275.75 232.54 271.14 232.46 Z" fill="#0f64ec" opacity="1.00"/>
<path d="M 1146.98 248.95 C 1155.61 247.95 1164.31 247.74 1173.00 247.46 C 1173.00 276.80 1173.01 306.14 1172.99 335.48 C 1153.06 335.64 1133.13 339.30 1114.64 346.79 C 1093.98 355.02 1075.18 367.79 1059.71 383.75 C 1037.17 407.06 1021.98 437.43 1017.21 469.53 C 1015.32 480.93 1015.41 492.51 1015.50 504.03 C 1015.50 529.18 1015.51 554.34 1015.50 579.50 C 986.16 579.50 956.83 579.50 927.50 579.50 C 927.50 470.83 927.50 362.17 927.50 253.50 C 956.83 253.50 986.16 253.50 1015.50 253.50 C 1015.50 270.60 1015.51 287.70 1015.49 304.80 C 1052.53 273.76 1098.86 253.88 1146.98 248.95 Z" fill="#0f64ec" opacity="1.00"/>
<path d="M 1323.49 248.79 C 1362.02 244.10 1402.08 253.17 1434.67 274.30 C 1466.45 294.65 1491.09 325.91 1503.26 361.64 C 1515.53 397.31 1515.35 437.13 1502.72 472.67 C 1489.88 509.19 1463.97 540.89 1430.81 560.85 C 1398.83 580.40 1360.17 588.53 1323.01 583.91 C 1285.47 579.46 1249.68 561.75 1223.30 534.68 C 1196.97 508.18 1179.96 472.64 1175.87 435.50 C 1170.99 393.96 1182.32 350.75 1207.15 317.07 C 1234.28 279.54 1277.42 254.00 1323.49 248.79 M 1334.12 336.13 C 1316.43 338.21 1299.52 346.33 1286.92 358.92 C 1273.92 371.60 1265.44 388.80 1263.34 406.84 C 1261.02 425.37 1265.59 444.63 1275.80 460.25 C 1286.97 477.50 1304.88 490.31 1324.92 494.98 C 1344.36 499.74 1365.52 496.73 1382.93 486.89 C 1397.38 478.78 1409.31 466.19 1416.41 451.20 C 1425.41 432.80 1426.79 410.88 1420.40 391.44 C 1414.86 374.42 1403.52 359.33 1388.62 349.40 C 1372.82 338.64 1353.09 333.80 1334.12 336.13 Z" fill="#0f64ec" opacity="1.00"/>
<path d="M 1735.93 253.01 C 1752.94 249.29 1770.35 247.73 1787.74 247.46 C 1787.75 276.80 1787.75 306.14 1787.74 335.48 C 1751.05 335.45 1714.53 348.64 1686.50 372.34 C 1651.40 401.44 1629.91 446.36 1629.99 492.03 C 1630.00 521.19 1630.01 550.35 1629.99 579.50 C 1600.66 579.50 1571.34 579.50 1542.01 579.50 C 1541.99 470.83 1541.99 362.16 1542.01 253.50 C 1571.34 253.50 1600.66 253.50 1629.99 253.50 C 1630.01 270.61 1629.99 287.72 1630.00 304.84 C 1660.44 279.35 1697.08 261.28 1735.93 253.01 Z" fill="#0f64ec" opacity="1.00"/>
<path d="M 1846.64 289.68 C 1875.02 264.57 1912.07 249.40 1949.96 247.81 C 1985.33 245.97 2021.19 255.73 2050.72 275.30 C 2080.84 295.02 2104.35 324.63 2116.67 358.47 C 2122.84 374.91 2125.80 392.35 2127.00 409.82 L 2127.00 579.41 C 2097.67 579.62 2068.34 579.44 2039.01 579.50 C 2038.99 527.33 2039.00 475.16 2039.00 422.99 C 2039.10 414.91 2038.78 406.75 2036.98 398.84 C 2033.24 381.99 2023.88 366.48 2010.80 355.23 C 1998.84 344.89 1983.81 338.10 1968.10 336.20 C 1947.36 333.48 1925.68 339.43 1909.14 352.20 C 1895.84 362.35 1885.73 376.69 1880.89 392.72 C 1875.60 409.51 1876.19 428.03 1882.38 444.50 C 1888.77 461.72 1901.25 476.57 1917.05 485.91 C 1934.02 496.04 1954.81 499.61 1974.18 495.56 C 1990.86 492.25 2006.17 483.28 2017.75 470.89 C 2017.74 505.35 2017.75 539.81 2017.74 574.28 C 1972.51 591.61 1919.84 588.05 1877.42 564.64 C 1846.72 547.91 1821.39 521.45 1806.21 489.93 C 1788.33 453.56 1784.55 410.62 1795.34 371.59 C 1803.97 340.06 1822.08 311.24 1846.64 289.68 Z" fill="#0f64ec" opacity="1.00"/>
<path d="M 570.75 253.50 C 600.08 253.50 629.41 253.50 658.75 253.50 C 658.74 311.00 658.75 368.50 658.74 425.99 C 658.76 438.95 662.24 451.93 669.01 463.00 C 679.28 480.14 697.12 492.54 716.80 496.05 C 739.04 500.37 762.95 492.81 779.01 476.92 C 778.98 510.38 779.01 543.83 779.00 577.29 C 740.73 590.00 697.61 587.29 661.27 569.79 C 629.13 554.52 602.42 528.10 586.90 496.08 C 576.27 474.71 571.00 450.85 570.76 427.03 C 570.74 369.19 570.75 311.34 570.75 253.50 Z" fill="#0f64ec" opacity="1.00"/>
<path d="M 800.25 579.50 C 800.26 470.83 800.24 362.16 800.26 253.50 C 829.59 253.51 858.92 253.49 888.25 253.50 C 888.25 362.17 888.25 470.83 888.25 579.50 C 858.91 579.50 829.58 579.50 800.25 579.50 Z" fill="#0f64ec" opacity="1.00"/>
<path d="M 169.35 362.75 C 206.56 362.77 243.76 362.70 280.97 362.79 C 224.64 435.08 168.10 507.21 111.74 579.48 C 74.53 579.51 37.32 579.61 0.12 579.24 C 56.57 507.11 112.89 434.87 169.35 362.75 Z" fill="#0f64ec" opacity="1.00"/>
</g>
</svg>