<?xml version="1.0" encoding="utf-8"?>
<svg xmlns="http://www.w3.org/2000/svg" height="549pt" version="1.1" viewBox="0 0 1438 549" width="1438pt">
<g id="#ffffffff">
</g>
<g id="#3254dcff">
<path d="M 226.59 181.50 C 248.34 172.23 273.84 172.17 295.65 181.30 C 310.75 187.58 323.96 198.32 333.15 211.85 C 352.14 239.54 353.21 278.19 336.15 307.04 C 329.33 318.72 319.60 328.61 308.20 335.86 C 312.14 346.18 316.11 356.49 320.07 366.80 C 320.77 368.75 321.51 371.22 319.98 372.99 C 318.50 374.73 316.04 374.55 313.99 374.61 C 309.32 374.53 304.66 374.71 300.00 374.53 C 297.52 374.55 295.28 372.89 294.49 370.56 C 291.25 362.42 288.20 354.20 285.00 346.03 C 264.65 351.51 242.35 349.80 223.30 340.68 C 208.60 333.73 195.99 322.46 187.48 308.60 C 169.68 279.93 170.18 240.97 188.89 212.85 C 198.00 198.99 211.31 187.96 226.59 181.50 M 231.66 205.74 C 219.66 212.49 210.47 223.79 205.69 236.64 C 200.03 251.83 199.76 268.94 204.74 284.34 C 209.28 298.39 218.95 310.88 231.93 318.07 C 245.31 325.62 261.56 327.24 276.42 323.78 C 271.80 311.73 267.16 299.69 262.50 287.65 C 261.80 285.66 260.85 283.26 262.26 281.34 C 263.77 279.20 266.64 279.42 268.94 279.39 C 273.57 279.51 278.22 279.21 282.84 279.55 C 285.63 279.73 287.68 282.00 288.51 284.53 C 292.09 293.79 295.58 303.09 299.20 312.34 C 320.93 294.31 326.75 261.87 316.81 236.12 C 311.51 222.15 300.90 210.14 287.30 203.80 C 269.87 195.64 248.46 196.26 231.66 205.74 Z" fill="#3254dc" opacity="1.00"/>
<path d="M 637.18 178.14 C 642.30 176.96 647.72 177.79 652.97 177.60 C 656.48 177.18 659.21 180.56 658.76 183.91 C 658.74 235.97 658.76 288.03 658.75 340.09 C 659.00 342.87 657.02 345.88 654.07 345.99 C 649.35 346.21 644.61 346.10 639.89 346.06 C 636.61 346.30 633.70 343.33 633.95 340.07 C 633.86 288.38 633.96 236.68 633.90 184.99 C 633.68 182.33 634.52 179.29 637.18 178.14 Z" fill="#3254dc" opacity="1.00"/>
<path d="M 503.76 248.77 C 514.25 236.09 530.51 228.51 546.95 228.49 C 561.44 228.22 576.34 234.57 584.79 246.61 C 584.76 243.39 584.61 240.18 584.81 236.97 C 584.80 234.26 587.24 231.88 589.94 231.89 C 594.96 231.79 600.00 231.70 605.02 231.94 C 607.98 232.13 609.77 235.18 609.57 237.94 C 609.60 271.98 609.59 306.03 609.57 340.08 C 609.80 342.80 607.94 345.73 605.07 345.95 C 600.37 346.25 595.65 346.07 590.95 346.07 C 588.31 346.26 585.43 344.68 584.91 341.95 C 584.52 338.32 584.80 334.66 584.79 331.03 C 578.42 339.84 568.61 345.89 557.99 348.04 C 539.48 351.96 519.25 345.53 506.28 331.78 C 485.24 309.84 484.25 271.99 503.76 248.77 M 542.47 252.67 C 534.29 254.36 526.88 259.28 522.09 266.11 C 511.37 281.32 513.08 304.40 526.83 317.23 C 536.21 326.18 550.91 328.67 562.85 323.79 C 572.70 319.92 580.18 311.11 583.17 301.05 C 587.54 286.98 583.98 270.17 572.71 260.29 C 564.62 253.04 553.00 250.40 542.47 252.67 Z" fill="#3254dc" opacity="1.00"/>
<path d="M 721.43 229.62 C 736.49 226.92 752.74 228.96 766.01 236.85 C 768.69 238.73 772.68 240.30 773.08 244.00 C 772.78 247.82 769.50 250.47 767.63 253.60 C 765.67 256.08 763.87 260.16 760.05 259.51 C 756.09 258.26 752.82 255.48 748.91 254.09 C 737.02 248.99 722.13 250.52 712.40 259.37 C 696.50 273.84 695.97 301.79 711.00 317.06 C 720.15 326.33 734.94 328.90 746.94 324.12 C 751.24 322.69 754.89 319.83 759.16 318.34 C 762.17 317.46 764.23 320.20 765.82 322.27 C 768.04 325.30 770.69 328.04 772.64 331.27 C 774.02 333.51 772.65 336.27 770.68 337.63 C 758.34 347.02 742.16 350.31 726.92 348.81 C 713.29 347.56 699.98 341.55 690.62 331.45 C 681.37 321.63 676.16 308.41 675.11 295.04 C 673.73 279.11 677.66 262.36 687.72 249.71 C 695.95 239.13 708.28 232.02 721.43 229.62 Z" fill="#3254dc" opacity="1.00"/>
<path d="M 826.46 229.76 C 839.67 227.33 853.72 229.19 865.68 235.41 C 877.44 241.42 887.02 251.54 892.42 263.60 C 900.41 281.32 899.46 302.87 889.70 319.71 C 883.73 330.09 874.47 338.52 863.61 343.54 C 847.60 350.99 828.33 351.05 812.29 343.67 C 800.94 338.51 791.33 329.63 785.35 318.70 C 777.02 303.69 775.61 285.17 781.08 268.95 C 787.63 248.93 805.70 233.36 826.46 229.76 M 830.39 252.63 C 822.68 254.21 815.60 258.60 810.79 264.83 C 799.01 280.00 800.40 304.19 814.76 317.25 C 825.29 327.07 842.19 328.73 854.67 321.71 C 863.83 316.65 870.09 307.15 871.96 296.93 C 874.52 283.89 870.72 269.23 860.57 260.29 C 852.51 253.03 840.90 250.44 830.39 252.63 Z" fill="#3254dc" opacity="1.00"/>
<path d="M 363.83 237.97 C 363.42 234.94 365.84 231.89 368.95 231.90 C 373.66 231.74 378.37 231.80 383.08 231.86 C 385.93 231.62 388.68 234.04 388.55 236.95 C 388.67 256.95 388.50 276.95 388.63 296.96 C 388.74 305.46 391.12 314.52 397.54 320.48 C 404.10 326.65 413.67 328.31 422.36 327.46 C 429.96 326.74 437.47 323.28 442.24 317.21 C 446.80 311.54 448.86 304.18 448.91 296.98 C 448.93 277.31 448.89 257.63 448.92 237.96 C 448.60 235.00 450.86 231.93 453.94 231.89 C 458.97 231.79 464.02 231.70 469.05 231.95 C 471.96 232.16 474.02 235.09 473.75 237.91 C 473.76 271.94 473.75 305.97 473.75 340.00 C 474.06 342.82 471.99 345.67 469.12 345.94 C 464.39 346.26 459.65 346.07 454.92 346.07 C 452.34 346.28 449.48 344.68 449.08 341.98 C 448.70 338.60 448.95 335.19 448.96 331.81 C 442.91 340.40 433.40 346.26 423.09 348.12 C 408.39 350.81 391.96 348.54 380.14 338.83 C 369.23 330.00 364.02 315.74 363.85 301.99 C 363.81 280.65 363.85 259.31 363.83 237.97 Z" fill="#3254dc" opacity="1.00"/>
<path d="M 936.14 237.03 C 936.96 234.80 938.41 232.38 940.99 232.03 C 945.95 231.54 950.95 231.98 955.93 231.80 C 958.76 231.92 962.22 231.29 964.36 233.64 C 966.30 236.06 966.94 239.20 968.10 242.02 C 976.72 265.38 985.37 288.73 994.01 312.09 C 1002.97 288.02 1011.99 263.97 1020.92 239.89 C 1021.83 237.62 1022.43 235.05 1024.25 233.29 C 1026.04 231.58 1028.68 231.88 1030.97 231.80 C 1036.00 231.92 1041.05 231.68 1046.10 231.91 C 1049.04 231.87 1051.03 234.46 1051.86 237.01 C 1061.10 262.03 1070.36 287.05 1079.62 312.07 C 1088.50 288.08 1097.40 264.10 1106.23 240.09 C 1107.14 237.81 1107.73 235.27 1109.47 233.45 C 1111.45 231.45 1114.49 231.89 1117.06 231.80 C 1122.05 231.95 1127.05 231.60 1132.04 231.97 C 1134.63 232.15 1136.31 234.47 1137.12 236.73 C 1146.58 261.84 1156.01 286.96 1165.47 312.07 C 1174.67 287.03 1183.85 261.98 1193.03 236.94 C 1193.85 234.31 1195.96 231.77 1198.97 231.89 C 1204.99 231.77 1211.04 231.77 1217.07 231.89 C 1220.15 231.75 1222.27 234.41 1223.12 237.09 C 1236.23 271.55 1249.49 305.96 1262.56 340.43 C 1263.82 342.92 1262.01 346.23 1259.09 346.00 C 1253.38 346.14 1247.65 346.21 1241.96 345.96 C 1239.33 345.87 1237.35 343.76 1236.62 341.38 C 1227.01 315.57 1217.44 289.74 1207.79 263.94 C 1198.00 289.76 1188.27 315.60 1178.48 341.42 C 1177.71 343.82 1175.71 345.98 1173.04 345.98 C 1167.68 346.16 1162.30 346.20 1156.96 345.96 C 1154.24 345.89 1152.41 343.56 1151.64 341.18 C 1141.83 315.27 1132.02 289.35 1122.19 263.43 C 1112.51 289.33 1102.89 315.25 1093.21 341.15 C 1092.41 343.45 1090.64 345.71 1088.05 345.92 C 1082.69 346.27 1077.31 346.08 1071.95 346.04 C 1068.99 346.21 1066.48 344.07 1065.64 341.34 C 1056.00 315.39 1046.44 289.41 1036.82 263.45 C 1026.90 289.33 1017.04 315.24 1007.15 341.13 C 1006.36 343.41 1004.69 345.77 1002.06 345.92 C 996.68 346.24 991.26 346.13 985.88 345.99 C 983.17 346.04 981.08 343.93 980.31 341.48 C 970.59 315.48 960.92 289.45 951.21 263.44 C 941.42 289.59 931.73 315.78 921.92 341.92 C 921.14 344.44 918.64 346.10 916.04 346.02 C 910.40 346.06 904.72 346.33 899.10 345.86 C 896.30 345.42 895.73 342.01 896.87 339.84 C 909.95 305.57 923.07 271.31 936.14 237.03 Z" fill="#3254dc" opacity="1.00"/>
</g>
</svg>