<?xml version="1.0" encoding="utf-8"?>
<svg xmlns="http://www.w3.org/2000/svg" height="100%" style="fill-rule:evenodd;clip-rule:evenodd;stroke-linejoin:round;stroke-miterlimit:2;" version="1.1" viewBox="0 0 269 65" width="100%">
    <g id="Artboard1" transform="matrix(0.980753,0,0,0.933035,4.43162,7.69064)">
        <rect height="69.586" style="fill:none;" width="273.695" x="-4.519" y="-8.243"/>
        <g transform="matrix(1.01963,0,0,1.07177,10.3881,1.40334)">
            <path d="M42.84,19.06C42.84,20.91 41.61,22.6 39.58,23.87L39.57,23.87L38.84,24.3L37.53,25.05C35.49,24.22 32.99,23.74 30.3,23.74C27.09,23.74 24.16,24.43 21.95,25.56L5.41,35.1C2.19,33.81 0.1,31.68 0.1,29.26C0.1,27.41 1.33,25.72 3.35,24.45L5.4,23.26C7.45,24.09 9.94,24.57 12.63,24.57C15.83,24.57 18.74,23.89 20.96,22.76L37.52,13.2C40.73,14.5 42.83,16.63 42.83,19.05L42.84,19.06Z" style="fill:url(#_Radial1);fill-rule:nonzero;"/>
        </g>
        <g transform="matrix(1.01963,0,0,1.07177,10.3881,1.40334)">
            <path d="M42.84,30.91C42.84,32.76 41.61,34.45 39.58,35.72L39.57,35.72L38.84,36.15L20.97,46.46C18.75,47.58 15.84,48.27 12.64,48.27C5.71,48.26 0.1,45.06 0.1,41.11C0.1,39.26 1.33,37.57 3.35,36.3L5.4,35.12C7.45,35.95 9.94,36.43 12.63,36.43C15.83,36.43 18.74,35.75 20.96,34.62L37.53,25.06C40.74,26.36 42.84,28.49 42.84,30.91Z" style="fill:url(#_Radial2);fill-rule:nonzero;"/>
        </g>
        <g transform="matrix(1.01963,0,0,1.07177,10.3881,1.40334)">
            <path d="M42.84,7.21C42.84,9.06 41.61,10.75 39.58,12.02L39.57,12.02L38.84,12.45L37.53,13.21C35.49,12.38 32.99,11.9 30.3,11.9C27.09,11.9 24.16,12.59 21.95,13.72L5.4,23.26C2.19,21.97 0.1,19.83 0.1,17.42C0.1,15.57 1.33,13.88 3.35,12.61L21.94,1.88C24.16,0.74 27.09,0.05 30.3,0.05C37.22,0.05 42.84,3.26 42.84,7.21Z" style="fill:url(#_Radial3);fill-rule:nonzero;"/>
        </g>
        <g transform="matrix(1.01963,0,0,1.07177,10.3881,1.40334)">
            <path d="M88.86,39.69L88.86,8.56C88.86,8.26 89.1,8.01 89.41,8.01L92.65,8.01C92.93,8.01 93.2,8.15 93.36,8.38L110.58,32.88C110.65,32.98 110.8,32.93 110.8,32.81L110.8,8.56C110.8,8.26 111.04,8.01 111.35,8.01L114.49,8.01C114.79,8.01 115.04,8.25 115.04,8.56L115.04,39.69C115.04,39.99 114.8,40.24 114.49,40.24L111.08,40.24C110.9,40.24 110.74,40.15 110.63,40.01L93.54,15.67C93.4,15.48 93.1,15.57 93.1,15.81L93.1,39.69C93.1,39.99 92.86,40.24 92.55,40.24L89.41,40.24C89.11,40.24 88.86,40 88.86,39.69Z" style="fill:rgb(25,0,35);fill-rule:nonzero;"/>
        </g>
        <g transform="matrix(1.01963,0,0,1.07177,10.3881,1.40334)">
            <path d="M134.26,40.93C130.88,40.93 128.02,40.22 125.66,38.81C123.3,37.39 121.51,35.42 120.27,32.9C119.04,30.38 118.42,27.46 118.42,24.15C118.42,20.84 119.03,17.92 120.27,15.4C121.5,12.88 123.3,10.91 125.66,9.49C128.02,8.07 130.88,7.37 134.26,7.37C138.19,7.37 141.42,8.32 143.95,10.21C146.33,11.99 148.02,14.35 149.01,17.28C149.11,17.59 148.92,17.93 148.61,18L145.42,18.8C145.14,18.87 144.87,18.7 144.78,18.44C144.07,16.27 142.88,14.54 141.22,13.24C139.44,11.85 137.12,11.16 134.26,11.16C131.73,11.16 129.63,11.7 127.95,12.79C126.27,13.88 125.01,15.4 124.16,17.36C123.31,19.31 122.88,21.58 122.86,24.14C122.84,26.71 123.26,28.96 124.11,30.91C124.96,32.86 126.23,34.38 127.92,35.48C129.62,36.58 131.73,37.12 134.26,37.12C137.12,37.12 139.44,36.42 141.22,35.03C142.88,33.73 144.07,32 144.78,29.84C144.87,29.57 145.14,29.41 145.42,29.48L148.61,30.28C148.92,30.36 149.11,30.7 149.01,31C148.02,33.94 146.33,36.3 143.95,38.07C141.41,39.97 138.18,40.91 134.26,40.91L134.26,40.93Z" style="fill:rgb(25,0,35);fill-rule:nonzero;"/>
        </g>
        <g transform="matrix(1.01963,0,0,1.07177,10.3881,1.40334)">
            <path d="M166.46,40.95C163.08,40.95 160.22,40.24 157.86,38.83C155.5,37.41 153.71,35.44 152.48,32.92C151.25,30.4 150.63,27.48 150.63,24.17C150.63,20.86 151.24,17.94 152.48,15.42C153.71,12.9 155.5,10.93 157.86,9.51C160.22,8.09 163.08,7.39 166.46,7.39C169.84,7.39 172.73,8.1 175.08,9.51C177.44,10.93 179.23,12.9 180.45,15.42C181.67,17.94 182.29,20.86 182.29,24.17C182.29,27.48 181.68,30.4 180.45,32.92C179.22,35.44 177.43,37.41 175.08,38.83C172.72,40.25 169.85,40.95 166.46,40.95ZM166.46,37.15C168.99,37.16 171.09,36.62 172.78,35.53C174.46,34.43 175.73,32.91 176.57,30.95C177.42,29 177.84,26.74 177.84,24.17C177.84,21.6 177.41,19.35 176.57,17.4C175.72,15.45 174.46,13.93 172.78,12.85C171.1,11.76 169,11.21 166.46,11.19C163.93,11.17 161.83,11.71 160.16,12.8C158.49,13.89 157.23,15.42 156.38,17.38C155.53,19.34 155.1,21.61 155.09,24.17C155.07,26.74 155.49,28.99 156.34,30.93C157.19,32.87 158.46,34.39 160.14,35.48C161.83,36.58 163.93,37.13 166.46,37.15Z" style="fill:rgb(25,0,35);fill-rule:nonzero;"/>
        </g>
        <g transform="matrix(1.01963,0,0,1.07177,10.3881,1.40334)">
            <path d="M210.78,39.46L204.41,27.5C206.05,26.92 207.37,25.97 208.36,24.7C209.76,22.88 210.48,20.72 210.48,18.2C210.48,16.5 210.15,14.94 209.49,13.52C208.86,12.1 207.88,10.95 206.59,10.02C205.31,9.07 203.69,8.49 201.81,8.2C201.36,8.14 200.91,8.08 200.44,8.06C199.96,8.06 199.57,8.03 199.21,8.03L185.91,8.03C185.61,8.03 185.34,8.29 185.34,8.58L185.34,39.72C185.34,40.01 185.61,40.27 185.91,40.27L189.11,40.27C189.44,40.27 189.68,40.01 189.68,39.72L189.68,28.92C189.68,28.6 189.95,28.37 190.25,28.37L199.96,28.37L206.08,39.95C206.17,40.15 206.35,40.27 206.59,40.27L210.27,40.27C210.72,40.27 210.99,39.84 210.78,39.46L210.79,39.46L210.78,39.46ZM190.25,24.58C189.95,24.58 189.68,24.32 189.68,24.03L189.68,12.36C189.68,12.04 189.95,11.81 190.25,11.81L199.07,11.81C199.4,11.81 199.73,11.84 200.14,11.87C200.53,11.9 200.92,11.93 201.28,12.01C202.39,12.24 203.31,12.67 204,13.31C204.69,13.94 205.23,14.7 205.55,15.56C205.88,16.43 206.03,17.29 206.03,18.19C206.03,19.09 205.88,19.95 205.55,20.82C205.22,21.69 204.68,22.41 204,23.04C203.31,23.67 202.39,24.11 201.28,24.37C200.92,24.43 200.53,24.49 200.14,24.51C199.72,24.54 199.39,24.57 199.07,24.57L190.25,24.57L190.25,24.58Z" style="fill:rgb(25,0,35);fill-rule:nonzero;"/>
        </g>
        <g transform="matrix(1.01963,0,0,1.07177,10.3881,1.40334)">
            <path d="M214.21,39.71L214.21,8.58C214.21,8.28 214.47,8.03 214.8,8.03L225.46,8.03C225.83,8.03 226.48,8.03 227.41,8.05C228.34,8.06 229.23,8.12 230.07,8.23C232.89,8.56 235.25,9.47 237.15,10.95C239.05,12.43 240.48,14.32 241.45,16.61C242.41,18.9 242.9,21.41 242.9,24.14C242.9,26.87 242.42,29.4 241.45,31.69C240.49,33.98 239.06,35.86 237.15,37.34C235.25,38.82 232.89,39.72 230.07,40.05C229.22,40.15 228.33,40.21 227.39,40.23C226.45,40.25 225.81,40.25 225.45,40.25L214.79,40.25C214.46,40.25 214.2,40.01 214.2,39.7L214.21,39.71ZM218.32,35.91C218.32,36.21 218.58,36.46 218.91,36.46L226.09,36.49C226.73,36.49 227.45,36.47 228.25,36.43C229.04,36.39 229.74,36.33 230.33,36.24C232.32,35.91 233.94,35.17 235.17,34.03C236.4,32.88 237.31,31.45 237.88,29.73C238.46,28.01 238.74,26.16 238.74,24.18C238.74,22.2 238.45,20.28 237.86,18.57C237.27,16.86 236.36,15.44 235.12,14.3C233.88,13.16 232.28,12.43 230.32,12.12C229.73,12.02 229.03,11.95 228.22,11.92C227.41,11.89 226.7,11.87 226.09,11.87L218.91,11.84C218.58,11.84 218.32,12.08 218.32,12.39L218.32,35.91Z" style="fill:rgb(25,0,35);fill-rule:nonzero;"/>
        </g>
        <g transform="matrix(1.01963,0,0,1.07177,10.3881,1.40334)">
            <path d="M82.62,28.8C82.36,28.65 82.04,28.77 81.92,29.04C81.45,30.15 80.81,31.18 80.06,32.09C77.74,34.9 74.22,36.7 70.28,36.7L70.26,36.7C66.32,36.7 62.8,34.9 60.48,32.08C60.48,32.08 82.57,19.38 82.58,19.37C83.62,18.67 84.31,17.48 84.31,16.13C84.31,15.34 84.07,14.6 83.66,13.98C83.61,13.91 83.45,13.7 83.41,13.65C80.33,9.81 75.58,7.35 70.26,7.35L70.24,7.35C64.77,7.35 59.91,9.96 56.85,13.98C56.01,15.07 55.31,16.27 54.77,17.55C53.92,19.55 53.45,21.75 53.44,24.06L53.44,24.09C53.44,26.39 53.9,28.59 54.75,30.58C55.29,31.86 55.99,33.06 56.83,34.16C59.89,38.2 64.76,40.82 70.25,40.83L70.27,40.83C75.75,40.83 80.62,38.22 83.69,34.18C84.43,33.21 85.07,32.15 85.58,31.01C85.69,30.77 85.6,30.5 85.37,30.37L82.61,28.78L82.62,28.8ZM57.62,24.11L57.62,24.08C57.62,22.53 57.91,21.04 58.43,19.67C58.92,18.36 59.63,17.15 60.51,16.09C62.83,13.3 66.34,11.52 70.26,11.51L70.28,11.51C72.91,11.51 75.35,12.3 77.37,13.67C78.37,14.34 79.26,15.15 80.04,16.08L58.43,28.5C57.92,27.13 57.64,25.65 57.64,24.1L57.62,24.11Z" style="fill:rgb(25,0,35);fill-rule:nonzero;"/>
        </g>
    </g>
    <defs>
        <radialGradient cx="0" cy="0" gradientTransform="matrix(-62.9798,68.9717,70.2197,64.1194,66.6217,-28.5106)" gradientUnits="userSpaceOnUse" id="_Radial1" r="1">
      <stop offset="0" style="stop-color:rgb(255,239,221);stop-opacity:1"/>
      <stop offset="0.99" style="stop-color:rgb(94,68,255);stop-opacity:1"/>
      <stop offset="1" style="stop-color:rgb(94,68,255);stop-opacity:1"/>
    </radialGradient>
        <radialGradient cx="0" cy="0" gradientTransform="matrix(-62.9798,68.9717,70.2197,64.1194,66.6217,-28.5106)" gradientUnits="userSpaceOnUse" id="_Radial2" r="1">
      <stop offset="0" style="stop-color:rgb(255,239,221);stop-opacity:1"/>
      <stop offset="0.99" style="stop-color:rgb(94,68,255);stop-opacity:1"/>
      <stop offset="1" style="stop-color:rgb(94,68,255);stop-opacity:1"/>
    </radialGradient>
        <radialGradient cx="0" cy="0" gradientTransform="matrix(-62.9798,68.9717,70.2197,64.1194,66.6217,-28.5106)" gradientUnits="userSpaceOnUse" id="_Radial3" r="1">
      <stop offset="0" style="stop-color:rgb(255,239,221);stop-opacity:1"/>
      <stop offset="0.99" style="stop-color:rgb(94,68,255);stop-opacity:1"/>
      <stop offset="1" style="stop-color:rgb(94,68,255);stop-opacity:1"/>
    </radialGradient>
    </defs>
</svg>