<?xml version="1.0" encoding="utf-8"?>
<svg xmlns="http://www.w3.org/2000/svg" height="683pt" version="1.1" viewBox="0 0 2037 683" width="2037pt">
<g id="#161d26ff">
<path d="M 139.58 0.00 L 152.77 0.00 C 170.53 0.75 188.41 3.36 205.01 9.93 C 219.25 15.47 232.36 24.05 242.79 35.25 C 253.59 46.62 261.46 60.59 266.47 75.40 C 272.43 92.96 274.76 111.57 275.00 130.05 C 275.00 201.06 275.00 272.08 275.00 343.09 C 275.40 349.01 270.11 354.65 264.09 354.17 C 245.69 354.14 227.30 354.23 208.91 354.13 C 203.33 354.25 198.83 349.64 197.74 344.41 C 194.74 331.02 192.02 317.58 189.12 304.17 C 188.31 304.18 186.69 304.21 185.88 304.22 C 178.49 322.70 165.47 339.11 148.20 349.22 C 129.70 360.46 107.24 363.28 86.01 360.99 C 68.17 359.13 50.63 352.69 36.62 341.34 C 18.99 327.44 7.24 306.87 2.73 285.00 C 1.23 278.21 0.55 271.27 0.00 264.34 L 0.00 251.57 C 0.87 232.16 5.86 212.74 16.02 196.06 C 26.30 179.09 41.45 165.33 58.74 155.73 C 87.34 139.82 120.61 134.40 153.01 134.57 C 164.27 134.56 175.59 135.17 186.66 137.41 C 186.77 120.76 186.56 103.27 178.92 88.06 C 173.97 77.97 164.64 70.10 153.64 67.53 C 140.96 64.60 127.01 65.30 115.28 71.27 C 103.66 77.19 96.04 88.77 92.09 100.90 C 90.47 105.60 89.78 111.17 85.60 114.44 C 82.44 117.04 78.08 116.68 74.33 115.91 C 56.35 112.67 38.34 109.56 20.35 106.36 C 16.74 105.71 12.93 104.07 11.12 100.68 C 9.58 97.42 9.96 93.65 10.65 90.22 C 15.44 70.29 25.40 51.42 40.14 37.06 C 53.78 23.69 70.81 14.02 88.93 8.14 C 105.26 2.80 122.45 0.49 139.58 0.00 M 139.07 185.12 C 123.86 188.91 109.66 197.84 100.91 211.00 C 93.43 222.12 90.59 235.79 90.91 249.04 C 91.03 261.05 94.15 273.56 102.12 282.83 C 109.27 291.11 120.18 295.48 131.00 295.73 C 141.82 296.30 153.04 293.37 161.47 286.36 C 172.18 277.61 178.06 264.45 181.58 251.37 C 187.47 229.49 186.64 206.64 186.66 184.20 C 170.96 181.40 154.60 181.20 139.07 185.12 Z" fill="#161d26" opacity="1.00"/>
<path d="M 493.05 0.00 L 502.76 0.00 C 519.87 0.74 537.02 5.86 550.84 16.18 C 566.83 27.59 578.25 44.40 585.49 62.48 C 586.27 62.49 587.83 62.52 588.61 62.54 C 597.87 46.78 608.94 31.77 623.30 20.28 C 638.18 8.10 656.96 0.96 676.16 0.00 L 685.90 0.00 C 702.25 0.69 718.59 5.43 732.10 14.82 C 744.99 23.54 755.38 35.66 762.75 49.31 C 772.24 66.77 777.41 86.30 779.87 105.94 C 782.68 127.52 781.36 149.32 781.67 171.01 C 781.67 228.37 781.66 285.73 781.67 343.09 C 782.05 348.89 776.97 354.50 771.05 354.16 C 750.03 354.20 729.00 354.13 707.98 354.19 C 704.68 354.16 701.13 354.48 698.19 352.72 C 694.74 350.90 693.21 346.81 693.32 343.09 C 693.34 277.40 693.34 211.70 693.32 146.01 C 693.34 130.17 691.78 113.47 683.32 99.66 C 677.99 90.75 669.00 84.06 658.77 82.00 C 647.12 79.63 634.30 80.80 624.03 87.12 C 613.91 93.28 607.40 103.91 603.84 114.98 C 597.63 133.65 598.34 153.58 598.33 172.99 C 598.34 229.68 598.33 286.37 598.34 343.06 C 598.60 347.75 595.43 352.44 590.90 353.76 C 587.98 354.42 584.97 354.13 582.02 354.18 C 563.01 354.17 544.00 354.15 524.99 354.19 C 521.47 354.15 517.65 354.54 514.55 352.54 C 511.31 350.66 509.90 346.73 509.99 343.14 C 510.01 277.76 510.00 212.37 510.00 146.99 C 510.05 133.52 509.06 119.70 503.82 107.13 C 500.07 98.04 493.64 89.72 484.71 85.27 C 474.51 80.22 462.42 79.80 451.50 82.51 C 439.33 85.54 429.44 94.81 424.16 106.00 C 415.78 123.35 414.89 143.08 415.00 162.02 C 415.01 222.38 414.99 282.75 415.00 343.11 C 415.39 349.05 410.07 354.67 404.04 354.17 C 381.66 354.15 359.27 354.21 336.89 354.14 C 331.38 354.36 326.51 349.58 326.70 344.05 C 326.64 235.34 326.66 126.62 326.68 17.90 C 326.45 12.37 331.52 7.50 336.96 7.53 C 355.31 7.45 373.66 7.53 392.00 7.49 C 395.34 7.29 398.70 8.58 400.87 11.16 C 403.86 14.22 404.26 18.67 405.11 22.64 C 407.60 34.81 410.01 46.99 412.59 59.14 C 413.37 59.15 414.93 59.18 415.71 59.19 C 422.37 42.29 432.65 26.31 447.58 15.59 C 460.67 5.83 476.83 0.79 493.05 0.00 Z" fill="#161d26" opacity="1.00"/>
<path d="M 964.62 0.00 L 977.78 0.00 C 995.53 0.75 1013.41 3.36 1030.00 9.93 C 1044.23 15.47 1057.34 24.04 1067.77 35.23 C 1077.70 45.69 1085.18 58.34 1090.20 71.83 C 1097.10 90.38 1099.73 110.28 1100.00 129.99 C 1100.00 201.05 1100.00 272.10 1100.00 343.16 C 1100.32 348.67 1095.70 354.13 1090.06 354.13 C 1072.36 354.25 1054.65 354.10 1036.95 354.20 C 1034.03 354.20 1030.91 354.19 1028.35 352.60 C 1024.84 350.59 1023.14 346.63 1022.34 342.85 C 1019.60 329.96 1016.86 317.07 1014.12 304.18 C 1013.31 304.19 1011.70 304.20 1010.89 304.21 C 1004.32 320.41 993.64 335.17 979.24 345.25 C 966.33 354.64 950.72 359.94 934.88 361.26 C 917.85 362.64 900.36 360.86 884.40 354.54 C 866.90 347.70 851.84 335.05 841.68 319.28 C 832.13 304.63 827.01 287.41 825.50 270.07 C 823.72 249.01 826.19 227.27 834.88 207.86 C 841.16 193.55 850.82 180.82 862.58 170.57 C 888.50 147.95 923.02 137.87 956.78 135.30 C 975.05 134.14 993.61 133.90 1011.66 137.41 C 1011.77 120.29 1011.55 102.18 1003.21 86.72 C 997.91 76.69 988.07 69.27 976.91 67.12 C 963.57 64.52 948.83 65.70 937.13 73.09 C 926.96 79.53 920.43 90.38 916.85 101.66 C 915.42 105.97 914.66 110.91 911.06 114.06 C 908.40 116.53 904.49 116.87 901.08 116.19 C 882.50 112.91 863.91 109.64 845.33 106.35 C 841.73 105.71 837.95 104.08 836.14 100.71 C 834.58 97.46 834.95 93.67 835.64 90.25 C 840.17 71.46 849.23 53.61 862.64 39.60 C 876.28 25.29 893.77 14.93 912.44 8.64 C 929.22 2.95 946.95 0.50 964.62 0.00 M 960.87 186.01 C 945.77 190.47 931.95 200.24 924.04 214.01 C 916.72 226.66 914.88 241.82 916.35 256.18 C 917.61 267.63 922.14 279.33 931.23 286.82 C 939.16 293.53 949.85 296.18 960.09 295.75 C 970.73 295.59 981.38 291.57 989.04 284.09 C 999.06 274.49 1004.30 261.09 1007.47 247.84 C 1012.41 227.00 1011.63 205.45 1011.66 184.20 C 994.88 181.22 977.30 181.15 960.87 186.01 Z" fill="#161d26" opacity="1.00"/>
<path d="M 1558.12 0.00 L 1570.26 0.00 C 1593.59 1.00 1616.72 7.95 1636.35 20.69 C 1661.87 36.56 1681.79 60.48 1694.50 87.56 C 1711.78 122.39 1717.31 162.15 1714.26 200.67 C 1711.61 234.97 1700.64 268.78 1681.38 297.38 C 1664.13 322.92 1639.26 343.78 1610.04 354.10 C 1574.11 366.56 1532.82 363.88 1499.33 345.58 C 1473.62 331.70 1453.09 309.37 1439.10 283.91 C 1421.61 252.33 1413.86 215.94 1414.15 179.99 C 1414.02 143.50 1422.52 106.69 1440.85 74.97 C 1454.72 50.44 1475.13 29.46 1499.98 16.02 C 1517.77 6.22 1537.87 0.94 1558.12 0.00 M 1554.46 71.80 C 1544.05 73.75 1534.76 79.95 1528.25 88.21 C 1519.67 99.04 1514.68 112.24 1511.43 125.54 C 1506.30 147.27 1505.49 169.75 1506.05 191.99 C 1506.83 213.23 1509.26 234.83 1517.28 254.69 C 1522.31 267.11 1530.29 279.11 1542.37 285.59 C 1558.80 294.20 1580.67 292.21 1594.59 279.64 C 1606.18 269.32 1612.59 254.54 1616.65 239.85 C 1622.65 217.48 1623.66 194.12 1623.15 171.07 C 1622.46 150.26 1620.16 129.12 1612.52 109.59 C 1607.49 97.12 1600.07 84.88 1588.46 77.57 C 1578.47 71.21 1565.97 69.62 1554.46 71.80 Z" fill="#161d26" opacity="1.00"/>
<path d="M 1928.93 0.00 L 1938.73 0.00 C 1955.43 0.75 1972.15 5.45 1986.01 14.97 C 2000.81 24.81 2012.33 39.06 2020.10 54.96 C 2031.83 78.44 2035.70 104.87 2037.00 130.82 L 2037.00 344.92 C 2035.67 349.81 2031.57 354.48 2026.12 354.16 C 2004.07 354.20 1982.03 354.14 1959.99 354.19 C 1956.05 354.38 1951.63 352.93 1949.74 349.24 C 1947.63 345.51 1948.46 341.08 1948.33 337.02 C 1948.31 272.34 1948.39 207.66 1948.29 142.98 C 1948.16 125.56 1945.09 106.55 1932.62 93.43 C 1920.25 80.33 1899.93 78.28 1883.42 83.46 C 1869.72 87.79 1859.82 99.77 1854.97 112.92 C 1846.96 133.64 1848.48 156.22 1848.33 177.99 C 1848.33 233.01 1848.33 288.04 1848.34 343.06 C 1848.70 348.70 1843.91 354.28 1838.13 354.14 C 1815.74 354.21 1793.35 354.15 1770.96 354.17 C 1765.27 354.66 1759.88 349.98 1760.04 344.19 C 1759.96 235.43 1760.00 126.66 1760.02 17.90 C 1759.77 12.14 1765.24 7.20 1770.90 7.50 C 1789.27 7.50 1807.65 7.48 1826.03 7.51 C 1831.65 7.25 1836.32 12.08 1837.34 17.35 C 1840.22 31.28 1843.01 45.23 1845.89 59.16 C 1846.69 59.16 1848.28 59.16 1849.07 59.16 C 1855.73 42.39 1866.27 26.80 1881.00 16.13 C 1894.83 5.96 1911.87 0.76 1928.93 0.00 Z" fill="#161d26" opacity="1.00"/>
<path d="M 1148.34 17.92 C 1148.10 12.26 1153.41 7.33 1158.98 7.50 C 1232.01 7.49 1305.05 7.51 1378.09 7.49 C 1384.12 7.15 1389.71 12.95 1389.18 18.97 C 1389.15 34.01 1389.17 49.04 1389.17 64.08 C 1389.53 71.11 1388.85 78.65 1384.37 84.40 C 1341.29 143.60 1298.22 202.80 1255.13 261.98 C 1274.95 258.63 1295.22 259.90 1315.09 262.17 C 1337.49 265.13 1359.51 270.98 1380.41 279.58 C 1384.25 281.24 1388.46 282.48 1391.58 285.43 C 1394.45 288.08 1395.89 292.03 1395.84 295.91 C 1395.85 311.27 1395.81 326.64 1395.85 342.00 C 1395.91 345.51 1395.91 349.53 1393.23 352.19 C 1390.21 355.23 1385.37 354.54 1381.73 353.16 C 1356.50 343.66 1330.37 336.11 1303.50 333.22 C 1264.99 329.26 1225.79 333.10 1188.62 343.84 C 1178.89 346.57 1169.26 349.63 1159.71 352.93 C 1156.31 354.06 1152.37 354.66 1149.08 352.92 C 1145.96 351.19 1144.85 347.38 1144.99 344.03 C 1145.01 328.69 1145.00 313.35 1145.00 298.00 C 1144.99 293.39 1144.71 288.65 1146.24 284.23 C 1147.57 279.72 1150.67 276.11 1153.32 272.33 C 1199.67 207.42 1246.01 142.51 1292.36 77.59 C 1249.59 77.58 1206.83 77.58 1164.07 77.59 C 1160.33 77.54 1156.29 77.98 1152.97 75.93 C 1149.57 74.00 1148.13 69.84 1148.32 66.11 C 1148.36 50.05 1148.31 33.98 1148.34 17.92 Z" fill="#161d26" opacity="1.00"/>
</g>
<g id="#ff6200ff">
<path d="M 1265.54 380.74 C 1293.91 378.27 1322.86 381.60 1349.69 391.23 C 1357.82 394.38 1366.15 398.28 1371.85 405.12 C 1377.59 412.46 1379.02 422.10 1379.51 431.14 C 1380.04 448.60 1377.52 466.08 1373.24 482.98 C 1367.75 503.46 1359.72 523.39 1348.20 541.25 C 1335.01 562.15 1317.32 579.80 1298.14 595.21 C 1292.07 599.76 1285.62 604.36 1278.08 605.99 C 1269.11 608.28 1260.33 598.70 1262.31 589.94 C 1263.97 581.82 1268.28 574.56 1272.44 567.50 C 1289.30 540.90 1302.77 512.06 1311.47 481.77 C 1313.72 472.77 1316.07 463.26 1313.96 454.02 C 1312.97 449.03 1308.64 445.74 1304.17 443.94 C 1294.92 440.18 1284.85 439.14 1274.97 438.53 C 1248.09 437.04 1221.11 439.80 1194.72 444.90 C 1183.70 447.09 1172.23 449.80 1161.02 447.39 C 1153.00 445.59 1149.06 435.20 1153.18 428.29 C 1156.99 421.88 1163.50 417.75 1169.44 413.52 C 1198.07 394.81 1231.52 383.69 1265.54 380.74 Z" fill="#ff6200" opacity="1.00"/>
<path d="M 234.30 400.44 C 239.41 398.20 245.13 399.90 249.95 402.09 C 260.66 407.07 269.78 414.73 279.00 421.98 C 332.03 463.46 391.43 496.65 454.24 520.82 C 492.16 535.51 531.34 546.73 570.95 555.86 C 654.46 575.04 740.43 583.01 826.06 580.88 C 888.79 579.40 951.45 572.67 1012.92 559.97 C 1083.05 545.45 1152.66 525.08 1216.15 491.38 C 1223.81 487.69 1231.57 483.60 1240.09 482.39 C 1249.81 481.32 1258.32 491.40 1256.46 500.80 C 1255.00 508.32 1250.28 514.67 1245.50 520.45 C 1234.55 533.24 1221.23 543.69 1208.03 554.02 C 1151.14 597.72 1084.80 627.70 1016.35 648.20 C 945.31 669.69 871.21 680.65 797.04 681.97 C 781.06 682.71 765.07 682.03 749.09 681.55 C 706.42 679.98 663.87 675.13 621.96 666.97 C 586.40 659.99 551.20 650.96 516.99 638.95 C 479.16 625.74 442.52 609.13 407.64 589.40 C 352.37 558.44 302.25 518.18 260.70 470.31 C 252.02 460.21 243.27 450.09 236.12 438.82 C 231.31 431.01 226.72 422.46 226.60 413.06 C 226.45 407.83 229.37 402.49 234.30 400.44 Z" fill="#ff6200" opacity="1.00"/>
</g>
</svg>