<?xml version="1.0" encoding="utf-8"?>
<svg xmlns="http://www.w3.org/2000/svg" height="100%" style="fill-rule:evenodd;clip-rule:evenodd;stroke-linejoin:round;stroke-miterlimit:2;" version="1.1" viewBox="0 0 2597 2591" width="100%">
  <rect height="2590.25" id="Artboard1" style="fill:none;" width="2596.3" x="0" y="0"/>
  <path d="M362.104,348.597c-23.167,20.833 -45.45,47.641 -59,77c-15,32.5 -30.231,77.339 -31,118c-5.167,273.333 -3.833,1251.67 0,1522c0.485,34.2 11.167,70.667 23,100c11.21,27.787 27.047,54.581 48,76c22.5,23 57,47.667 87,62c28.888,13.802 60.988,23.531 93,24c272.833,4 1270,4.5 1544,0c34.522,-0.567 70.833,-13.667 100,-27c27.841,-12.727 54,-31.5 75,-53c21,-21.5 39.02,-47.942 51,-76c12.667,-29.667 24.463,-66.998 25,-102c4.167,-271.833 3.5,-1258.5 0,-1529c-0.415,-32.103 -8.833,-64.667 -21,-94c-12.167,-29.333 -30,-58.833 -52,-82c-22,-23.167 -50.132,-43.583 -80,-57c-31.167,-14 -70.22,-26.392 -107,-27c-272,-4.5 -1255.67,-3.333 -1525,0c-31.055,0.384 -62.5,8.667 -91,20c-28.5,11.333 -56.876,27.205 -80,48Zm93,98c12.5,-11.756 28.802,-19.338 45,-25c17.167,-6 38.323,-10.859 58,-11c255.333,-1.833 1217.17,-2.333 1474,0c22.815,0.207 47.333,5.667 67,14c19.16,8.118 38.167,22.667 51,36c11.814,12.274 19.949,28.075 26,44c6.333,16.667 11.852,36.91 12,56c2,257.333 2.5,1229.5 0,1488c-0.209,21.586 -6.667,44.333 -15,63c-8.182,18.329 -21.667,36.5 -35,49c-12.638,11.848 -28.675,20.202 -45,26c-17.833,6.333 -40.95,11.835 -62,12c-255.667,2 -1215.17,2.5 -1472,0c-23.536,-0.229 -49,-6.333 -69,-15c-19.271,-8.351 -38.167,-23.167 -51,-37c-11.979,-12.912 -20.096,-29.406 -26,-46c-6.167,-17.333 -10.859,-38.323 -11,-58c-1.833,-255.667 -2.333,-1219 0,-1476c0.204,-22.489 5.167,-46 14,-66c8.833,-20 25,-40.833 39,-54Z" style="fill:url(#_Linear1);"/>
  <path d="M1092.1,810.597l-284,0l-42,6l-42,18l-29,23l-24,33l-12,28l-8,39l0,416l14,55l15,27l20,23l25,19l30,14l26,7l33,3l129,1l-1,45l-8,32l-12,21l-22,21l-30,15l-28,7l-105,4l1,131l121,-3l58,-11l42,-15l45,-26l29,-26l22,-28l22,-45l12,-46l4,-37l-1,-751Zm-240,130l90,0l1,1l0,448l-1,1l-93,0l-11,-3l-9,-4l-7,-5l-9,-9l-7,-11l-5,-16l0,-355l8,-21l8,-10l9,-7l10,-5l16,-4Z" style="fill:url(#_Linear2);"/>
  <path d="M1205.1,811.597l0,709l150,0l1,-580l141,1l2,580l148,-1l1,-580c0,0 82,-0.833 104,3c11.3,1.969 22,13.667 28,20c4.516,4.767 7.882,11.435 8,18c1.667,92.833 2,539 2,539l150,-1c0,0 1.167,-463.333 -1,-566c-0.362,-17.136 -4.573,-34.553 -12,-50c-8.333,-17.333 -23.333,-40.167 -38,-54c-14.016,-13.22 -32.333,-22.5 -50,-29c-17.667,-6.5 -37.04,-9.731 -56,-10c-105.667,-1.5 -578,1 -578,1Z" style="fill:url(#_Linear3);fill-rule:nonzero;"/>
  <path d="M1205.1,1667.6l1,131l734,-1l-1,-131l-734,1Z" style="fill:#1190d4;fill-rule:nonzero;"/>
  <defs>
    <linearGradient gradientTransform="matrix(1.25343e-13,2047,-2047,1.25343e-13,272.104,280.597)" gradientUnits="userSpaceOnUse" id="_Linear1" x1="0" x2="1" y1="0" y2="0">
      <stop offset="0" style="stop-color:#4cdbf9;stop-opacity:1"/>
      <stop offset="1" style="stop-color:#0e8dd2;stop-opacity:1"/>
    </linearGradient>
    <linearGradient gradientTransform="matrix(6.04976e-14,988,-988,6.04976e-14,651.104,810.597)" gradientUnits="userSpaceOnUse" id="_Linear2" x1="0" x2="1" y1="0" y2="0">
      <stop offset="0" style="stop-color:#00b3d8;stop-opacity:1"/>
      <stop offset="1" style="stop-color:#0e8dd2;stop-opacity:1"/>
    </linearGradient>
    <linearGradient gradientTransform="matrix(4.35362e-14,711,-711,4.35362e-14,1205.1,810.597)" gradientUnits="userSpaceOnUse" id="_Linear3" x1="0" x2="1" y1="0" y2="0">
      <stop offset="0" style="stop-color:#00c0e8;stop-opacity:1"/>
      <stop offset="1" style="stop-color:#0e8dd2;stop-opacity:1"/>
    </linearGradient>
  </defs>
</svg>