<?xml version="1.0" encoding="utf-8"?>
<svg xmlns="http://www.w3.org/2000/svg" height="125pt" version="1.1" viewBox="0 0 796 125" width="796pt">
<g id="#000000ff">
<path d="M 83.88 0.00 L 113.56 0.00 C 110.75 0.67 107.89 1.25 104.98 1.16 C 88.18 0.92 71.34 1.82 54.74 4.41 C 47.22 5.79 39.42 6.96 32.65 10.70 C 30.65 11.67 28.48 14.38 30.67 16.29 C 35.20 20.43 41.65 21.27 47.38 22.78 C 71.22 27.52 95.64 28.31 119.89 28.48 C 146.63 27.97 173.83 27.37 199.74 20.03 C 196.05 24.79 190.10 26.74 184.58 28.48 C 167.39 33.35 149.50 35.04 131.73 36.29 C 111.92 37.51 92.04 37.58 72.21 36.52 C 82.78 41.07 93.01 46.72 101.72 54.31 C 107.27 59.30 112.22 66.08 112.01 73.89 C 111.94 90.99 112.32 108.08 112.03 125.17 C 111.15 117.91 111.02 110.55 109.34 103.40 C 106.07 87.69 97.61 73.04 85.25 62.74 C 70.84 50.40 52.72 43.66 34.81 38.19 C 25.81 35.29 16.48 33.20 7.91 29.12 C 4.49 27.55 1.23 25.16 0.00 21.44 L 0.00 19.16 C 0.38 16.86 1.82 14.94 3.80 13.75 C 9.34 10.24 15.80 8.61 22.10 7.04 C 42.36 2.35 63.20 1.26 83.88 0.00 Z" fill="#000000" opacity="1.00"/>
<path d="M 726.76 24.71 C 735.10 20.33 744.58 18.73 753.90 18.26 C 768.27 17.54 783.05 19.78 795.88 26.55 C 795.87 30.78 795.87 35.02 795.88 39.26 C 780.74 31.12 762.91 27.69 745.96 31.14 C 739.49 32.47 732.90 35.32 728.93 40.82 C 724.67 47.07 724.96 56.18 729.95 61.94 C 734.26 66.97 740.81 69.30 747.15 70.44 C 758.24 72.25 769.74 71.52 780.50 68.32 C 780.50 64.00 780.50 59.69 780.50 55.38 C 767.88 55.36 755.26 55.39 742.63 55.36 C 742.61 52.24 742.62 49.12 742.62 46.01 C 760.33 45.99 778.04 46.00 795.75 46.00 C 795.75 55.63 795.74 65.25 795.76 74.87 C 778.81 83.58 758.90 84.91 740.43 81.26 C 731.34 79.26 721.97 75.43 716.24 67.77 C 710.58 60.54 709.51 50.50 711.96 41.84 C 714.08 34.29 719.97 28.32 726.76 24.71 Z" fill="#000000" opacity="1.00"/>
<path d="M 247.63 19.88 C 277.62 19.88 307.62 19.85 337.61 19.89 C 337.63 23.72 337.63 27.55 337.62 31.38 C 325.12 31.36 312.62 31.39 300.12 31.37 C 300.12 48.24 300.13 65.12 300.12 81.99 C 295.08 82.00 290.04 82.00 285.00 82.00 C 284.99 65.12 285.01 48.25 284.99 31.37 C 272.54 31.37 260.09 31.39 247.64 31.36 C 247.62 27.53 247.62 23.71 247.63 19.88 Z" fill="#000000" opacity="1.00"/>
<path d="M 356.88 19.88 C 361.92 19.87 366.96 19.87 371.99 19.88 C 372.04 29.92 371.94 39.96 372.04 50.01 C 372.05 55.97 373.78 62.40 378.47 66.40 C 384.15 71.02 391.87 71.75 398.92 71.28 C 404.63 70.91 410.69 69.12 414.52 64.61 C 418.02 60.65 419.20 55.17 419.25 50.01 C 419.26 39.95 419.24 29.90 419.25 19.85 C 424.33 19.89 429.41 19.86 434.50 19.88 C 434.46 29.91 434.56 39.94 434.46 49.96 C 434.24 58.72 431.92 68.13 425.20 74.22 C 417.36 81.40 406.19 83.01 395.95 83.13 C 385.70 83.02 374.42 81.68 366.50 74.51 C 359.54 68.48 356.96 58.93 356.88 50.01 C 356.86 39.97 356.88 29.93 356.88 19.88 Z" fill="#000000" opacity="1.00"/>
<path d="M 458.88 19.88 C 475.91 19.92 492.94 19.76 509.97 19.97 C 518.39 20.38 527.76 20.91 534.49 26.64 C 542.32 33.90 541.00 48.16 532.44 54.33 C 528.03 57.78 522.50 59.17 517.12 60.20 C 525.13 67.34 532.89 74.76 540.80 82.02 C 534.54 81.98 528.28 82.01 522.01 82.00 C 515.08 74.99 507.73 68.41 500.84 61.36 C 491.93 61.38 483.03 61.37 474.12 61.37 C 474.12 68.24 474.12 75.12 474.12 81.99 C 469.04 82.00 463.96 82.00 458.88 81.99 C 458.87 61.29 458.87 40.59 458.88 19.88 M 474.13 31.64 C 474.11 37.64 474.12 43.63 474.12 49.63 C 485.11 49.60 496.09 49.66 507.08 49.60 C 511.54 49.44 516.23 49.45 520.36 47.52 C 525.54 45.23 525.79 36.87 520.99 34.02 C 516.77 31.61 511.65 31.89 506.95 31.64 C 496.01 31.61 485.07 31.62 474.13 31.64 Z" fill="#000000" opacity="1.00"/>
<path d="M 562.63 19.88 C 567.67 19.88 572.70 19.85 577.74 19.90 C 577.76 40.60 577.74 61.30 577.75 81.99 C 572.71 82.00 567.66 82.00 562.62 81.99 C 562.63 61.29 562.62 40.58 562.63 19.88 Z" fill="#000000" opacity="1.00"/>
<path d="M 602.26 19.86 C 607.75 19.89 613.25 19.87 618.75 19.87 C 637.34 35.81 656.21 51.44 674.62 67.57 C 674.63 51.67 674.61 35.78 674.63 19.88 C 679.71 19.87 684.79 19.88 689.87 19.87 C 689.88 40.58 689.87 61.29 689.87 82.00 C 684.16 81.96 678.44 82.08 672.73 81.98 C 671.71 81.98 670.83 81.61 670.10 80.88 C 652.55 65.96 635.13 50.90 617.50 36.08 C 617.49 51.37 617.51 66.67 617.49 81.96 C 612.41 82.03 607.33 82.00 602.25 82.00 C 602.25 61.28 602.24 40.57 602.26 19.86 Z" fill="#000000" opacity="1.00"/>
</g>
</svg>