<?xml version="1.0" encoding="utf-8"?>
<svg xmlns="http://www.w3.org/2000/svg" height="165pt" version="1.1" viewBox="0 0 1779 165" width="1779pt">
<g id="#eb6223ff">
<path d="M 1410.57 0.00 L 1413.52 0.00 C 1428.26 0.48 1442.51 6.96 1452.76 17.54 C 1462.85 6.98 1477.02 0.63 1491.62 0.00 L 1494.61 0.00 C 1506.39 0.42 1518.08 4.34 1527.41 11.60 C 1541.95 22.62 1550.65 40.79 1550.29 59.01 C 1550.46 75.25 1543.42 91.40 1531.44 102.36 C 1508.63 121.55 1485.95 140.91 1463.20 160.17 C 1457.90 164.77 1450.06 166.08 1443.56 163.48 C 1439.65 162.03 1436.70 158.99 1433.68 156.26 C 1413.76 138.23 1393.83 120.21 1373.90 102.19 C 1365.49 94.41 1359.49 84.08 1356.83 72.94 C 1352.43 54.92 1356.74 34.90 1368.70 20.64 C 1378.84 8.14 1394.50 0.53 1410.57 0.00 M 1404.01 29.28 C 1392.05 32.84 1383.49 44.64 1383.01 56.99 C 1382.47 66.21 1386.20 75.62 1393.11 81.80 C 1412.36 99.17 1431.54 116.63 1450.84 133.95 C 1471.42 116.46 1492.00 98.97 1512.63 81.55 C 1520.44 74.48 1523.99 63.23 1521.99 52.93 C 1520.07 41.98 1511.86 32.15 1501.04 29.15 C 1491.18 26.10 1479.99 29.55 1472.99 36.98 C 1466.29 44.14 1459.45 51.18 1452.82 58.41 C 1445.88 51.29 1439.16 43.95 1432.29 36.77 C 1425.18 29.37 1413.86 26.06 1404.01 29.28 Z" fill="#eb6223" opacity="1.00"/>
</g>
<g id="#050101ff">
<path d="M 193.27 13.49 C 203.68 13.51 214.09 13.49 224.50 13.50 C 224.52 55.03 224.47 96.55 224.52 138.07 C 225.09 147.04 224.86 156.02 224.80 165.00 L 224.30 165.00 C 224.03 164.85 223.49 164.56 223.22 164.42 C 213.25 165.09 203.24 164.61 193.25 164.75 C 193.25 114.33 193.22 63.91 193.27 13.49 Z" fill="#050101" opacity="1.00"/>
<path d="M 490.50 13.50 C 500.92 13.49 511.33 13.50 521.74 13.50 C 521.76 33.64 521.76 53.79 521.74 73.94 C 555.09 54.21 588.42 34.45 621.71 14.64 C 623.54 13.34 625.82 13.46 627.96 13.45 C 642.66 13.57 657.36 13.43 672.06 13.54 C 674.32 13.53 676.57 13.28 678.84 13.07 C 676.80 15.41 673.71 16.43 671.15 18.09 C 631.84 41.23 592.40 64.16 553.16 87.42 C 596.93 112.72 640.74 137.98 684.41 163.46 C 666.59 163.58 648.78 163.43 630.96 163.54 C 626.98 163.94 623.87 161.14 620.57 159.41 C 587.63 140.70 554.73 121.88 521.75 103.22 C 521.75 123.73 521.76 144.24 521.75 164.75 C 511.35 164.89 500.95 164.46 490.57 165.00 L 490.55 165.00 C 490.43 114.50 490.52 64.00 490.50 13.50 Z" fill="#050101" opacity="1.00"/>
<path d="M 922.02 13.49 C 959.00 13.51 995.98 13.50 1032.96 13.49 C 1049.04 13.00 1066.36 15.30 1079.27 25.70 C 1096.03 38.65 1099.01 65.00 1087.26 82.19 C 1080.30 92.43 1069.05 98.69 1057.58 102.65 C 1071.43 123.30 1085.10 144.06 1098.90 164.74 C 1090.60 164.71 1082.30 164.84 1074.01 164.70 C 1071.58 164.75 1069.03 163.93 1066.75 165.00 L 1066.25 165.00 C 1066.16 164.48 1065.96 163.43 1065.87 162.91 C 1053.37 146.57 1041.89 129.44 1029.81 112.78 C 1004.37 112.72 978.94 112.76 953.51 112.76 C 953.57 130.17 953.33 147.59 953.64 165.00 L 953.18 165.00 C 942.80 164.43 932.39 164.92 922.00 164.74 C 922.01 114.32 921.97 63.91 922.02 13.49 M 950.43 43.38 C 950.59 57.08 950.45 70.79 950.51 84.49 C 977.66 84.50 1004.81 84.50 1031.96 84.49 C 1039.79 84.45 1048.14 83.54 1054.59 78.68 C 1059.57 75.18 1062.46 69.05 1062.04 62.98 C 1062.04 56.80 1058.22 51.08 1052.96 48.04 C 1044.66 42.81 1034.47 43.15 1025.04 43.25 C 1000.17 43.33 975.30 43.08 950.43 43.38 Z" fill="#050101" opacity="1.00"/>
<path d="M 1135.50 13.50 C 1177.35 13.49 1219.21 13.50 1261.06 13.50 C 1272.14 13.71 1283.49 15.45 1293.43 20.60 C 1300.76 24.38 1307.00 30.62 1309.68 38.55 C 1313.09 48.88 1311.90 60.90 1305.84 70.03 C 1302.11 75.86 1296.32 79.92 1290.34 83.17 C 1297.84 86.16 1304.98 90.53 1310.05 96.93 C 1319.03 107.62 1320.23 123.10 1315.98 136.02 C 1312.08 147.69 1301.94 156.45 1290.54 160.52 C 1283.35 163.32 1275.62 164.02 1268.04 165.00 L 1135.53 165.00 C 1135.46 114.50 1135.51 64.00 1135.50 13.50 M 1164.25 74.75 C 1195.51 74.75 1226.76 74.75 1258.01 74.75 C 1265.12 74.62 1272.84 73.27 1278.14 68.14 C 1284.77 61.90 1284.97 49.30 1276.99 44.07 C 1268.37 38.69 1257.73 39.60 1248.01 39.50 C 1220.11 39.48 1192.21 39.54 1164.31 39.47 C 1164.18 51.23 1164.28 62.99 1164.25 74.75 M 1164.25 101.25 C 1164.23 112.98 1164.28 124.71 1164.23 136.45 C 1196.80 136.57 1229.38 136.46 1261.95 136.50 C 1269.85 136.37 1278.48 135.15 1284.53 129.60 C 1289.15 125.37 1289.93 118.14 1287.49 112.59 C 1285.16 107.62 1280.22 104.36 1275.06 102.91 C 1267.57 100.66 1259.67 101.35 1251.96 101.25 C 1222.72 101.25 1193.49 101.25 1164.25 101.25 Z" fill="#050101" opacity="1.00"/>
<path d="M 0.51 13.50 C 10.84 13.49 21.16 13.49 31.49 13.50 C 31.52 53.83 31.49 94.16 31.51 134.49 C 73.10 134.51 114.68 134.48 156.27 134.51 C 156.08 144.67 156.03 154.83 156.04 165.00 L 0.59 165.00 C 0.38 114.50 0.55 64.00 0.51 13.50 Z" fill="#050101" opacity="1.00"/>
<path d="M 261.26 13.50 C 271.82 13.48 282.38 13.53 292.94 13.47 C 294.48 13.55 296.29 13.17 297.47 14.46 C 339.50 51.35 381.43 88.36 423.51 125.20 C 423.49 87.97 423.50 50.74 423.50 13.50 C 433.58 13.49 443.66 13.50 453.74 13.50 C 453.76 63.92 453.75 114.33 453.75 164.75 C 443.75 164.77 433.75 164.73 423.75 164.77 C 394.61 139.42 365.52 114.00 336.40 88.63 C 321.40 75.72 306.72 62.43 291.53 49.76 C 291.46 88.09 291.52 126.42 291.50 164.74 C 281.42 164.76 271.34 164.75 261.25 164.75 C 261.24 114.33 261.24 63.92 261.26 13.50 Z" fill="#050101" opacity="1.00"/>
<path d="M 721.00 13.50 C 774.89 13.46 828.77 13.57 882.65 13.45 C 882.87 23.21 882.70 32.98 882.75 42.75 C 838.34 42.76 793.92 42.74 749.51 42.76 C 749.49 52.92 749.50 63.08 749.51 73.24 C 792.92 73.26 836.34 73.24 879.75 73.25 C 879.75 83.08 879.75 92.92 879.75 102.75 C 836.34 102.76 792.92 102.74 749.51 102.76 C 749.49 113.59 749.49 124.41 749.51 135.24 C 794.75 135.25 840.00 135.24 885.24 135.25 C 885.20 145.17 885.39 155.09 885.13 165.00 L 721.21 165.00 C 720.72 143.33 721.14 121.65 721.00 99.97 C 721.00 71.15 721.00 42.33 721.00 13.50 Z" fill="#050101" opacity="1.00"/>
<path d="M 1587.21 13.57 C 1650.97 13.40 1714.73 13.54 1778.49 13.50 C 1778.52 23.24 1778.47 32.98 1778.52 42.71 C 1751.35 42.81 1724.18 42.72 1697.01 42.76 C 1696.99 83.42 1697.00 124.08 1697.00 164.75 C 1687.53 164.89 1678.05 164.47 1668.60 165.00 L 1668.56 165.00 C 1668.41 124.25 1668.55 83.51 1668.49 42.76 C 1641.41 42.74 1614.33 42.76 1587.25 42.75 C 1587.22 33.02 1587.29 23.30 1587.21 13.57 Z" fill="#050101" opacity="1.00"/>
</g>
</svg>