<?xml version="1.0" encoding="utf-8"?>
<svg xmlns="http://www.w3.org/2000/svg" height="301pt" version="1.1" viewBox="0 0 1369 301" width="1369pt">
<g id="#3caf49ff">
<path d="M 85.55 0.00 L 116.45 0.00 C 114.99 1.68 113.62 3.45 112.16 5.13 C 80.91 40.47 49.66 75.81 18.42 111.16 C 12.19 104.39 6.86 96.73 0.00 90.59 L 0.00 89.41 C 2.90 87.56 4.89 84.68 7.17 82.18 C 29.53 56.85 51.93 31.57 74.28 6.24 C 77.10 2.80 81.24 0.84 85.55 0.00 Z" fill="#3caf49" opacity="1.00"/>
<path d="M 144.64 0.00 L 173.88 0.00 C 131.56 48.05 89.08 95.98 46.67 143.96 C 40.61 136.93 34.56 129.89 28.50 122.85 C 62.59 84.18 96.81 45.63 130.89 6.95 C 134.19 2.71 139.25 0.16 144.64 0.00 Z" fill="#3caf49" opacity="1.00"/>
<path d="M 201.65 0.00 L 231.01 0.00 C 185.29 52.08 139.23 103.87 93.38 155.84 C 122.49 189.67 151.62 223.47 180.73 257.28 C 193.14 271.90 205.96 286.17 218.10 301.00 L 192.56 301.00 C 186.68 300.78 180.26 299.33 176.36 294.54 C 136.48 248.25 96.62 201.95 56.75 155.65 C 100.84 105.76 144.96 55.89 189.04 5.99 C 192.15 2.25 196.86 0.31 201.65 0.00 Z" fill="#3caf49" opacity="1.00"/>
</g>
<g id="#006ab6ff">
<path d="M 465.50 17.70 C 470.98 16.43 477.04 17.93 481.18 21.76 C 486.21 26.19 488.44 33.52 486.63 39.99 C 484.77 47.35 477.68 52.99 470.05 53.02 C 461.26 53.55 452.69 46.73 451.66 37.90 C 450.09 28.89 456.46 19.40 465.50 17.70 Z" fill="#006ab6" opacity="1.00"/>
<path d="M 281.50 22.12 C 290.66 22.12 299.83 22.13 309.00 22.12 C 309.00 107.41 309.00 192.71 309.00 278.00 C 299.83 278.00 290.66 278.01 281.50 277.99 C 281.50 192.70 281.50 107.41 281.50 22.12 Z" fill="#006ab6" opacity="1.00"/>
<path d="M 524.50 48.38 C 533.66 48.37 542.83 48.38 552.00 48.37 C 552.00 64.62 552.00 80.87 552.00 97.12 C 576.13 97.12 600.25 97.12 624.38 97.12 C 624.38 105.79 624.38 114.46 624.37 123.12 C 600.25 123.13 576.13 123.13 552.00 123.12 C 552.00 153.76 551.99 184.40 552.01 215.03 C 552.18 225.57 553.49 237.09 560.64 245.40 C 566.58 252.42 576.14 254.84 585.00 254.99 C 599.76 255.18 614.61 252.31 628.14 246.39 C 629.53 255.06 630.91 263.74 632.30 272.42 C 613.66 280.06 592.96 282.52 573.00 280.11 C 557.39 278.24 541.84 270.25 533.90 256.23 C 523.67 239.02 524.34 218.29 524.50 198.98 C 524.50 148.78 524.50 98.58 524.50 48.38 Z" fill="#006ab6" opacity="1.00"/>
<path d="M 945.86 102.03 C 967.59 95.89 990.35 92.91 1012.92 94.63 C 1029.08 95.93 1046.09 100.36 1057.91 112.12 C 1068.63 122.73 1072.72 138.25 1072.75 152.97 C 1072.75 192.17 1072.77 231.37 1072.74 270.57 C 1053.52 277.01 1033.26 279.89 1013.07 280.84 C 993.67 281.46 973.15 280.64 955.70 271.21 C 943.61 264.82 935.17 252.60 932.87 239.19 C 930.19 223.60 931.33 206.13 940.91 192.96 C 949.40 181.30 963.41 175.32 977.14 172.47 C 999.55 167.88 1022.55 170.00 1045.25 169.49 C 1044.75 159.04 1046.76 148.08 1042.83 138.09 C 1039.99 130.70 1033.29 125.44 1025.93 122.99 C 1017.32 119.98 1008.09 119.44 999.05 119.38 C 982.44 119.52 965.72 121.73 950.02 127.28 C 948.62 118.87 947.25 110.44 945.86 102.03 M 999.11 191.75 C 987.99 192.62 975.86 194.44 967.37 202.35 C 959.29 210.13 958.05 222.43 959.81 232.97 C 960.99 240.93 965.97 248.25 973.23 251.84 C 983.93 257.21 996.28 257.37 1008.00 257.21 C 1020.53 256.80 1033.17 255.64 1045.25 252.07 C 1045.25 231.84 1045.25 211.61 1045.25 191.38 C 1029.87 191.55 1014.47 190.98 999.11 191.75 Z" fill="#006ab6" opacity="1.00"/>
<path d="M 1250.29 104.39 C 1266.94 94.63 1287.05 92.93 1305.90 94.84 C 1323.38 96.61 1341.03 103.84 1352.30 117.75 C 1364.01 131.80 1368.11 150.42 1369.00 168.28 L 1369.00 177.45 C 1368.56 184.53 1367.78 191.62 1366.03 198.50 C 1324.88 198.50 1283.73 198.50 1242.58 198.51 C 1242.47 209.74 1244.07 221.37 1249.75 231.25 C 1254.48 239.70 1262.35 246.14 1271.29 249.75 C 1283.51 254.74 1297.00 255.50 1310.05 254.78 C 1326.82 253.63 1343.70 250.17 1358.83 242.62 C 1360.20 251.31 1361.60 259.99 1362.98 268.68 C 1350.30 274.22 1336.81 277.84 1323.10 279.63 C 1305.39 281.82 1287.15 281.75 1269.78 277.32 C 1255.03 273.59 1241.07 265.47 1231.93 253.13 C 1220.26 237.65 1216.12 217.96 1215.01 198.97 C 1214.07 178.67 1215.26 157.80 1222.53 138.63 C 1227.80 124.66 1237.24 111.94 1250.29 104.39 M 1279.53 119.72 C 1268.81 121.49 1258.36 126.91 1252.10 136.00 C 1244.17 147.31 1242.39 161.64 1242.62 175.12 C 1275.96 175.12 1309.31 175.12 1342.65 175.12 C 1342.62 163.01 1341.35 150.38 1335.27 139.66 C 1330.54 131.11 1322.39 124.70 1313.13 121.70 C 1302.34 118.20 1290.67 117.91 1279.53 119.72 Z" fill="#006ab6" opacity="1.00"/>
<path d="M 1156.20 95.17 C 1173.24 93.85 1190.71 94.24 1207.24 98.99 C 1205.47 107.53 1203.73 116.07 1201.96 124.60 C 1192.65 121.50 1182.78 120.71 1173.03 120.51 C 1162.56 120.51 1151.75 121.01 1142.01 125.28 C 1141.98 176.19 1142.01 227.09 1142.00 278.00 C 1132.83 277.99 1123.65 278.01 1114.49 277.99 C 1114.52 220.18 1114.49 162.38 1114.50 104.57 C 1127.69 98.93 1141.99 96.51 1156.20 95.17 Z" fill="#006ab6" opacity="1.00"/>
<path d="M 392.18 97.12 C 403.88 97.13 415.57 97.11 427.26 97.13 C 402.26 125.66 377.24 154.19 352.21 182.69 C 379.69 214.48 407.22 246.22 434.73 277.99 C 423.04 278.02 411.35 277.98 399.65 278.01 C 372.12 246.25 344.60 214.48 317.09 182.69 C 342.15 154.19 367.14 125.63 392.18 97.12 Z" fill="#006ab6" opacity="1.00"/>
<path d="M 455.62 97.12 C 464.79 97.12 473.96 97.12 483.12 97.12 C 483.13 157.42 483.12 217.71 483.13 278.00 C 473.96 278.00 464.79 278.00 455.62 278.00 C 455.62 217.71 455.62 157.41 455.62 97.12 Z" fill="#006ab6" opacity="1.00"/>
<path d="M 643.97 97.13 C 653.40 97.12 662.83 97.12 672.26 97.12 C 688.61 144.94 704.96 192.75 721.33 240.56 C 737.71 192.76 754.04 144.94 770.40 97.13 C 779.68 97.12 788.97 97.12 798.26 97.12 C 814.60 144.95 830.98 192.76 847.32 240.59 C 863.69 192.77 880.03 144.94 896.39 97.13 C 905.82 97.11 915.25 97.13 924.69 97.12 C 903.68 157.41 882.65 217.69 861.65 277.99 C 852.22 278.01 842.80 277.99 833.37 278.00 C 817.03 231.95 800.69 185.90 784.33 139.86 C 767.96 185.90 751.63 231.95 735.28 278.00 C 725.86 278.00 716.44 278.00 707.02 278.00 C 685.98 217.72 664.99 157.42 643.97 97.13 Z" fill="#006ab6" opacity="1.00"/>
<path d="M 0.00 106.88 C -2.53 112.35 2.20 115.47 4.97 118.97 C 42.18 162.11 79.33 205.31 116.53 248.48 C 131.47 266.02 146.79 283.25 161.50 301.00 L 135.60 301.00 C 129.75 300.75 123.46 299.16 119.61 294.42 C 92.63 263.06 65.63 231.72 38.63 200.37 C 25.80 185.30 12.62 170.50 0.00 155.25 L 0.00 106.88 Z" fill="#006ab6" opacity="1.00"/>
<path d="M 0.00 179.22 C 33.37 217.42 66.21 256.10 99.45 294.42 C 101.28 296.51 102.99 298.69 104.54 301.00 L 78.99 301.00 C 72.76 300.84 66.17 298.90 62.30 293.71 C 41.60 269.46 20.55 245.50 0.00 221.12 L 0.00 179.22 Z" fill="#006ab6" opacity="1.00"/>
</g>
</svg>