<?xml version="1.0" encoding="utf-8"?>
<svg xmlns="http://www.w3.org/2000/svg" height="504pt" version="1.1" viewBox="0 0 720 504" width="720pt">
<g id="#ffffffff">
</g>
<g id="#00eba7ff">
<path d="M 121.20 98.84 C 123.78 98.11 126.33 99.29 128.89 99.47 C 144.63 99.87 158.41 110.26 166.96 122.90 C 191.72 166.12 216.76 209.19 241.41 252.48 C 254.81 275.79 268.33 299.02 281.68 322.35 C 286.05 329.76 290.73 337.34 291.99 346.00 C 293.03 354.12 292.15 362.32 292.07 370.47 C 290.81 374.89 287.75 378.59 285.64 382.65 C 279.19 394.29 267.37 402.21 254.74 405.73 C 248.58 406.36 242.48 408.83 236.24 407.36 C 232.45 406.33 228.49 405.95 224.80 404.53 C 211.95 400.45 201.32 390.64 195.25 378.72 C 156.31 311.01 117.32 243.32 78.37 175.61 C 75.40 170.52 73.52 164.86 72.28 159.13 C 71.81 153.47 71.84 147.74 72.22 142.07 C 74.32 131.58 78.82 121.19 86.84 113.85 C 92.59 107.53 100.32 103.51 108.26 100.65 C 112.48 99.48 116.95 99.90 121.20 98.84 Z" fill="#00eba7" opacity="1.00"/>
<path d="M 589.45 99.34 C 594.53 97.99 599.95 97.95 605.03 99.32 C 616.10 100.99 626.65 106.49 634.10 114.89 C 641.53 121.81 645.42 131.58 647.68 141.27 C 648.30 147.19 648.16 153.20 647.74 159.13 C 646.06 168.08 641.66 176.23 636.80 183.83 C 636.18 184.72 635.56 185.65 634.63 186.24 C 629.11 189.86 624.21 194.49 618.11 197.16 C 605.82 202.67 591.15 203.80 578.64 198.37 C 572.19 195.57 565.87 192.14 560.79 187.22 C 553.45 179.73 548.01 170.20 546.28 159.79 C 544.96 151.24 545.78 142.53 547.39 134.08 C 553.99 116.39 570.23 101.38 589.45 99.34 Z" fill="#00eba7" opacity="1.00"/>
<path d="M 326.15 111.11 C 332.33 106.20 339.42 102.31 347.05 100.22 C 354.31 99.14 361.71 99.28 369.02 99.72 C 373.93 99.89 378.48 101.97 382.87 104.01 C 389.45 107.41 395.76 111.75 400.18 117.79 C 403.49 122.00 405.97 126.75 408.64 131.37 C 431.86 171.70 455.00 212.08 478.32 252.35 C 492.85 278.16 507.79 303.73 522.59 329.38 C 526.51 336.27 529.67 343.87 529.95 351.89 C 530.42 358.72 528.76 365.41 527.96 372.14 C 523.40 383.40 515.63 393.75 505.06 400.05 C 498.11 404.43 490.01 406.20 482.05 407.63 C 476.27 408.49 470.75 406.16 465.05 405.73 C 452.18 402.14 440.55 393.79 433.98 382.02 C 411.22 342.45 388.39 302.91 365.70 263.30 C 363.77 260.41 362.77 255.90 358.79 255.30 C 359.30 253.00 358.54 250.67 357.41 248.68 C 344.46 226.83 332.17 204.60 319.31 182.70 C 314.16 174.86 310.32 166.11 308.67 156.85 C 307.80 151.25 308.75 145.55 307.87 139.95 C 307.48 137.70 308.93 135.81 309.91 133.93 C 314.58 125.86 318.80 117.14 326.15 111.11 Z" fill="#00eba7" opacity="1.00"/>
</g>
<g id="#0583ffff">
<path d="M 537.28 150.45 C 540.71 144.67 543.66 138.58 547.57 133.10 L 547.39 134.08 C 545.78 142.53 544.96 151.24 546.28 159.79 C 548.01 170.20 553.45 179.73 560.79 187.22 C 565.87 192.14 572.19 195.57 578.64 198.37 C 591.15 203.80 605.82 202.67 618.11 197.16 C 624.21 194.49 629.11 189.86 634.63 186.24 C 634.35 187.33 634.02 188.41 633.64 189.47 C 601.95 244.51 570.28 299.57 538.57 354.61 C 534.98 360.41 532.29 366.81 527.96 372.14 C 528.76 365.41 530.42 358.72 529.95 351.89 C 529.67 343.87 526.51 336.27 522.59 329.38 C 507.79 303.73 492.85 278.16 478.32 252.35 C 498.38 218.62 517.48 184.33 537.28 150.45 Z" fill="#0583ff" opacity="1.00"/>
<path d="M 268.26 206.34 C 281.29 183.83 294.02 161.14 307.31 138.78 L 307.87 139.95 C 308.75 145.55 307.80 151.25 308.67 156.85 C 310.32 166.11 314.16 174.86 319.31 182.70 C 332.17 204.60 344.46 226.83 357.41 248.68 C 358.54 250.67 359.30 253.00 358.79 255.30 C 339.38 289.62 319.47 323.68 299.88 357.91 C 297.34 362.13 295.31 366.70 292.07 370.47 C 292.15 362.32 293.03 354.12 291.99 346.00 C 290.73 337.34 286.05 329.76 281.68 322.35 C 268.33 299.02 254.81 275.79 241.41 252.48 C 250.77 237.35 259.27 221.70 268.26 206.34 Z" fill="#0583ff" opacity="1.00"/>
</g>
</svg>