<?xml version="1.0" encoding="utf-8"?>
<svg xmlns="http://www.w3.org/2000/svg" height="651pt" version="1.1" viewBox="0 0 2436 651" width="2436pt">
<g id="#000000ff">
<path d="M 2361.44 0.00 L 2369.43 0.00 C 2386.56 0.71 2404.28 5.96 2416.71 18.30 C 2429.70 30.81 2435.38 49.08 2436.00 66.74 L 2436.00 73.18 C 2435.54 83.58 2433.81 94.06 2429.59 103.64 C 2424.40 115.81 2415.06 126.18 2403.34 132.36 C 2387.70 140.70 2369.25 142.26 2351.91 139.93 C 2335.53 137.75 2319.43 130.03 2309.27 116.70 C 2296.94 100.81 2293.75 79.68 2295.62 60.10 C 2297.16 43.30 2304.28 26.48 2317.51 15.59 C 2329.69 5.25 2345.77 0.96 2361.44 0.00 Z" fill="#000000" opacity="1.00"/>
<path d="M 1780.97 16.73 C 1819.86 16.73 1858.75 16.70 1897.65 16.75 C 1897.65 90.60 1897.60 164.45 1897.67 238.29 C 1908.15 224.06 1920.87 211.37 1935.67 201.63 C 1962.26 183.88 1994.44 176.43 2026.06 175.27 C 2066.05 173.36 2106.52 182.99 2141.33 202.77 C 2167.83 217.78 2190.86 238.86 2208.05 264.01 C 2226.77 291.19 2238.55 322.77 2244.38 355.15 C 2250.26 388.36 2250.79 422.48 2246.55 455.92 C 2242.48 486.91 2233.30 517.49 2217.57 544.62 C 2203.69 568.74 2184.61 589.83 2162.01 606.06 C 2135.05 625.53 2103.51 638.13 2070.99 644.59 C 2028.21 653.02 1983.51 651.92 1941.33 640.76 C 1904.98 631.10 1870.54 612.85 1843.90 586.08 C 1819.75 562.07 1802.58 531.56 1792.83 499.04 C 1784.98 473.14 1781.49 446.06 1781.02 419.05 C 1780.89 284.95 1780.99 150.84 1780.97 16.73 M 1996.51 267.73 C 1981.76 269.49 1967.21 273.85 1954.34 281.34 C 1941.96 288.47 1931.30 298.45 1923.12 310.13 C 1913.57 323.68 1907.24 339.26 1903.22 355.27 C 1898.08 375.74 1896.52 396.95 1896.86 418.00 C 1897.21 437.64 1899.33 457.38 1904.74 476.32 C 1909.33 492.38 1916.44 507.91 1926.97 520.97 C 1936.12 532.41 1947.94 541.71 1961.26 547.84 C 1978.91 556.06 1998.66 558.87 2018.00 558.32 C 2037.06 557.80 2056.31 553.49 2072.91 543.86 C 2086.57 536.03 2098.08 524.66 2106.53 511.41 C 2116.37 496.06 2122.35 478.52 2125.84 460.70 C 2129.66 441.04 2130.60 420.91 2129.91 400.93 C 2129.10 380.43 2126.19 359.85 2119.37 340.44 C 2113.87 324.80 2105.61 309.94 2094.06 297.95 C 2082.69 286.01 2068.14 277.26 2052.43 272.37 C 2034.42 266.76 2015.19 265.62 1996.51 267.73 Z" fill="#000000" opacity="1.00"/>
<path d="M 928.89 177.47 C 964.76 172.94 1001.54 174.68 1036.64 183.56 C 1077.26 193.76 1115.71 214.73 1143.87 246.06 C 1167.43 271.96 1183.27 304.30 1191.60 338.18 C 1197.68 362.61 1200.16 387.84 1200.14 412.99 C 1200.13 488.36 1200.14 563.74 1200.13 639.11 C 1200.05 639.79 1199.90 641.15 1199.82 641.83 C 1161.04 641.61 1122.25 641.81 1083.46 641.73 C 1083.43 623.42 1083.53 605.12 1083.41 586.81 C 1073.55 600.30 1061.63 612.35 1047.86 621.86 C 1033.45 631.88 1017.13 639.01 1000.18 643.44 C 981.26 648.47 961.61 650.04 942.10 650.27 C 912.09 649.44 882.16 642.94 854.93 630.17 C 826.22 616.88 800.61 596.88 781.06 572.00 C 760.98 546.64 747.40 516.50 739.91 485.12 C 733.54 458.61 731.27 431.23 731.90 404.00 C 732.78 365.38 740.16 326.36 757.55 291.62 C 771.87 262.75 793.31 237.43 819.57 218.73 C 851.61 195.73 889.94 182.46 928.89 177.47 M 950.45 267.64 C 933.69 269.49 917.12 274.70 902.96 283.97 C 890.17 292.26 879.59 303.74 871.83 316.81 C 862.16 333.02 856.55 351.35 853.44 369.89 C 850.45 387.87 849.72 406.17 850.37 424.36 C 851.18 444.68 854.06 465.08 860.78 484.34 C 866.18 499.83 874.26 514.55 885.57 526.52 C 895.68 537.31 908.34 545.63 922.18 550.81 C 939.58 557.36 958.48 559.25 976.95 558.04 C 998.29 556.66 1019.64 549.87 1036.62 536.61 C 1050.34 526.04 1060.85 511.71 1067.99 496.02 C 1076.72 476.88 1080.91 455.97 1082.59 435.09 C 1084.15 414.11 1083.70 392.92 1080.57 372.09 C 1076.61 346.35 1067.82 320.43 1050.33 300.64 C 1039.09 287.81 1024.27 278.26 1008.08 272.96 C 989.59 266.87 969.73 265.62 950.45 267.64 Z" fill="#000000" opacity="1.00"/>
<path d="M 1448.01 177.92 C 1489.25 172.25 1531.86 174.82 1571.73 187.11 C 1605.96 197.67 1638.03 216.18 1662.80 242.23 C 1686.77 267.18 1703.36 298.65 1712.45 331.91 C 1719.56 357.63 1722.52 384.38 1722.63 411.03 C 1722.65 487.93 1722.64 564.83 1722.64 641.73 C 1683.76 641.75 1644.89 641.71 1606.02 641.75 C 1605.88 623.43 1605.99 605.11 1605.96 586.79 C 1597.09 598.82 1586.68 609.78 1574.68 618.74 C 1559.44 630.24 1541.80 638.37 1523.37 643.26 C 1506.29 647.91 1488.58 649.59 1470.94 650.19 C 1431.51 650.61 1391.88 640.25 1358.04 619.89 C 1327.08 601.43 1301.38 574.41 1284.27 542.71 C 1264.80 507.03 1256.00 466.34 1254.54 425.95 C 1253.06 384.69 1258.11 342.58 1274.22 304.31 C 1287.02 273.63 1307.35 246.04 1333.39 225.31 C 1366.11 199.02 1406.67 183.71 1448.01 177.92 M 1472.55 267.78 C 1458.29 269.51 1444.22 273.64 1431.67 280.71 C 1420.01 287.24 1409.80 296.29 1401.78 306.97 C 1391.76 320.23 1385.03 335.74 1380.71 351.73 C 1375.25 371.98 1373.41 393.04 1373.48 413.97 C 1373.59 435.31 1375.75 456.81 1381.84 477.33 C 1386.64 493.49 1394.07 509.06 1404.93 522.05 C 1414.29 533.31 1426.24 542.39 1439.61 548.37 C 1456.90 556.16 1476.13 558.91 1494.99 558.31 C 1513.00 557.75 1531.12 553.74 1547.01 545.06 C 1560.44 537.80 1571.99 527.22 1580.70 514.69 C 1590.84 500.20 1597.31 483.41 1601.26 466.24 C 1606.02 445.41 1607.26 423.92 1606.63 402.61 C 1605.95 382.18 1603.29 361.64 1596.81 342.18 C 1591.61 326.58 1583.77 311.68 1572.63 299.49 C 1561.41 287.10 1546.81 277.92 1530.93 272.80 C 1512.18 266.73 1492.06 265.57 1472.55 267.78 Z" fill="#000000" opacity="1.00"/>
<path d="M 313.28 182.60 C 340.83 178.73 369.80 181.18 395.36 192.66 C 419.11 203.20 438.59 222.04 451.63 244.35 C 462.59 262.87 469.69 283.45 474.31 304.41 C 487.22 370.71 499.67 437.11 512.41 503.45 C 514.99 516.02 516.17 529.97 524.96 540.07 C 531.45 547.93 545.47 548.00 551.35 539.41 C 556.25 531.97 556.60 522.67 556.79 514.04 C 556.80 403.83 556.82 293.62 556.78 183.41 C 595.68 183.38 634.57 183.41 673.47 183.40 C 673.48 281.92 673.47 380.44 673.47 478.96 C 673.32 500.98 674.54 523.25 670.04 544.97 C 664.54 574.32 650.22 602.69 626.88 621.81 C 600.48 643.84 564.76 652.28 530.95 649.70 C 512.30 648.60 493.69 644.37 476.89 636.07 C 462.52 629.04 449.68 619.01 439.16 606.98 C 416.89 581.49 404.96 548.74 398.16 516.01 C 384.81 446.09 371.65 376.14 358.35 306.21 C 356.91 299.03 353.86 291.70 347.91 287.12 C 341.52 282.10 331.74 282.19 325.44 287.31 C 319.40 292.12 316.45 299.72 315.06 307.11 C 304.36 363.65 293.64 420.19 282.92 476.73 C 278.76 497.41 275.82 518.40 269.82 538.68 C 261.78 566.17 248.94 592.99 228.42 613.39 C 214.50 627.33 197.06 637.66 178.22 643.41 C 163.58 648.06 148.21 649.68 132.92 650.25 C 110.86 650.16 88.48 646.19 68.68 636.13 C 44.25 624.06 24.79 602.89 13.86 578.02 C 4.55 557.49 0.90 534.91 0.00 512.52 L 0.00 183.45 C 38.93 183.34 77.87 183.43 116.80 183.40 C 116.82 293.61 116.80 403.82 116.81 514.02 C 116.88 520.32 117.25 526.71 119.09 532.77 C 120.41 536.99 122.70 541.19 126.59 543.54 C 133.19 547.43 142.51 546.58 147.72 540.75 C 154.46 533.42 157.04 523.40 159.17 513.93 C 170.39 455.43 181.51 396.90 192.70 338.38 C 196.69 318.07 199.74 297.43 206.73 277.85 C 216.31 249.91 232.49 223.40 256.51 205.65 C 273.06 193.26 292.88 185.59 313.28 182.60 Z" fill="#000000" opacity="1.00"/>
<path d="M 2307.62 183.41 C 2346.52 183.39 2385.41 183.39 2424.31 183.41 C 2424.31 336.19 2424.33 488.97 2424.30 641.75 C 2388.20 641.72 2352.10 641.75 2316.00 641.74 C 2313.07 641.69 2310.13 641.98 2307.28 641.40 C 2308.02 636.64 2307.43 631.80 2307.62 627.01 C 2307.62 479.15 2307.62 331.28 2307.62 183.41 Z" fill="#000000" opacity="1.00"/>
</g>
</svg>